<?xml version="1.0" encoding="UTF-8"?>
<svg width="16px" height="16px" viewBox="0 0 16 16" version="1.1" xmlns="http://www.w3.org/2000/svg" xmlns:xlink="http://www.w3.org/1999/xlink">
    <!-- Generator: Sketch 52.6 (67491) - http://www.bohemiancoding.com/sketch -->
    <title>icon/info</title>
    <desc>Created with Sketch.</desc>
    <g id="Icons-✅" stroke="none" stroke-width="1" fill="none" fill-rule="evenodd">
        <g id="Icons" transform="translate(-736.000000, -1728.000000)" fill="currentColor">
            <g id="icon/info" transform="translate(736.000000, 1728.000000)">
                <g id="info">
                    <path d="M8,0 C10.1217319,1.2991861e-16 12.1565632,0.842854723 13.6568542,2.34314575 C15.1571453,3.84343678 16,5.87826808 16,8 C16,12.418278 12.418278,16 8,16 C3.581722,16 -5.41083001e-16,12.418278 0,8 C5.41083001e-16,3.581722 3.581722,-2.705415e-16 8,0 Z M8,14.6 C11.6427959,14.5944931 14.5944931,11.6427959 14.6,8 C14.6,4.35492065 11.6450793,1.4 8,1.4 C4.35492065,1.4 1.4,4.35492065 1.4,8 C1.4,11.6450793 4.35492065,14.6 8,14.6 Z M8,6 C7.44771525,6 7,5.55228475 7,5 C7,4.44771525 7.44771525,4 8,4 C8.55228475,4 9,4.44771525 9,5 C9,5.55228475 8.55228475,6 8,6 Z M9,10.69 L9,10.74 C9.25008592,10.74 9.48117484,10.8734192 9.60621781,11.09 C9.73126077,11.3065807 9.73126077,11.5734193 9.60621781,11.79 C9.48117484,12.0065808 9.25008592,12.14 9,12.14 L7,12.14 C6.61340068,12.14 6.3,11.8265993 6.3,11.44 C6.3,11.0534007 6.61340068,10.74 7,10.74 L7.3,10.74 L7.3,8.39 L7,8.39 C6.61340069,8.38999998 6.30000003,8.07659931 6.30000003,7.69 C6.30000003,7.30340069 6.61340069,6.99000002 7,6.99 L8,6.99 C8.38659932,6.99 8.7,7.30340068 8.7,7.69 L8.7,10.69 L9,10.69 Z" id="Combined-Shape"></path>
                </g>
            </g>
        </g>
    </g>
</svg>