<svg viewBox="0 0 16 16" width="16" height="16" fill="none" xmlns="http://www.w3.org/2000/svg"><path opacity=".01" d="M16 0H0v16h16V0Z" fill="currentColor"/><path d="M10.91 10.75h2.14A1.36 1.36 0 0 0 14.4 9.4V3a1.361 1.361 0 0 0-1.35-1.4H6.58A1.36 1.36 0 0 0 5.23 3v2.09" stroke="currentColor" stroke-width="1.2" stroke-linecap="round" stroke-linejoin="round"/><path d="M9.42 14.39A1.34 1.34 0 0 0 10.77 13V6.89a1.35 1.35 0 0 0-1.35-1.35H3a1.35 1.35 0 0 0-1.4 1.35V13A1.38 1.38 0 0 0 3 14.4l6.42-.01Z" stroke="currentColor" stroke-width="1.2" stroke-linecap="round" stroke-linejoin="round"/><path d="m4.54 10.05.92 1 2.37-2.16" stroke="currentColor" stroke-width="1.2" stroke-linecap="round" stroke-linejoin="round"/></svg>