<?xml version="1.0" encoding="UTF-8"?>
<svg width="8px" height="8px" viewBox="0 0 8 8" version="1.1" xmlns="http://www.w3.org/2000/svg" xmlns:xlink="http://www.w3.org/1999/xlink">
    <!-- Generator: Sketch 52.6 (67491) - http://www.bohemiancoding.com/sketch -->
    <title>icon/text-area-extend</title>
    <desc>Created with Sketch.</desc>
    <g id="Icons-✅" stroke="none" stroke-width="1" fill="none" fill-rule="evenodd">
        <g id="Icons" transform="translate(-822.000000, -940.000000)" fill="currentColor">
            <g id="icon/text-area-extend" transform="translate(822.000000, 940.000000)">
                <g id="text-area-extend" transform="translate(-1.000000, -1.000000)">
                    <path d="M1.7,9 C1.52004042,8.99848122 1.34779552,8.92671251 1.22,8.8 C1.07748006,8.67287733 0.995982062,8.49097671 0.995982062,8.3 C0.995982062,8.10902329 1.07748006,7.92712267 1.22,7.8 L7.82,1.2 C7.99863279,1.0213672 8.25899577,0.951603142 8.50301271,1.01698728 C8.74702965,1.08237142 8.93762858,1.27297035 9.00301272,1.51698729 C9.06839686,1.76100423 8.9986328,2.02136721 8.82,2.2 L2.22,8.8 C2.08248261,8.93679225 1.89373967,9.00938569 1.7,9 Z M5.19,9 C5.01004042,8.99848122 4.83779552,8.92671251 4.71,8.8 C4.56748006,8.67287733 4.48598206,8.49097671 4.48598206,8.3 C4.48598206,8.10902329 4.56748006,7.92712267 4.71,7.8 L7.82,4.69 C7.94712267,4.54748006 8.12902329,4.46598206 8.32,4.46598206 C8.51097671,4.46598206 8.69287733,4.54748006 8.82,4.69 C8.95696438,4.82025306 9.03450026,5.00098915 9.03450026,5.19 C9.03450026,5.37901085 8.95696438,5.55974694 8.82,5.69 L5.67,8.78 C5.54549685,8.91407334 5.37284026,8.99320762 5.19,9 Z M8.3,9 C8.21105399,8.99888373 8.1230158,8.98195331 8.04,8.95 C7.95932402,8.91172468 7.88510125,8.86111825 7.82,8.8 C7.75465705,8.73839553 7.70347691,8.66333132 7.67,8.58 C7.63804669,8.4969842 7.62111627,8.40894601 7.62,8.32 C7.61817153,8.13937245 7.69045625,7.96588912 7.82,7.84 C7.88510125,7.77888175 7.95932402,7.72827532 8.04,7.69 C8.20626466,7.61999325 8.39373534,7.61999325 8.56,7.69 C8.63929283,7.73064484 8.71319826,7.78103491 8.78,7.84 C8.90954375,7.96588912 8.98182847,8.13937245 8.98,8.32 C8.97888373,8.40894601 8.96195331,8.4969842 8.93,8.58 C8.88935516,8.65929283 8.83896509,8.73319826 8.78,8.8 C8.6534506,8.92856956 8.48040075,9.00067367 8.3,9 Z" id="Combined-Shape"></path>
                </g>
            </g>
        </g>
    </g>
</svg>