<svg xmlns="http://www.w3.org/2000/svg" width="200" height="40" viewBox="0 0 200 40">
    <g fill="none" fill-rule="nonzero">
        <path fill="#4D4D4D" d="M48.6 1c-5 0-6.8 3.5-6.8 6.8v2h-1c-.8 0-1.4.6-1.4 1.4 0 .8.6 1.4 1.4 1.4h1v13.8c0 .8.6 1.5 1.5 1.5s1.5-.6 1.5-1.5V12.5H48c.8 0 1.4-.6 1.4-1.4 0-.8-.6-1.4-1.4-1.4h-3.2v-2c0-1.8.7-4 3.9-4 .8 0 1.4-.6 1.4-1.3-.1-.8-.7-1.4-1.5-1.4zM60 9.3c-2-.1-3.8.8-5 2.4v-.8c0-.8-.6-1.5-1.5-1.5s-1.5.7-1.5 1.5v15.4c0 .8.6 1.5 1.5 1.5s1.5-.6 1.5-1.5v-8.5c0-3.6 1.9-5.7 5-5.7.8 0 1.4-.6 1.4-1.4 0-.8-.7-1.4-1.4-1.4zM77.7 16.9c0-1.7-.5-3.4-1.4-4.8-1.4-1.9-3.7-3-6.1-2.8-5.1 0-8 3.4-8 9.3 0 6.1 2.9 9.4 8.4 9.4 2.2.1 4.4-.7 6.1-2.2.3-.2.5-.6.5-1 0-.7-.6-1.3-1.3-1.3-.3 0-.6.1-.8.3-1.2 1-2.8 1.6-4.4 1.6-3.3 0-5.4-2.2-5.5-5.7H76c1.7-.2 1.7-1.8 1.7-2.8zm-7.4-5c3 0 4.5 1.7 4.6 5h-9.7c.3-3.2 2.1-5 5.1-5zM87.5 17.1c-2.2-.8-4-1.4-4-3 0-1.8 2-2 3.1-2 1.5-.1 3 .5 4 1.5.5.5 1.4.5 1.9 0 .3-.3.4-.6.4-1 0-.3-.1-.6-.3-.9-1.5-1.7-3.7-2.7-5.9-2.5-3.7 0-6 1.9-6 4.8 0 3.6 3.2 4.7 6 5.7 2.1.7 4 1.3 4 2.9 0 2.1-2.4 2.5-3.8 2.5-1.7.1-3.4-.6-4.6-1.8-.3-.3-.6-.4-1-.5-.7 0-1.3.6-1.3 1.3 0 .3.1.6.3.9 1.7 2 4.1 3 6.6 3 4.2 0 6.7-2 6.7-5.2-.2-3.7-3.3-4.7-6.1-5.7zM104.8 9.2c-1.8-.1-3.6.7-4.8 2.1V1.5c0-.8-.6-1.5-1.5-1.5-.8 0-1.4.6-1.4 1.5v24.8c0 .8.6 1.5 1.4 1.5.8 0 1.5-.6 1.5-1.5V17c0-3.4 1.6-5.1 4.8-5.1 3.2 0 4.3 1.4 4.3 4.8v9.6c0 .8.6 1.5 1.5 1.5.8 0 1.4-.6 1.4-1.5V16.2c0-4.6-2.4-7-7.2-7zM136.2 9.5c-.6 0-1.2.4-1.4 1l-4.2 11.8-3.4-11.8c-.3-.8-1.1-1.1-1.9-.9-.4.1-.7.5-.9.9L121 22.3l-4-11.9c-.2-.6-.7-1-1.4-.9-.8 0-1.4.6-1.4 1.4 0 .2 0 .4.1.6l5.6 15.3c.2.6.7 1 1.4 1 .6 0 1.2-.4 1.4-1l3.3-11.2 3.3 11.2c.2.6.8 1 1.4 1 .6 0 1.2-.4 1.4-1l5.6-15.3c.1-.2.1-.4.1-.6-.2-.8-.8-1.4-1.6-1.4zM146.8 9.2c-5.3 0-8.2 3.3-8.2 9.3 0 6 2.9 9.4 8.2 9.4 5.3 0 8.2-3.3 8.2-9.4 0-6.1-2.9-9.3-8.2-9.3zm0 16c-3.5 0-5.3-2.2-5.3-6.7s1.8-6.7 5.3-6.7 5.2 2.3 5.2 6.7-1.7 6.8-5.2 6.7zM166.2 9.3c-2-.1-3.8.8-5 2.4v-.8c0-.8-.6-1.5-1.4-1.5-.8 0-1.5.6-1.5 1.4v15.4c0 .8.6 1.5 1.4 1.5.8 0 1.5-.6 1.5-1.4v-8.5c0-3.6 1.9-5.7 5-5.7.8 0 1.4-.6 1.4-1.4 0-.8-.6-1.4-1.4-1.4zM177.3 16.9l6-4.8c.4-.3.6-.7.6-1.2 0-.8-.6-1.4-1.4-1.4-.4 0-.7.1-1 .4l-8.6 7V1.5c0-.8-.6-1.5-1.4-1.5-.8 0-1.5.6-1.5 1.4v24.8c0 .8.6 1.5 1.4 1.5.8 0 1.5-.6 1.5-1.4v-6l2-1.6 6.6 8.4c.3.4.8.7 1.2.7.8 0 1.4-.6 1.4-1.4 0-.3-.1-.7-.3-.9l-6.5-8.6zM193.7 17.1c-2.2-.8-4-1.4-4-3 0-1.8 2-2 3.1-2 1.5-.1 3 .5 4 1.5.3.3.6.4 1 .4.7-.1 1.2-.7 1.2-1.4 0-.3-.1-.6-.3-.9-1.5-1.7-3.7-2.7-5.9-2.5-3.7 0-6 1.9-6 4.8 0 3.6 3.2 4.7 6 5.7 2.1.7 4 1.3 4 2.9 0 2.1-2.4 2.5-3.8 2.5-1.7.1-3.4-.6-4.6-1.8-.3-.3-.6-.4-1-.5-.7 0-1.3.6-1.3 1.3 0 .3.1.6.3.9 1.7 1.9 4.1 2.9 6.7 2.8 4.2 0 6.7-2 6.7-5.2-.2-3.5-3.3-4.5-6.1-5.5z"/>
        <path fill="#9B65C3" d="M.2 25.5C.7 29.1 2.4 32.4 5 35l5.8-5.8c0-6.1 3.2-11.7 8.5-14.8L.2 25.5z"/>
        <path fill="#9B65C3" d="M10.8 29.2c-3 0-5.9-.8-8.5-2.3-.7-.4-1.4-.9-2.1-1.4.5 3.6 2.2 6.9 4.8 9.5l5.8-5.8z"/>
        <path fill="#BE63C5" d="M10.8 29.2L5 35c2.6 2.6 5.9 4.3 9.5 4.8l11-19.1c-3 5.2-8.6 8.5-14.7 8.5z"/>
        <path fill="#BF63C6" d="M13.1 37.7c-1.5-2.6-2.3-5.5-2.3-8.5L5 35c2.6 2.6 5.9 4.3 9.5 4.8-.5-.7-1-1.4-1.4-2.1z"/>
        <path fill="#3278B1" d="M32.5 6.8l-13.2 7.6c-5.3 3-11.7 3-17 0C.8 17 0 20 0 23c0 .8.1 1.7.2 2.5.7.5 1.4 1 2.1 1.4 2.6 1.5 5.5 2.3 8.5 2.3l22-22c-.1-.1-.2-.2-.3-.4z"/>
        <path fill="#3278B2" d="M2.3 26.9c2.6 1.5 5.5 2.3 8.5 2.3 0-6.1 3.2-11.7 8.5-14.8L.2 25.4c.7.6 1.4 1.1 2.1 1.5z"/>
        <path fill="#45A4EC" d="M2.3 14.4C.8 17 0 20 0 23c0 .8.1 1.7.2 2.5l19.1-11.1c-5.2 3.1-11.7 3.1-17 0z"/>
        <path fill="#19BB7D" d="M32.8 7.2c-.3-.3-.5-.5-.8-.7-.6-.4-1.4-.6-2.1-.6H17c-6.1 0-11.7 3.3-14.7 8.5 5.3 3 11.7 3 17 0-5.3 3-8.5 8.7-8.5 14.8 6.1 0 11.7-3.2 14.8-8.5l7.6-13.2c-.2-.1-.3-.2-.4-.3z"/>
        <path fill="#08C7FB" d="M19.3 14.4l13.2-7.6c-.2-.1-.3-.3-.5-.4l-29.7 8c5.3 3.1 11.8 3.1 17 0z"/>
        <path fill="#59F2F6" d="M29.8 5.9H17c-6.1 0-11.7 3.3-14.7 8.5l29.7-8c-.7-.3-1.4-.5-2.2-.5z"/>
        <path fill="#DA3757" d="M25.6 20.7l7.6-13.2c-.1-.1-.2-.2-.3-.4l-22 22c0 3 .8 5.9 2.3 8.5.4.7.9 1.4 1.4 2.1.8.1 1.6.2 2.4.2 3 0 5.9-.8 8.5-2.3-3-5.2-3-11.7.1-16.9z"/>
        <path fill="#D33C4E" d="M10.8 29.2c0 3 .8 5.9 2.3 8.5.4.7.9 1.4 1.4 2.1l11-19.1c-3 5.2-8.6 8.5-14.7 8.5z"/>
        <path fill="#EE5A24" d="M25.6 20.7l-11 19.1c.8.1 1.6.2 2.5.2 3 0 5.9-.8 8.5-2.3-3.1-5.3-3.1-11.8 0-17z"/>
        <path fill="#8BDF55" d="M33.5 8c-.3-.5-.6-.9-1-1.2l-13.2 7.6c-5.3 3-8.5 8.7-8.5 14.8 6.1 0 11.7-3.2 14.8-8.5-3 5.3-3 11.7 0 17 5.2-3 8.5-8.6 8.5-14.6V10.2c0-.8-.2-1.5-.6-2.2z"/>
        <path fill="#25C16F" d="M32.5 6.8l-13.2 7.6c-5.3 3-8.5 8.7-8.5 14.8l22-22c-.1-.1-.2-.3-.3-.4z"/>
        <path fill="#8BDF55" d="M10.8 29.2c6.1 0 11.7-3.2 14.8-8.5l7.6-13.2c-.1-.1-.2-.2-.3-.4L10.8 29.2z"/>
        <path fill="#FB0" d="M33.2 7.5l-7.6 13.2c-3 5.3-3 11.7 0 17l8-29.7c-.2-.2-.3-.3-.4-.5z"/>
        <path fill="#FFA800" d="M25.6 37.7c5.3-3 8.5-8.6 8.5-14.7V10.2c0-.8-.2-1.5-.6-2.2l-7.9 29.7z"/>
    </g>
</svg>
