<svg width="16" height="16" viewBox="0 0 16 16"><path d="M6.09 6.25a3.13 3.13 0 1 1 .08-6.26 3.13 3.13 0 0 1-.08 6.26zm0-4.85a1.73 1.73 0 1 0 0 3.46 1.73 1.73 0 0 0 0-3.46zm9.21 10.9a.7.7 0 0 1 0 1.4h-1.6v1.6a.7.7 0 0 1-1.4 0v-1.6h-1.6a.7.7 0 0 1 0-1.4h1.6v-1.6a.7.7 0 0 1 1.4 0v1.6h1.6zm-6.06 2.3a.7.7 0 0 1 0 1.4H.71a.69.69 0 0 1-.55-.25.72.72 0 0 1-.16-.57L.88 10a3.08 3.08 0 0 1 3.05-2.58h4.36a3.07 3.07 0 0 1 3 2.58.69.69 0 0 1-.57.81.7.7 0 0 1-.81-.58 1.7 1.7 0 0 0-1.7-1.41H3.93a1.69 1.69 0 0 0-1.67 1.41l-.73 4.37h7.71z" fill="currentColor" fill-rule="evenodd"/></svg>