<svg width="17" height="16" viewBox="0 0 17 16"><path d="M13 3.85h-.26V2.2A1.7 1.7 0 0 0 10.13.73L7.82 2.09a3.37 3.37 0 0 1-1.67.45H2.7A2.7 2.7 0 0 0 0 5.25v3.33a2.72 2.72 0 0 0 2.71 2.7h.37v2.16a2.07 2.07 0 0 0 2.06 2.06 2.06 2.06 0 0 0 2.06-2.06v-2c.222.073.436.166.64.28l2.31 1.35c.26.153.558.232.86.23a1.65 1.65 0 0 0 .85-.23c.528-.3.853-.862.85-1.47V10H13a3.05 3.05 0 0 0 0-6.1v-.05zM5.15 14.1a.66.66 0 0 1-.46-.19.65.65 0 0 1-.2-.47v-2.16h1.3v2.17a.66.66 0 0 1-.64.65zm6-2.24a.29.29 0 0 1-.3 0l-2.32-1.35a4.72 4.72 0 0 0-1.9-.61H2.71A1.32 1.32 0 0 1 1.4 8.58V5.25a1.26 1.26 0 0 1 .38-.92A1.28 1.28 0 0 1 2.7 4h3.45a4.57 4.57 0 0 0 2.37-.65L10.84 2a.29.29 0 0 1 .3 0 .3.3 0 0 1 .15.26v9.4a.28.28 0 0 1-.14.2zM13 8.55v-3.3a1.65 1.65 0 0 1 0 3.3z" fill="currentColor" fill-rule="evenodd"/></svg>