<svg width="16" height="16" viewBox="0 0 16 16"><path d="M15 1a2.1 2.1 0 0 1 .72 2.83l-4.19 7.29a.68.68 0 0 1-.33.3L8 12.79a.67.67 0 0 1-.31.06.64.64 0 0 1-.35-.1.66.66 0 0 1-.34-.52l-.4-3.45a.85.85 0 0 1 .09-.44l4.2-7.27a2.12 2.12 0 0 1 1.27-1 2.08 2.08 0 0 1 1.58.21L15 1zm-2.43.45l-.05-.03a.7.7 0 0 0-.42.29l-.55 1 2.46 1.45.55-1a.69.69 0 0 0-.26-.94l-1.2-.7a.76.76 0 0 0-.53-.07zm-2.09 8.8l2.78-4.95-2.43-1.38L8 8.84l.35 2.33 2.13-.92zm-4.19 3.44a.69.69 0 0 1 .98-.1.7.7 0 0 1 .09 1A3.58 3.58 0 0 1 4.66 16a3 3 0 0 1-.89-.13 3.93 3.93 0 0 1-2.6-3.41C.92 10 2.34 8.64 3.74 7.35l.48-.46a2.24 2.24 0 0 0 .12-3.12 2.31 2.31 0 0 0-3.22-.48.71.71 0 0 1-1-.2.69.69 0 0 1 .19-1 3.73 3.73 0 0 1 5.09.75 3.63 3.63 0 0 1-.23 5l-.49.48c-1.33 1.29-2.3 2.22-2.12 4a2.56 2.56 0 0 0 1.62 2.21 2 2 0 0 0 2.11-.84z" fill="currentColor" fill-rule="evenodd"/></svg>