<svg width="14" height="14" viewBox="0 0 14 14"><path d="M6.72 11.37h.01a2.23 2.23 0 1 1 2.23-2.24c0 .349-.086.692-.25 1l.61.6a.71.71 0 0 1-.5 1.2.67.67 0 0 1-.49-.21l-.61-.6a2.2 2.2 0 0 1-1 .25zm0-3.07h.01a.83.83 0 0 0 0 1.66.83.83 0 1 0-.01-1.66zM11.3 0A2.7 2.7 0 0 1 14 2.7v8.9a2.41 2.41 0 0 1-2.4 2.4H2.4A2.41 2.41 0 0 1 0 11.6V2.7A2.7 2.7 0 0 1 2.7 0h8.6zM1.4 2.7v2.13h11.2V2.7a1.3 1.3 0 0 0-1.3-1.3H2.7a1.3 1.3 0 0 0-1.3 1.3zm11.2 8.9V6.23H1.4v5.37a1 1 0 0 0 1 1h9.2a1 1 0 0 0 1-1zM3 2.11a1 1 0 1 1 0 2 1 1 0 0 1 0-2zm2.58 0a1 1 0 1 1 0 2 1 1 0 0 1 0-2zm2.59 0a1 1 0 1 1 0 2 1 1 0 0 1 0-2z" fill="currentColor" fill-rule="evenodd"/></svg>