<svg width="16" height="17" viewBox="0 0 16 17"><path d="M16 11.1a.72.72 0 0 1-.05.55.69.69 0 0 1-.16.22l-2.26 2.27a.7.7 0 0 1-.5.21.67.67 0 0 1-.49-.21.69.69 0 0 1 0-1l1.07-1.07h-3.54a1.27 1.27 0 0 0-1.27 1.27v3a.7.7 0 0 1-1.4 0v-3a2.68 2.68 0 0 1 2.67-2.66h3.53L12.53 9.6a.69.69 0 0 1 0-1 .71.71 0 0 1 1 0l2.31 2.27a.73.73 0 0 1 .16.23zM2.06 8.54h.01a.707.707 0 0 1-1-1l5.19-5.19a4.62 4.62 0 0 1 7.93 3.27 4.73 4.73 0 0 1-.38 1.84 1.86 1.86 0 0 0-.74-.16 1.82 1.82 0 0 0-1 .28 3.2 3.2 0 0 0-.26-4.24 3.31 3.31 0 0 0-4.56 0l-5.19 5.2zM2 15a1.91 1.91 0 0 0 2.67 0l1.63-1.64v2l-.64.64a3.28 3.28 0 0 1-2.34 1A3.32 3.32 0 0 1 1 11.34l6.75-6.78a2.008 2.008 0 0 1 2.84 2.84l-5.31 5.33a.707.707 0 1 1-1-1L9.6 6.41a.61.61 0 0 0-.86-.86L2 12.29A1.91 1.91 0 0 0 2 15z" fill="currentColor" fill-rule="evenodd"/></svg>