<svg width="14" height="14" viewBox="0 0 14 14"><path d="M11.3 0A2.7 2.7 0 0 1 14 2.7v8.9a2.41 2.41 0 0 1-2.4 2.4H2.4A2.41 2.41 0 0 1 0 11.6V2.7A2.7 2.7 0 0 1 2.7 0h8.6zM1.4 2.7v2.13h11.2V2.7a1.3 1.3 0 0 0-1.3-1.3H2.7a1.3 1.3 0 0 0-1.3 1.3zm11.2 8.9V6.23H1.4v5.37a1 1 0 0 0 1 1h9.2a1 1 0 0 0 1-1zM3 2.11a1 1 0 1 1 0 2 1 1 0 0 1 0-2zm2.58 0a1 1 0 1 1 0 2 1 1 0 0 1 0-2zm2.59 0a1 1 0 1 1 0 2 1 1 0 0 1 0-2zM2.88 8.82a.7.7 0 0 1 0-1.4h8.24a.7.7 0 0 1 0 1.4H2.88zm0 2.59a.7.7 0 0 1 0-1.4h8.24a.7.7 0 0 1 0 1.4H2.88z" fill="currentColor" fill-rule="evenodd"/></svg>