<svg width="14" height="14" viewBox="0 0 14 14"><path d="M11.6.85a2.41 2.41 0 0 1 2.4 2.4v2.21a.7.7 0 0 1-1.4 0v-.1H1.4v6.24a1 1 0 0 0 1 1h3.06a.7.7 0 0 1 0 1.4H2.4A2.41 2.41 0 0 1 0 11.6V3.25A2.41 2.41 0 0 1 2.4.85H3V.7a.7.7 0 0 1 1.37 0v.15H9.6V.7a.7.7 0 1 1 1.4 0v.15h.6zM1.4 4h11.23v-.75a1 1 0 0 0-1-1h-.57v.21a.7.7 0 0 1-1.4 0v-.21H4.4v.21a.7.7 0 0 1-1.4 0v-.21h-.6a1 1 0 0 0-1 1V4zm8.71 2.21a3.91 3.91 0 0 1 3.89 3.9 3.9 3.9 0 1 1-3.89-3.9zm0 6.39a2.49 2.49 0 1 0 0-4.98 2.49 2.49 0 0 0 0 4.98zm1.13-3.19a.7.7 0 0 1 0 1.4h-1.13a.7.7 0 0 1-.7-.7v-1.4a.7.7 0 0 1 1.4 0v.7h.43z" fill="currentColor" fill-rule="evenodd"/></svg>