<svg width="16" height="16" viewBox="0 0 16 16"><path d="M13.94 16a.72.72 0 0 1-.32-.08l-1.87-1-1.87 1a.73.73 0 0 1-.74-.05.74.74 0 0 1-.28-.69l.36-2.08-1.51-1.47a.72.72 0 0 1-.18-.72.71.71 0 0 1 .57-.48l2.09-.3.93-1.9a.72.72 0 0 1 .63-.39.73.73 0 0 1 .63.4l.93 1.89 2.09.3a.74.74 0 0 1 .57.48.72.72 0 0 1-.18.72l-1.51 1.47.35 2.08a.7.7 0 0 1-.28.69.74.74 0 0 1-.41.13zM9.7 11.61l.76.74a.7.7 0 0 1 .2.62l-.18 1 .94-.49a.7.7 0 0 1 .66 0L13 14l-.18-1a.73.73 0 0 1 .21-.62l.76-.74-1.05-.15a.7.7 0 0 1-.53-.38l-.47-.95-.47.95a.68.68 0 0 1-.53.38l-1.04.12zM9.18 8.7H3.07a.7.7 0 0 1 0-1.4h6.11a.7.7 0 0 1 0 1.4zm.99-3.61h-7.1a.7.7 0 0 1 0-1.4h7.1a.7.7 0 0 1 0 1.4zm-4.93 7.26H3.07a.7.7 0 0 1 0-1.4h2.17a.7.7 0 0 1 0 1.4zM6.59 16h-4.9A1.69 1.69 0 0 1 0 14.31V1.69C0 .757.757 0 1.69 0h9.86c.933 0 1.69.757 1.69 1.69V6.2a.7.7 0 0 1-1.4 0V1.69a.29.29 0 0 0-.29-.29H1.69a.29.29 0 0 0-.29.29v12.62c0 .16.13.29.29.29h4.9a.7.7 0 0 1 0 1.4z" fill="currentColor" fill-rule="evenodd"/></svg>