<svg width="17" height="16" viewBox="0 0 17 16"><path d="M15.31 0a.7.7 0 0 1 .7.69v2.52a.7.7 0 0 1-1.4 0V1.4h-1.82a.7.7 0 0 1 0-1.4h2.52zM3.23 0v-.01a.7.7 0 1 1 0 1.4H1.41v1.82a.7.7 0 0 1-.7.71.71.71 0 0 1-.7-.71V.7a.71.71 0 0 1 .7-.7h2.52zm0 14.59a.7.7 0 0 1 0 1.4H.71a.7.7 0 0 1-.7-.7v-2.52a.71.71 0 0 1 .7-.7.7.7 0 0 1 .7.7v1.82h1.82zm12.08-2.52a.7.7 0 0 1 .7.7v2.52a.7.7 0 0 1-.7.7h-2.52a.7.7 0 0 1 0-1.4h1.82v-1.82a.7.7 0 0 1 .7-.7zM9.5 0a.7.7 0 0 1 0 1.4h-3a.7.7 0 0 1 0-1.4h3zm0 14.59a.7.7 0 0 1 0 1.4h-3a.7.7 0 0 1 0-1.4h3zm5.8-4.4a.7.7 0 0 1-.7-.7v-3a.7.7 0 0 1 1.4 0v3a.7.7 0 0 1-.7.7zm-14.6 0a.7.7 0 0 1-.7-.7v-3a.7.7 0 0 1 1.4 0v3a.7.7 0 0 1-.7.7z" fill="currentColor" fill-rule="evenodd"/></svg>