<svg width="16" height="16" viewBox="0 0 16 16"><path d="M15.79 1.2l-.15.15c.236.4.36.856.36 1.32V15.3a.69.69 0 0 1-.45.64.69.69 0 0 1-.75-.12L11 12.4H4.59L1.2 15.79a.7.7 0 0 1-.5.21.67.67 0 0 1-.49-.2.69.69 0 0 1 0-1l2.39-2.41L4 11l2.61-2.6L8 7l1.61-1.6L11 4l2.56-2.55 1.08-1.1.15-.15a.69.69 0 0 1 1 0 .69.69 0 0 1 0 1zM14.6 2.67a2 2 0 0 0 .01-.22l-2 1.95a.68.68 0 0 1-.61 1h-.39l-2 2a.68.68 0 0 1-.61 1h-.4L6 11h5.3a.69.69 0 0 1 .47.18l2.83 2.55V2.67zM3.3 7.7A.7.7 0 0 1 4 7h2L4.63 8.4H4a.7.7 0 0 1-.7-.7zM9 4L7.63 5.4H4A.7.7 0 0 1 4 4h5zm-6.81 6.84l-1 1A3.39 3.39 0 0 1 0 9.33V2.67A2.68 2.68 0 0 1 2.67 0H13l-1.33 1.4h-9A1.27 1.27 0 0 0 1.4 2.67v6.66a2 2 0 0 0 .79 1.51z" fill="currentColor" fill-rule="evenodd"/></svg>