<svg width="14" height="14" viewBox="0 0 14 14"><path d="M13.37 3.66A2.13 2.13 0 0 0 14 2.14a2.09 2.09 0 0 0-.63-1.51 2.14 2.14 0 0 0-3 0L7.91 3.06a1.24 1.24 0 0 1-1.74 0 .707.707 0 0 0-1 1l.86.87L1.5 9.47a2.12 2.12 0 0 0-.41 2.45l-.88.88a.69.69 0 0 0 0 1 .67.67 0 0 0 .49.2.7.7 0 0 0 .5-.21l.88-.88c.29.14.608.216.93.22a2.14 2.14 0 0 0 1.52-.63L9.08 8l.87.86c.125.13.3.203.48.2a.74.74 0 0 0 .5-.2.72.72 0 0 0 0-1 1.22 1.22 0 0 1 0-1.73l2.44-2.47zm-9.83 7.85a.74.74 0 0 1-1 0 .73.73 0 0 1-.27-.51c0-.199.08-.39.22-.53L7 5.91 8.09 7l-4.55 4.51zM10 5.1a2.54 2.54 0 0 0-.64 1.09L7.8 4.68a2.59 2.59 0 0 0 1.1-.63l2.43-2.43a.74.74 0 0 1 1.05 0 .73.73 0 0 1 .22.52.75.75 0 0 1-.22.53L10 5.1z" fill="currentColor" fill-rule="evenodd"/></svg>