<svg width="14" height="14" viewBox="0 0 14 14"><path d="M11.9 1.75h-1.44A2.09 2.09 0 0 0 8.4 0H5.6a2.09 2.09 0 0 0-2.06 1.75H2.1A2.11 2.11 0 0 0 0 3.85v2.8A2.05 2.05 0 0 0 .7 8.2v3A2.8 2.8 0 0 0 3.5 14h7a2.8 2.8 0 0 0 2.8-2.8v-3a2.05 2.05 0 0 0 .7-1.55v-2.8a2.11 2.11 0 0 0-2.1-2.1zM5.6 1.4h2.8a.69.69 0 0 1 .59.35H5a.69.69 0 0 1 .6-.35zM1.4 3.85a.7.7 0 0 1 .7-.7h9.8a.7.7 0 0 1 .7.7v2.8a.69.69 0 0 1-.7.7H9a1.75 1.75 0 0 0-1.6-1h-.7a1.75 1.75 0 0 0-1.6 1h-3a.69.69 0 0 1-.7-.7v-2.8zm6.3 4.2a.36.36 0 0 1-.35.36h-.7a.36.36 0 0 1-.35-.36.35.35 0 0 1 .35-.34h.7c.19 0 .345.15.35.34zm2.8 4.55h-7a1.4 1.4 0 0 1-1.4-1.4V8.75h2.95a1.75 1.75 0 0 0 1.6 1.06h.7A1.75 1.75 0 0 0 9 8.75h3v2.45a1.4 1.4 0 0 1-1.5 1.4z" fill="currentColor" fill-rule="evenodd"/></svg>