<svg width="415" height="84" viewBox="0 0 415 84"><g fill="none" fill-rule="evenodd"><path fill-opacity=".01" fill="#FFF" d="M0 84h415V0H0z"/><path d="M181.446 74.785a5 5 0 0 1-4.476-2.765l-27.784-55.568a5 5 0 1 1 8.945-4.471l27.783 55.567a5 5 0 0 1-4.468 7.237" fill="#6694FF" style="mix-blend-mode:multiply"/><path d="M125.87 74.785a5 5 0 0 1-4.468-7.237l27.784-55.568a5 5 0 0 1 8.944 4.473L130.346 72.02a5 5 0 0 1-4.476 2.765" fill="#FF8080" style="mix-blend-mode:multiply"/><path d="M173.107 58.113h-38.898a5 5 0 0 1 0-10h38.898a5 5 0 0 1 0 10" fill="#FFC859" style="mix-blend-mode:multiply"/><path d="M89.755 58.113H67.528a5 5 0 0 1 0-10h22.227c7.967 0 14.45-6.48 14.45-14.448s-6.483-14.449-14.45-14.449H67.528a5 5 0 0 1 0-10h22.227c13.481 0 24.45 10.967 24.45 24.448s-10.969 24.45-24.45 24.45" fill="#6694FF" style="mix-blend-mode:multiply"/><path d="M67.528 74.784a5 5 0 0 1-5-5V14.217a5 5 0 1 1 10 0v55.567a5 5 0 0 1-5 5" fill="#FFC859" style="mix-blend-mode:multiply"/><path d="M109.202 74.777a4.985 4.985 0 0 1-3.251-1.203L86.5 56.91a5 5 0 0 1 6.508-7.593l19.449 16.663a5 5 0 0 1-3.256 8.797m94.468.007a5 5 0 0 1-5-5v-16.67a5 5 0 1 1 10 0v16.67a5 5 0 0 1-5 5" fill="#FF8080" style="mix-blend-mode:multiply"/><path d="M203.664 58.114a4.998 4.998 0 0 1-4.336-7.481l22.227-38.897a5 5 0 0 1 8.682 4.961L208.01 55.593a4.997 4.997 0 0 1-4.346 2.521" fill="#6694FF" style="mix-blend-mode:multiply"/><path d="M203.674 58.114a4.997 4.997 0 0 1-4.346-2.52L177.1 16.696a5 5 0 1 1 8.682-4.96l22.227 38.896a4.998 4.998 0 0 1-4.336 7.481" fill="#FFC859" style="mix-blend-mode:multiply"/><path d="M240.334 64.539a4.99 4.99 0 0 1-3.879-1.841A32.858 32.858 0 0 1 229.097 42c0-18.077 14.707-32.783 32.783-32.783a5 5 0 1 1 0 10c-12.563 0-22.782 10.22-22.782 22.783 0 5.305 1.766 10.278 5.11 14.38a5 5 0 0 1-3.874 8.159" fill="#FF8080" style="mix-blend-mode:multiply"/><path d="M261.88 74.784c-9.898 0-19.166-4.405-25.424-12.087a5 5 0 1 1 7.752-6.316 22.712 22.712 0 0 0 17.673 8.403c6.879 0 13.32-3.063 17.672-8.402a5 5 0 1 1 7.752 6.318c-6.26 7.679-15.526 12.084-25.424 12.084" fill="#6694FF" style="mix-blend-mode:multiply"/><path d="M283.426 64.54a5 5 0 0 1-3.873-8.159c3.345-4.102 5.112-9.075 5.112-14.381 0-12.563-10.22-22.783-22.784-22.783a5 5 0 0 1 0-10c18.077 0 32.784 14.706 32.784 32.783a32.857 32.857 0 0 1-7.36 20.7 4.99 4.99 0 0 1-3.88 1.84m67.365 10.244a5 5 0 0 1-5-5V14.217a5 5 0 1 1 10 0v55.567a5 5 0 0 1-5 5" fill="#FFC859" style="mix-blend-mode:multiply"/><path d="M350.792 74.784a4.99 4.99 0 0 1-3.907-1.876L302.431 17.34a5 5 0 1 1 7.808-6.247l44.454 55.567a5 5 0 0 1-3.901 8.124" fill="#6694FF" style="mix-blend-mode:multiply"/><path d="M306.335 74.784a5 5 0 0 1-5-5V14.217a5 5 0 1 1 10 0v55.567a5 5 0 0 1-5 5" fill="#FF8080" style="mix-blend-mode:multiply"/><path d="M372.546 43.851a4.98 4.98 0 0 1-3.167-1.133 18.945 18.945 0 0 1-6.548-10.905 18.827 18.827 0 0 1 3.915-15.682 18.827 18.827 0 0 1 14.61-6.915h20.285a5 5 0 0 1 0 10h-20.285a8.857 8.857 0 0 0-6.876 3.255 8.856 8.856 0 0 0-1.843 7.381 8.911 8.911 0 0 0 3.082 5.132 5 5 0 0 1-3.173 8.867" fill="#6694FF" style="mix-blend-mode:multiply"/><path d="M403.801 53.684a4.999 4.999 0 0 1-4.279-2.405 8.945 8.945 0 0 0-7.603-4.28h-10.563a18.94 18.94 0 0 1-11.977-4.281 4.999 4.999 0 0 1-.697-7.036 4.997 4.997 0 0 1 7.036-.697A8.916 8.916 0 0 0 381.356 37h10.563c6.558 0 12.747 3.483 16.151 9.088a5 5 0 0 1-4.269 7.596" fill="#FFC859" style="mix-blend-mode:multiply"/><path d="M391.92 74.784h-20.286a5 5 0 0 1 0-10h20.286a8.86 8.86 0 0 0 6.875-3.254 8.86 8.86 0 0 0 1.844-7.382 8.854 8.854 0 0 0-1.115-2.87 5 5 0 1 1 8.546-5.191 18.809 18.809 0 0 1 2.375 6.1 18.827 18.827 0 0 1-3.916 15.682 18.824 18.824 0 0 1-14.61 6.915" fill="#FF8080" style="mix-blend-mode:multiply"/><path d="M22.946 23.012a5 5 0 0 1-2.533-9.315 32.765 32.765 0 0 1 16.554-4.48 32.783 32.783 0 0 1 16.4 4.39 5 5 0 0 1-5.009 8.655 22.765 22.765 0 0 0-11.39-3.046 22.757 22.757 0 0 0-11.499 3.11 4.982 4.982 0 0 1-2.523.686" fill="#FFC859" style="mix-blend-mode:multiply"/><path d="M22.937 70.99a4.979 4.979 0 0 1-2.522-.688 32.875 32.875 0 0 1-3.925-2.7C8.669 61.34 4.185 52.008 4.185 42c0-8.519 3.25-16.59 9.155-22.726a32.898 32.898 0 0 1 7.074-5.577 5 5 0 1 1 5.056 8.628 22.883 22.883 0 0 0-4.924 3.882A22.673 22.673 0 0 0 14.185 42c0 6.955 3.118 13.442 8.555 17.796.862.69 1.78 1.322 2.729 1.878a5 5 0 0 1-2.532 9.315" fill="#6694FF" style="mix-blend-mode:multiply"/><path d="M36.968 74.784a32.776 32.776 0 0 1-16.555-4.481 5.002 5.002 0 0 1-1.785-6.843 5 5 0 0 1 6.842-1.785 22.757 22.757 0 0 0 11.498 3.109c4.006 0 7.943-1.053 11.387-3.044a5 5 0 0 1 6.83 1.825 4.998 4.998 0 0 1-1.824 6.83 32.775 32.775 0 0 1-16.393 4.389" fill="#FF8080" style="mix-blend-mode:multiply"/></g></svg>