<svg width="14" height="14" viewBox="0 0 14 14"><path d="M3.74 8.3a1.3 1.3 0 1 1 0-2.6 1.3 1.3 0 0 1 0 2.6zm7.12.82l.04-.04a.71.71 0 0 1 0 1.41h-4a.71.71 0 0 1-.53-1.16l2.59-3a.86.86 0 0 0 .13-.94.87.87 0 0 0-.8-.51.68.68 0 0 0-.69.68.7.7 0 1 1-1.4 0 2.1 2.1 0 0 1 2.09-2.09A2.29 2.29 0 0 1 10 7.24L8.42 9.12h2.44zm.7-9.07A2.39 2.39 0 0 1 14 2.44v9.12A2.39 2.39 0 0 1 11.56 14H2.44a2.39 2.39 0 0 1-2.39-2.44V2.44A2.39 2.39 0 0 1 2.44.05h9.12zm1 11.51V2.44a1 1 0 0 0-1-1H2.44a1 1 0 0 0-1 1v9.12a1 1 0 0 0 1 1h9.12a1 1 0 0 0 1-1z" fill="currentColor" fill-rule="evenodd"/></svg>