<svg width="16" height="16" viewBox="0 0 16 16"><path d="M7 13.54A1.23 1.23 0 1 1 7 16a1.23 1.23 0 0 1 0-2.46zm5 0A1.23 1.23 0 1 1 12 16a1.23 1.23 0 0 1 0-2.46zm3.65-9.33c.327.42.434.969.29 1.48l-1.5 5.45a1.7 1.7 0 0 1-1.63 1.25h-6.6A1.7 1.7 0 0 1 4.54 11L2.8 1.64a.3.3 0 0 0-.29-.24H.7A.7.7 0 0 1 .7 0h1.81a1.68 1.68 0 0 1 1.66 1.39l.41 2.15h9.72c.53 0 1.03.247 1.35.67zm-2.56 6.56l1.5-5.45a.31.31 0 0 0-.05-.26.28.28 0 0 0-.24-.12H4.84l1.08 5.8a.29.29 0 0 0 .29.25h6.6a.29.29 0 0 0 .28-.22z" fill="currentColor" fill-rule="evenodd"/></svg>