<svg width="16" height="16" viewBox="0 0 16 16"><path d="M12.16.76l2.71 4.65a1.53 1.53 0 0 1-.56 2.09l-1.16.67a1.49 1.49 0 0 1-.76.2 1.48 1.48 0 0 1-1-.37L8.5 9.25v1.94l2.66 3.67a.68.68 0 0 1-.16 1 .7.7 0 0 1-1-.16l-1.5-2.11v1.71a.7.7 0 0 1-1.4 0v-1.71l-1.53 2.12A.7.7 0 0 1 5 16a.7.7 0 0 1-.56-1.11l2.66-3.7V9.85l-2.52 1.08a1.72 1.72 0 0 1-.66.13 1.67 1.67 0 0 1-1.43-.8l-1.36.78a.7.7 0 1 1-.7-1.21l1.36-.78a1.67 1.67 0 0 1 .47-2.14l5.92-4.44A1.53 1.53 0 0 1 8.91.88L10.08.2a1.53 1.53 0 0 1 2.08.56zM4 9.64l3.53-1.5 3.06-1.31-1.78-3.08L3.1 8a.28.28 0 0 0-.1.4l.34.6.3.52a.28.28 0 0 0 .36.12zm9.56-3.35h.03a.13.13 0 0 0 .01-.15l-2.69-4.66a.13.13 0 0 0-.11-.06h-.06l-1.17.67a.12.12 0 0 0 0 .17l.06.11L12.2 6.9l.05.1a.14.14 0 0 0 .18 0l1.13-.71zm2.08-4.39a2 2 0 0 1 .03 2.11.67.67 0 0 1-.61.37.62.62 0 0 1-.33-.08.71.71 0 0 1-.29-1 .66.66 0 0 0-.56-1 .7.7 0 0 1-.68-.72.69.69 0 0 1 .72-.68 2.07 2.07 0 0 1 1.72 1z" fill="currentColor" fill-rule="evenodd"/></svg>