<svg width="16" height="16" viewBox="0 0 16 16"><path d="M3 16a3 3 0 0 1-2.12-5.12 3 3 0 1 1 4.24 4.24A3 3 0 0 1 3 16zm0-4.6a1.6 1.6 0 1 0-.005 3.2A1.6 1.6 0 0 0 3 11.4zm7 4.6a.57.57 0 0 1-.22 0 .7.7 0 0 1-.45-.88A6.59 6.59 0 0 0 1 6.73a.7.7 0 1 1-.47-1.32 8 8 0 0 1 10.08 10.11.7.7 0 0 1-.61.48zm5.09 0H15a.7.7 0 0 1-.56-.82A11.62 11.62 0 0 0 11.21 4.8 11.53 11.53 0 0 0 .83 1.61.71.71 0 0 1 0 1.06.7.7 0 0 1 .57.24c4.233-.83 8.6.51 11.64 3.57a13 13 0 0 1 3.56 11.62.69.69 0 0 1-.68.57z" fill="currentColor" fill-rule="evenodd"/></svg>