<svg width="14" height="14" viewBox="0 0 14 14"><path d="M12.68 4.58a.69.69 0 0 1 0 .99L11.25 7l1.43 1.43a.69.69 0 0 1 0 1 .67.67 0 0 1-.49.21.7.7 0 0 1-.5-.21L10.26 8 8.83 9.43a.7.7 0 0 1-.5.21.67.67 0 0 1-.49-.21.69.69 0 0 1 0-1L9.27 7 7.83 5.58a.707.707 0 0 1 1-1L10.26 6l1.42-1.42a.69.69 0 0 1 1 0zM12.43.25a1.37 1.37 0 0 1 1.36 1.37v2.26a1.33 1.33 0 0 1-.28.79 1.54 1.54 0 0 0-.33-.6 1.37 1.37 0 0 0-.78-.36V1.65H1.7v2.23l4.24 4.2c.264.265.409.626.4 1V12l1.43-.55v-1.28a1.4 1.4 0 0 0 .57.13 1.35 1.35 0 0 0 .82-.3v2.03a.72.72 0 0 1-.45.66l-2.82 1.08a.73.73 0 0 1-.64-.08.71.71 0 0 1-.31-.58v-4L.7 4.88a1.35 1.35 0 0 1-.4-1V1.62C.3.863.913.25 1.67.25h10.76z" fill="currentColor" fill-rule="evenodd"/></svg>