<svg width="16" height="17" viewBox="0 0 16 17"><path d="M15.3 2a.7.7 0 0 1 .7.7v2.39a.7.7 0 0 1-.7.7h-2.41v7.51a.7.7 0 0 1-.7.7H9.81a.7.7 0 0 1-.7-.7V5.79H6.7a.7.7 0 0 1-.7-.7V2.7a.7.7 0 0 1 .7-.7h8.6zm-.7 2.39v-1H7.4v1h2.39a.7.7 0 0 1 .7.7v7.51h1V5.09a.7.7 0 0 1 .7-.7h2.41zM4.15 3.16l-.72-.78v11.24l.78-.78a.69.69 0 0 1 1 0 .71.71 0 0 1 0 1l-2 2a.7.7 0 0 1-.5.21.67.67 0 0 1-.49-.21l-2-2a.71.71 0 0 1 0-1 .69.69 0 0 1 1 0l.78.78V2.38l-.82.82a.69.69 0 0 1-1 0 .71.71 0 0 1 0-1l2-2A.54.54 0 0 1 2.4.05a.72.72 0 0 1 .54 0 .57.57 0 0 1 .21.11l2 2a.707.707 0 0 1-1 1z" fill="currentColor" fill-rule="evenodd"/></svg>