<svg width="14" height="14" viewBox="0 0 14 14"><path d="M11.6 0A2.41 2.41 0 0 1 14 2.4v9.2a2.39 2.39 0 0 1-.66 1.68l-.32.29h-.05a2.22 2.22 0 0 1-.39.23c-.143.06-.29.11-.44.15a2.73 2.73 0 0 1-.5.05h-9.2A3.27 3.27 0 0 1 2 14l-.34-.16-.17-.05-.28-.13-.1-.06a2.61 2.61 0 0 1-.27-.19A2.41 2.41 0 0 1 0 11.6V2.4A2.41 2.41 0 0 1 2.4 0h9.2zm0 12.6a1.19 1.19 0 0 0 .26-.05L8.7 8.34l-2.65 3.59a.7.7 0 0 1-1.12 0l-1-1.33-1.53 2h9.2zm1-1.4l-.03-8.8a1 1 0 0 0-1-1h-9.2a1 1 0 0 0-1 1v9.24l2-2.64a.73.73 0 0 1 1.12 0l1 1.29 2.65-3.54a.73.73 0 0 1 1.12 0l3.34 4.45zM5 2.55a2.41 2.41 0 1 1-.1 4.819A2.41 2.41 0 0 1 5 2.55zM5 6a1 1 0 1 0 0-2 1 1 0 0 0 0 2z" fill="currentColor" fill-rule="evenodd"/></svg>