<svg width="16" height="16" viewBox="0 0 16 16"><path d="M15 13.68a.69.69 0 0 1 .79 1.11l-1 1a.67.67 0 0 1-.49.21.7.7 0 0 1-.5-.21l-1-1a.7.7 0 0 1 .8-1.12V7.31a.7.7 0 0 1-.8-1.12l1-1a.72.72 0 0 1 .77-.15.54.54 0 0 1 .22.15l1 1a.69.69 0 0 1 0 1 .66.66 0 0 1-.49.2.82.82 0 0 1-.3-.07v6.36zM1.21 3.2L.2 2.21a.69.69 0 0 1 0-1l1-1a.69.69 0 0 1 1 0 .7.7 0 0 1 .13.79h6.36a.67.67 0 0 1 .16-.76.69.69 0 0 1 1 0l1 1a.86.86 0 0 1 .15.22.72.72 0 0 1 0 .54 1.14 1.14 0 0 1-.19.2l-1 1a.74.74 0 0 1-.5.2.69.69 0 0 1-.62-1H2.33a.72.72 0 0 1-.13.8.74.74 0 0 1-.5.2.7.7 0 0 1-.49-.2zm9.1 1.8a.7.7 0 0 1 .7.7v1a.7.7 0 0 1-1.4 0v-.3h-.3a.7.7 0 0 1 0-1.4h1zM6.27 5a.7.7 0 0 1 0 1.4H4.75a.7.7 0 0 1 0-1.4h1.52zM1.71 5a.7.7 0 1 1 0 1.4h-.3v.3a.7.7 0 0 1-1.4 0v-1a.71.71 0 0 1 .7-.7h1zm-1 7a.7.7 0 0 1-.7-.78V9.7a.71.71 0 0 1 .7-.7.7.7 0 0 1 .7.73v1.57a.7.7 0 0 1-.7.7zm1 2.59a.7.7 0 0 1 0 1.4h-1a.7.7 0 0 1-.7-.7v-1a.71.71 0 0 1 .7-.7.7.7 0 0 1 .7.7v.3h.3zm4.56 0a.7.7 0 0 1 0 1.4H4.75a.7.7 0 0 1 0-1.4h1.52zm4.04-1a.7.7 0 0 1 .7.7v1a.7.7 0 0 1-.7.7h-1a.7.7 0 0 1 0-1.4h.3v-.3a.7.7 0 0 1 .7-.7zm0-4.59a.7.7 0 0 1 .7.73v1.49a.7.7 0 0 1-1.4 0V9.7a.7.7 0 0 1 .7-.7z" fill="currentColor" fill-rule="evenodd"/></svg>