<svg width="16" height="14" viewBox="0 0 16 14"><path d="M16 7.6a.44.44 0 0 1 0 .1v5.6a.7.7 0 0 1-.7.7H.7a.7.7 0 0 1-.7-.7V7.7a.44.44 0 0 1 0-.1.28.28 0 0 1 0-.09l2-7A.7.7 0 0 1 2.7 0h10.6a.7.7 0 0 1 .7.51l2 7a.28.28 0 0 1 0 .09zM3.23 1.4L1.63 7H5.2a.7.7 0 0 1 .7.7 2.1 2.1 0 0 0 4.2 0 .7.7 0 0 1 .7-.7h3.57l-1.6-5.6H3.23zM14.6 12.6V8.4h-3.17a3.5 3.5 0 0 1-6.86 0H1.4v4.2h13.2zM5 3.81a.7.7 0 0 1 0-1.4h6a.7.7 0 0 1 0 1.4H5zM4 6.13a.7.7 0 0 1 0-1.4h8a.7.7 0 0 1 0 1.4H4z" fill="currentColor" fill-rule="evenodd"/></svg>