<svg width="15" height="15" viewBox="0 0 15 15"><path d="M9.51 4.5a.71.71 0 0 1 1.205.5.69.69 0 0 1-.215.5l-4 4a.7.7 0 0 1-.5.21.67.67 0 0 1-.49-.21.69.69 0 0 1 0-1l4-4zm-.75 5.84l-.01-.01a.707.707 0 0 1 1 1l-1.41 1.41a4.3 4.3 0 1 1-6.08-6.08l1.4-1.42a.707.707 0 0 1 1 1L3.25 7.65a2.9 2.9 0 0 0 0 4.1 3 3 0 0 0 4.1 0l1.41-1.41zm4.98-9.08a4.3 4.3 0 0 1 0 6.09l-1.41 1.41a.66.66 0 0 1-.49.2.69.69 0 0 1-.5-.2.71.71 0 0 1 0-1l1.41-1.41a2.9 2.9 0 0 0 0-4.1 3 3 0 0 0-4.1 0l-1.4 1.42a.707.707 0 0 1-1-1l1.41-1.41a4.3 4.3 0 0 1 6.08 0z" fill="currentColor" fill-rule="evenodd"/></svg>