<svg width="15" height="15" viewBox="0 0 15 15"><path d="M9.51 4.5a.71.71 0 0 1 1.205.5.69.69 0 0 1-.215.5l-4 4a.7.7 0 0 1-.5.21.67.67 0 0 1-.49-.21.69.69 0 0 1 0-1l4-4zm4.88 5.38a.7.7 0 1 1-.7 1.21l-1.33-.76a.703.703 0 0 1 .7-1.22l1.33.77zM1.61 4.12a.7.7 0 1 1 .7-1.21l1.33.74a.71.71 0 0 1 .26 1 .7.7 0 0 1-.61.35.73.73 0 0 1-.35-.11l-1.33-.77zm9.72 7.24l.76 1.29a.7.7 0 0 1-.25 1 .73.73 0 0 1-.35.09.7.7 0 0 1-.61-.35l-.77-1.33a.703.703 0 0 1 1.22-.7zM4.67 2.64l-.76-1.33a.7.7 0 1 1 1.21-.7l.77 1.3a.7.7 0 0 1-.26 1 .7.7 0 0 1-.96-.27zm4.09 7.7l-.01-.01a.707.707 0 0 1 1 1l-1.41 1.41a4.3 4.3 0 1 1-6.08-6.08l1.4-1.42a.707.707 0 0 1 1 1L3.25 7.65a2.9 2.9 0 0 0 0 4.1 3 3 0 0 0 4.1 0l1.41-1.41zM7.24 3.66l.01.01a.707.707 0 0 1-1-1l1.41-1.41a4.303 4.303 0 0 1 6.08 6.09l-1.41 1.41a.66.66 0 0 1-.49.2.69.69 0 0 1-.5-.2.71.71 0 0 1 0-1l1.41-1.41a2.9 2.9 0 0 0 0-4.1 3 3 0 0 0-4.1 0L7.24 3.66z" fill="currentColor" fill-rule="evenodd"/></svg>