<svg width="14" height="14" viewBox="0 0 14 14"><path d="M6.44 11.14L3.58 7.36a4.49 4.49 0 1 1 6.87 0c-.13.16-2.89 3.78-2.89 3.78a.72.72 0 0 1-1.12 0zM4.82 2.3a3.1 3.1 0 0 0-.17 4.19L7 9.56c1-1.25 2.31-3.02 2.38-3.1A3.09 3.09 0 0 0 4.82 2.3zM7 6.43a2.07 2.07 0 1 1 0-4.14 2.07 2.07 0 0 1 0 4.14zm0-2.74a.67.67 0 1 0 0 1.34.67.67 0 0 0 0-1.34zm6.93 8.43a1.45 1.45 0 0 1-.2 1.29c-.27.37-.701.59-1.16.59H1.43c-.459 0-.89-.22-1.16-.59a1.45 1.45 0 0 1-.2-1.29l1-2.93a1.43 1.43 0 0 1 1.36-1h.8a.7.7 0 0 1 0 1.4h-.8l-1 3H12.6l-1-3h-.83a.7.7 0 0 1 0-1.4h.8a1.43 1.43 0 0 1 1.36 1l1 2.93z" fill="currentColor" fill-rule="evenodd"/></svg>