<svg width="14" height="16" viewBox="0 0 14 16"><path d="M11.3 5A2.7 2.7 0 0 1 14 7.7v5.6a2.7 2.7 0 0 1-2.7 2.7H2.7A2.7 2.7 0 0 1 0 13.3V7.7A2.7 2.7 0 0 1 2.75 5v-.75a4.25 4.25 0 1 1 8.5 0V5h.05zm-7.15-.75V5h5.7v-.75a2.85 2.85 0 1 0-5.7 0zm8.45 9.05V7.7a1.3 1.3 0 0 0-1.3-1.3H2.7a1.3 1.3 0 0 0-1.3 1.3v5.6a1.3 1.3 0 0 0 1.3 1.3h8.6a1.3 1.3 0 0 0 1.3-1.3zM7 8.53a1.3 1.3 0 0 1 1.3 1.3 1.27 1.27 0 0 1-.6 1.06v.81a.7.7 0 0 1-1.4 0v-.81a1.27 1.27 0 0 1-.6-1.06A1.3 1.3 0 0 1 7 8.53z" fill="currentColor" fill-rule="evenodd"/></svg>