<svg width="14" height="14" viewBox="0 0 14 14"><path d="M13.86 5.6l-1.35-1.81.72-2.13a.7.7 0 0 0-.89-.89l-2.13.72L8.4.14a.71.71 0 0 0-.74-.06.72.72 0 0 0-.38.63L7.31 3 5.47 4.27a.7.7 0 0 0 .2 1.24l.33.11-5.52 5.56a1.67 1.67 0 0 0 0 2.34c.31.309.732.482 1.17.48a1.65 1.65 0 0 0 1.17-.48L8.37 8l.12.36a.7.7 0 0 0 .56.49h.11a.7.7 0 0 0 .57-.3L11 6.69h2.26a.8.8 0 0 0 .63-.39.69.69 0 0 0-.03-.7zm-12 6.93a.21.21 0 0 1-.36 0 .25.25 0 0 1 0-.36l6.04-6.08.28.09.09.27-6.05 6.08zm8.85-7.25a.65.65 0 0 0-.58.3l-.69 1v-.12l-.32-1A.7.7 0 0 0 8.59 5l-1.15-.41 1-.69a.7.7 0 0 0 .3-.58V2.11l1 .72a.7.7 0 0 0 .64.11l1.14-.39-.39 1.14a.7.7 0 0 0 .11.64l.72 1-1.25-.05z" fill="currentColor" fill-rule="evenodd"/></svg>