<svg width="14" height="14" viewBox="0 0 14 14"><path d="M3.81 7.27a.7.7 0 0 1 .19-.4L10.39.51a1.68 1.68 0 0 1 2.4 0l.71.71a1.686 1.686 0 0 1 0 2.4l-.92.92L7.13 10a.7.7 0 0 1-.4.2l-2.48.35h-.1a.71.71 0 0 1-.49-.21.68.68 0 0 1-.2-.59l.35-2.48zm8-5.78h-.01a.29.29 0 0 0-.37 0l-.43.42 1.1 1.14.42-.43a.29.29 0 0 0 0-.42l-.71-.71zM5.17 7.7L5 9l1.3-.17L11.1 4 10 2.9 5.17 7.7zm8.13-.82a.7.7 0 0 1 .7.72v4a2.41 2.41 0 0 1-2.4 2.4H2.4A2.41 2.41 0 0 1 0 11.6V2.4A2.41 2.41 0 0 1 2.4 0h4a.7.7 0 1 1 0 1.4h-4a1 1 0 0 0-1 1v9.18a1 1 0 0 0 1 1h9.2a1 1 0 0 0 1-1v-4a.7.7 0 0 1 .7-.7z" fill="currentColor" fill-rule="evenodd"/></svg>