<svg width="16" height="16" viewBox="0 0 16 16"><path d="M15.93 15l-4.3-8.6A.7.7 0 0 0 11 6a.68.68 0 0 0-.62.39L9 9.15a9.16 9.16 0 0 1-2.54-1.33 10.42 10.42 0 0 0 2.85-5.09h.74a.7.7 0 0 0 0-1.4h-4V.7a.71.71 0 0 0-1.38 0v.63H.7a.7.7 0 0 0 0 1.4h7.16A9.12 9.12 0 0 1 5.37 6.9a9.63 9.63 0 0 1-2.08-3A.711.711 0 0 0 2 4.5a11 11 0 0 0 2.3 3.32 9.2 9.2 0 0 1-2.81 1.43.7.7 0 0 0 .2 1.37h.2a10.68 10.68 0 0 0 3.5-1.81 10.91 10.91 0 0 0 3 1.63L6.07 15a.71.71 0 0 0 .32.94.67.67 0 0 0 .31.06.7.7 0 0 0 .63-.39l1.56-3.11h4.23l1.55 3.11a.7.7 0 1 0 1.26-.61zm-6.34-3.9L11 8.27l1.42 2.83H9.59z" fill="currentColor" fill-rule="evenodd"/></svg>