<svg width="16" height="14" viewBox="0 0 16 14"><path d="M9.12.07a.7.7 0 0 1 .39.63v12.6a.7.7 0 0 1-.7.7.7.7 0 0 1-.43-.15l-4.46-3.5h-2.1A1.83 1.83 0 0 1 0 8.53V5.47a1.83 1.83 0 0 1 1.82-1.82h2.1L8.38.15a.69.69 0 0 1 .74-.08zm-1 11.79l-.01-9.72L4.59 4.9a.68.68 0 0 1-.43.15H1.82a.42.42 0 0 0-.42.42v3.11c0 .232.188.42.42.42h2.34a.68.68 0 0 1 .43.1l3.53 2.76zM12.18.18a8 8 0 0 1 0 13.64.71.71 0 0 1-1.044-.413.7.7 0 0 1 .314-.787 6.59 6.59 0 0 0 0-11.24.702.702 0 1 1 .73-1.2zM13 7a5 5 0 0 1-1.73 3.77.71.71 0 0 1-.46.17.67.67 0 0 1-.52-.24.7.7 0 0 1 .06-1 3.54 3.54 0 0 0 0-5.4.702.702 0 1 1 .92-1.06A5 5 0 0 1 13 7z" fill="currentColor" fill-rule="evenodd"/></svg>