<svg width="14" height="16" viewBox="0 0 14 16"><path d="M13.7 4.6c0 .02-.03.05-.03.05v8.68A2.68 2.68 0 0 1 11 16H3a2.68 2.68 0 0 1-2.71-2.67V2.67A2.68 2.68 0 0 1 3 .07h6.11c.06-.005.12-.005.18 0h.07a.66.66 0 0 1 .2.14l4.01 3.94a.57.57 0 0 1 .13.21v.06c.01.06.01.12 0 .18zM9.76 2.39V4h1.56L9.76 2.39zM11 14.6a1.27 1.27 0 0 0 1.35-1.25v-8H9.1a.71.71 0 0 1-.7-.7V1.4H3a1.27 1.27 0 0 0-1.27 1.27v10.66c0 .701.569 1.27 1.27 1.27h8zM9.22 8.3a.7.7 0 0 1 0 1.4H7.7v1.52a.7.7 0 0 1-1.4 0V9.7H4.78a.7.7 0 0 1 0-1.4H6.3V6.78a.7.7 0 0 1 1.4 0V8.3h1.52z" fill="currentColor" fill-rule="evenodd"/></svg>