<svg width="14" height="14" viewBox="0 0 14 14"><path d="M2.85.05a.71.71 0 0 1 .44.65v5.7a.7.7 0 0 1-1.4 0v-4l-.69.69a.707.707 0 0 1-1-1L2.09.21a.68.68 0 0 1 .76-.16zM9 12.6A.7.7 0 0 1 9 14H5a.69.69 0 0 1-.63-.41.67.67 0 0 1 .1-.74l2.61-3.07a.84.84 0 0 0 .13-.95.87.87 0 0 0-.81-.53.71.71 0 0 0-.7.7.7.7 0 0 1-1.4 0 2.11 2.11 0 0 1 2.1-2.1 2.3 2.3 0 0 1 1.75 3.79L6.52 12.6H9zm3.69-10.14h.02a2.46 2.46 0 1 1-2.89 3.92.707.707 0 0 1 1-1c.197.203.467.319.75.32a1.07 1.07 0 0 0 0-2.13.7.7 0 0 1-.63-.37.69.69 0 0 1 .06-.73l.73-1.07H9.92a.7.7 0 0 1 0-1.4h3.16a.7.7 0 0 1 .61 1.11l-1 1.35z" fill="currentColor" fill-rule="evenodd"/></svg>