<svg width="16" height="16" viewBox="0 0 16 16"><path d="M13.3 2H9.39l.78-.77a.71.71 0 0 0 0-1 .69.69 0 0 0-1 0l-2 2a.63.63 0 0 0-.16.23.7.7 0 0 0 0 .53.73.73 0 0 0 .16.23l2 2a.67.67 0 0 0 .49.21.71.71 0 0 0 .5-1.2l-.78-.78h3.92a1.3 1.3 0 0 1 1.3 1.3v8.55a1.3 1.3 0 0 1-1.3 1.3H4.67a1.3 1.3 0 0 1-1.3-1.3v-8h1.27a.7.7 0 0 0 .7-.7V.7a.7.7 0 0 0-.7-.7H.7a.7.7 0 0 0-.7.7v4a.7.7 0 0 0 .7.7H2v8A2.7 2.7 0 0 0 4.67 16h8.63a2.7 2.7 0 0 0 2.7-2.7V4.67A2.7 2.7 0 0 0 13.3 2zM1.4 1.4h2.54V4H1.4V1.4z" fill="currentColor" fill-rule="evenodd"/></svg>