<svg width="16" height="16" viewBox="0 0 16 16"><path d="M16 4.25v6.32A2.43 2.43 0 0 1 13.57 13h-1.29v.57A2.43 2.43 0 0 1 9.85 16H2.43A2.43 2.43 0 0 1 0 13.57V4.43A2.43 2.43 0 0 1 2.43 2h1.34A2.43 2.43 0 0 1 6.15.07h5.61a.86.86 0 0 1 .17 0H12a.7.7 0 0 1 .2.14l3.66 3.59a.55.55 0 0 1 .14.21v.07a.47.47 0 0 1 0 .17zm-2.39-.65L12.4 2.39V3.6h1.21zm-2.73 10V13H6.15a2.43 2.43 0 0 1-2.43-2.4V3.43H2.43a1 1 0 0 0-1 1v9.17a1 1 0 0 0 1 1h7.45a1 1 0 0 0 1-1zm2.69-2a1 1 0 0 0 1.03-1.03V5h-2.9a.7.7 0 0 1-.7-.7V1.43H6.15a1 1 0 0 0-1 1v8.17a1 1 0 0 0 1 1h7.42zm-.64-2.93a.7.7 0 0 1 0 1.4H6.8a.7.7 0 0 1 0-1.4h6.13zM6.8 6.92a.7.7 0 0 1 0-1.4h2.72a.7.7 0 0 1 0 1.4H6.8z" fill="currentColor" fill-rule="evenodd"/></svg>