<svg width="16" height="16" viewBox="0 0 16 16"><path d="M15.79 2.18l-2-2a.73.73 0 0 0-.23-.16.72.72 0 0 0-.54 0 .69.69 0 0 0-.22.16l-2 2a.707.707 0 1 0 1 1l.78-.78v3.9a2 2 0 0 1-2 2A3.34 3.34 0 0 0 8 9.57a3.34 3.34 0 0 0-2.65-1.33A2 2 0 0 1 3.4 6.29v-3.9l.78.78a.7.7 0 0 0 .49.2.74.74 0 0 0 .5-.2.71.71 0 0 0 0-1l-2-2A.69.69 0 0 0 3 .05a.72.72 0 0 0-.54 0 .87.87 0 0 0-.26.16l-2 2a.71.71 0 0 0 0 1 .71.71 0 0 0 1 0l.8-.82v3.9c0 1.85 1.5 3.35 3.35 3.35a2 2 0 0 1 2 1.95v3.71a.7.7 0 0 0 1.4 0v-3.71a2 2 0 0 1 2-1.95A3.35 3.35 0 0 0 14 6.29v-3.9l.78.78a.71.71 0 0 0 1 0 .71.71 0 0 0 .01-.99z" fill="currentColor" fill-rule="evenodd"/></svg>