<svg width="16" height="16" viewBox="0 0 16 16"><path d="M9.48 0a6.52 6.52 0 1 1 0 13.04A6.52 6.52 0 0 1 9.48 0zm0 11.64a5.13 5.13 0 0 0 5.12-5.12 5.12 5.12 0 1 0-5.12 5.12zm1.91-4.59a.7.7 0 0 1 .37.95A2.48 2.48 0 0 1 7.2 8a.7.7 0 0 1 .35-.95.71.71 0 0 1 .92.36 1.07 1.07 0 0 0 2 0 .71.71 0 0 1 .92-.36zm-2.7-2.43a1 1 0 1 1-2 0 1 1 0 0 1 2 0zm2.63-1.05a1 1 0 0 1 1 1.05 1.05 1.05 0 1 1-1-1.05zM9.36 13.72a.7.7 0 0 1 .92.11.7.7 0 0 1-.19 1 6.49 6.49 0 0 1-9-9 .7.7 0 0 1 1-.19.7.7 0 0 1 .19 1 5.06 5.06 0 0 0-.88 2.84 5.13 5.13 0 0 0 5.12 5.12 5.06 5.06 0 0 0 2.84-.88z" fill="currentColor" fill-rule="evenodd"/></svg>