<svg width="16" height="16" viewBox="0 0 16 16"><path d="M16 8a.72.72 0 0 1-.38.56l-1.5 1.11.74 1.7a.7.7 0 0 1 0 .63.73.73 0 0 1-.53.35l-1.85.2-.2 1.85a.73.73 0 0 1-.35.53.7.7 0 0 1-.63 0l-1.7-.74-1.11 1.49a.69.69 0 0 1-1.12 0l-1.11-1.49-1.7.74a.7.7 0 0 1-.63 0 .73.73 0 0 1-.35-.53l-.2-1.85-1.85-.2A.73.73 0 0 1 1 12a.7.7 0 0 1 0-.63l.78-1.7-1.5-1.11a.7.7 0 0 1 0-1.12l1.53-1.11-.74-1.7a.7.7 0 0 1 0-.63.73.73 0 0 1 .53-.42l1.85-.2.2-1.85A.73.73 0 0 1 4 1a.7.7 0 0 1 .63 0l1.7.78L7.44.29a.72.72 0 0 1 1.12 0l1.11 1.52 1.7-.74a.7.7 0 0 1 .63 0 .73.73 0 0 1 .42.53l.2 1.85 1.85.2A.73.73 0 0 1 15 4a.7.7 0 0 1 0 .63l-.78 1.7 1.5 1.11A.72.72 0 0 1 16 8zm-3.29 1.72a.7.7 0 0 1 .23-.85L14.12 8l-1.18-.87a.7.7 0 0 1-.23-.85l.59-1.34-1.46-.16a.72.72 0 0 1-.62-.62l-.16-1.46-1.34.59a.72.72 0 0 1-.85-.23L8 1.88l-.87 1.18a.71.71 0 0 1-.85.23L4.94 2.7l-.16 1.46a.72.72 0 0 1-.62.62l-1.46.16.59 1.34a.7.7 0 0 1-.23.85L1.88 8l1.18.87a.7.7 0 0 1 .23.85l-.59 1.34 1.46.16a.72.72 0 0 1 .62.62l.16 1.46 1.34-.59a.7.7 0 0 1 .85.23L8 14.12l.87-1.18a.72.72 0 0 1 .85-.23l1.34.59.16-1.46a.72.72 0 0 1 .62-.62l1.46-.16-.59-1.34zM9.8 6a.71.71 0 0 1 .97 0 .69.69 0 0 1 0 1l-3 3a.71.71 0 0 1-.99 0L5.2 8.44a.69.69 0 0 1 0-1 .71.71 0 0 1 1 0l1.07 1.08L9.8 6z" fill="currentColor" fill-rule="evenodd"/></svg>