<svg width="16" height="16" viewBox="0 0 16 16"><path d="M8 16a.7.7 0 0 1-.56-.29l-1.11-1.49-1.7.78A.7.7 0 0 1 4 15a.73.73 0 0 1-.35-.53l-.2-1.85-1.85-.2a.73.73 0 0 1-.53-.42.7.7 0 0 1 0-.63l.74-1.7L.28 8.56a.7.7 0 0 1 0-1.12l1.5-1.11L1 4.63A.7.7 0 0 1 1 4a.73.73 0 0 1 .53-.35l1.85-.2.2-1.85A.73.73 0 0 1 4 1.07a.7.7 0 0 1 .63 0l1.7.74L7.44.29a.72.72 0 0 1 1.12 0l1.11 1.49 1.7-.78A.7.7 0 0 1 12 1a.73.73 0 0 1 .35.53l.2 1.85 1.85.2a.73.73 0 0 1 .53.35.7.7 0 0 1 0 .63l-.74 1.7 1.5 1.11a.7.7 0 0 1 0 1.12l-1.5 1.11.74 1.7a.7.7 0 0 1 0 .63.73.73 0 0 1-.53.35l-1.85.2-.2 1.85a.73.73 0 0 1-.35.53.7.7 0 0 1-.63 0l-1.7-.74-1.11 1.59A.7.7 0 0 1 8 16zm-1.44-3.35a.7.7 0 0 1 .57.29L8 14.12l.87-1.18a.71.71 0 0 1 .85-.23l1.34.59.16-1.46a.72.72 0 0 1 .62-.62l1.46-.16-.59-1.34a.7.7 0 0 1 .23-.85L14.12 8l-1.18-.87a.7.7 0 0 1-.23-.85l.59-1.34-1.46-.16a.72.72 0 0 1-.62-.62l-.16-1.46-1.34.59a.71.71 0 0 1-.85-.23L8 1.88l-.87 1.18a.72.72 0 0 1-.85.23L4.94 2.7l-.16 1.46a.72.72 0 0 1-.62.62l-1.46.16.59 1.34a.7.7 0 0 1-.23.85L1.88 8l1.18.87a.7.7 0 0 1 .23.85l-.59 1.34 1.46.16a.72.72 0 0 1 .62.62l.16 1.46 1.34-.59a.74.74 0 0 1 .28-.06z" fill="currentColor" fill-rule="evenodd"/></svg>