<svg width="16" height="16" viewBox="0 0 16 16"><path d="M12.51 15.64a.61.61 0 0 1-.32-.08L8 13.36l-4.19 2.2a.7.7 0 0 1-1-.74l.8-4.66-3.4-3.3A.71.71 0 0 1 0 6.14a.72.72 0 0 1 .6-.47L5.28 5 7.37.75a.73.73 0 0 1 1.26 0L10.72 5l4.68.68a.72.72 0 0 1 .57.47.71.71 0 0 1-.18.72l-3.39 3.3.8 4.66a.69.69 0 0 1-.28.69.67.67 0 0 1-.41.12zM8 11.87a.8.8 0 0 1 .33.08l3.25 1.71L11 10a.71.71 0 0 1 .2-.62l2.6-2.53-3.64-.53a.7.7 0 0 1-.53-.38L8 2.64l-1.63 3.3a.7.7 0 0 1-.53.38l-3.64.53 2.64 2.57A.71.71 0 0 1 5 10l-.62 3.62L7.67 12a.8.8 0 0 1 .33-.13z" fill="currentColor" fill-rule="evenodd"/></svg>