<svg width="16" height="16" viewBox="0 0 16 16"><path d="M2.419 8.412a.71.71 0 0 1 0-.989 7.847 7.847 0 0 1 5.477-2.308l-1.63 1.639a6.387 6.387 0 0 0-2.848 1.658.71.71 0 0 1-1 0zm-1.22-2.218a.71.71 0 0 1-.99.01.69.69 0 0 1 0-.999 10.906 10.906 0 0 1 10.485-2.877l-1.18 1.179a9.638 9.638 0 0 0-1.519-.13A9.526 9.526 0 0 0 1.2 6.194zm6.796 5.715a1 1 0 1 1 .107 1.997 1 1 0 0 1-.107-1.997zm5.517-8.442a10.863 10.863 0 0 1 2.27 1.728.69.69 0 0 1 0 1 .67.67 0 0 1-.49.21.7.7 0 0 1-.5-.21 9.504 9.504 0 0 0-2.319-1.7l-1.3 1.3a7.876 7.876 0 0 1 2.4 1.618.71.71 0 0 1 0 1 .74.74 0 0 1-.5.2.7.7 0 0 1-.49-.2 6.517 6.517 0 0 0-2.489-1.53l-1.579 1.58a4.538 4.538 0 0 1 2.749 1.258.69.69 0 0 1 0 1 .67.67 0 0 1-.49.209.7.7 0 0 1-.5-.21 3.249 3.249 0 0 0-3.278-.73L1.2 15.777a.7.7 0 0 1-.5.21.67.67 0 0 1-.49-.2.69.69 0 0 1 0-1l4.368-4.376 1.66-1.648 2.228-2.228 1.23-1.229 1.399-1.409 1.09-1.099L14.781.2a.69.69 0 0 1 1 0 .69.69 0 0 1 0 .999l-2.27 2.268z" fill="currentColor" fill-rule="evenodd"/></svg>