<?xml version="1.0" encoding="UTF-8"?>
<svg width="16px" height="16px" viewBox="0 0 16 16" version="1.1" xmlns="http://www.w3.org/2000/svg" xmlns:xlink="http://www.w3.org/1999/xlink">
    <!-- Generator: Sketch 52.6 (67491) - http://www.bohemiancoding.com/sketch -->
    <title>icon/chat-offline</title>
    <desc>Created with Sketch.</desc>
    <g id="Icons-✅" stroke="none" stroke-width="1" fill="none" fill-rule="evenodd">
        <g id="Icons" transform="translate(-736.000000, -2521.000000)" fill="currentColor">
            <g id="icon/chat-offline" transform="translate(736.000000, 2521.000000)">
                <g id="chat-offline" transform="translate(-1.000000, -1.000000)">
                    <path d="M16.79,2.2 L16.64,2.35 C16.8761503,2.74977672 17.000489,3.20568529 17,3.67 L17,16.3 C16.9971282,16.5859759 16.8181382,16.8405395 16.55,16.94 C16.4620812,16.9799446 16.3665666,17.000412 16.27,17 C16.0962584,17.0013145 15.9284164,16.9370346 15.8,16.82 L12,13.4 L5.59,13.4 L2.2,16.79 C2.06832072,16.9243397 1.88811326,17.0000269 1.7,17 C1.51614131,17.0034016 1.33896611,16.9310852 1.21,16.8 C1.07303562,16.6697469 0.995499737,16.4890108 0.995499737,16.3 C0.995499737,16.1109892 1.07303562,15.9302531 1.21,15.8 L3.6,13.39 L5,12 L7.61,9.4 L9,8 L10.61,6.4 L12,5 L14.56,2.45 L15.64,1.35 L15.79,1.2 C15.9202531,1.06303562 16.1009892,0.985499737 16.29,0.985499737 C16.4790108,0.985499737 16.6597469,1.06303562 16.79,1.2 C16.9269644,1.33025306 17.0045003,1.51098915 17.0045003,1.7 C17.0045003,1.88901085 16.9269644,2.06974694 16.79,2.2 Z M15.6,3.67 C15.6073714,3.59690599 15.6107098,3.52346134 15.61,3.45 L13.61,5.4 C13.7232799,5.61233664 13.715886,5.8687346 13.590558,6.07419037 C13.46523,6.27964614 13.2406378,6.40355317 13,6.4 L12.61,6.4 L10.61,8.4 C10.7232799,8.61233664 10.715886,8.8687346 10.590558,9.07419037 C10.46523,9.27964614 10.2406378,9.40355317 10,9.4 L9.6,9.4 L7,12 L12.3,12 C12.4737416,11.9986855 12.6415836,12.0629654 12.77,12.18 L15.6,14.73 L15.6,3.67 Z M4.3,8.7 C4.3,8.31340068 4.61340068,8 5,8 L7,8 L5.63,9.4 L5,9.4 C4.61340068,9.4 4.3,9.08659932 4.3,8.7 Z M10,5 L8.63,6.4 L5,6.4 C4.61340068,6.4 4.3,6.08659932 4.3,5.7 C4.3,5.31340068 4.61340068,5 5,5 L10,5 Z M3.19,11.84 L2.19,12.84 C1.45301959,12.2117184 1.01993417,11.2982357 1,10.33 L1,3.67 C1.00548357,2.19767707 2.19767707,1.00548357 3.67,1 L14,1 L12.67,2.4 L3.67,2.4 C2.96859837,2.4 2.4,2.96859837 2.4,3.67 L2.4,10.33 C2.42498751,10.9259548 2.71467128,11.4796542 3.19,11.84 Z" id="Combined-Shape"></path>
                </g>
            </g>
        </g>
    </g>
</svg>