<?xml version="1.0" encoding="UTF-8"?>
<svg width="16px" height="16px" viewBox="0 0 16 16" version="1.1" xmlns="http://www.w3.org/2000/svg" xmlns:xlink="http://www.w3.org/1999/xlink">
    <!-- Generator: Sketch 52.6 (67491) - http://www.bohemiancoding.com/sketch -->
    <title>icon/wifi-unavailable</title>
    <desc>Created with Sketch.</desc>
    <g id="Icons-✅" stroke="none" stroke-width="1" fill="none" fill-rule="evenodd">
        <g id="Icons" transform="translate(-80.000000, -804.000000)" fill="currentColor">
            <g id="icon/wifi-unavailable" transform="translate(80.000000, 804.000000)">
                <g id="wifi-unavailable" transform="translate(-1.000000, -1.000000)">
                    <path d="M3.41863691,9.41230261 C3.15077973,9.13696942 3.15077973,8.69853928 3.41863691,8.42320609 C4.87083985,6.96563952 6.83778478,6.13679831 8.89555596,6.11531421 L7.26647237,7.75381754 C6.18818505,8.04795337 5.20600177,8.61983149 4.41807469,9.41230261 C4.14143254,9.68660761 3.69527905,9.68660761 3.41863691,9.41230261 Z M2.19932281,7.1943286 C1.92660662,7.46489199 1.48800723,7.46932073 1.2098794,7.20431947 C1.07299203,7.07418529 0.995499737,6.89361413 0.995499737,6.70477577 C0.995499737,6.51593742 1.07299203,6.33536626 1.2098794,6.20523208 C3.94291659,3.44866259 7.93606043,2.35274053 11.6939818,3.32786039 L10.5146452,4.50678351 C10.0124907,4.4234409 9.5045187,4.38001116 8.99549974,4.37690215 C6.44405096,4.36817418 3.99577393,5.38313311 2.19932281,7.1943286 Z M8.99549974,12.9091085 C9.28359008,12.8937309 9.56427426,13.0035513 9.7653819,13.2103324 C9.96648953,13.4171134 10.0683999,13.7006808 10.0449094,13.9881229 C10.0013883,14.5206709 9.54641114,14.9247248 9.0122588,14.9051944 C8.47810647,14.8856639 8.0538735,14.449463 8.0493875,13.9151597 C8.04490151,13.3808564 8.46175058,12.9375987 8.99549974,12.9091085 Z M14.5123963,4.46682002 C15.3413433,4.94077842 16.1041583,5.52192699 16.7811201,6.1952412 C16.9180074,6.32537539 16.9954997,6.50594655 16.9954997,6.6947849 C16.9954997,6.88362325 16.9180074,7.06419441 16.7811201,7.1943286 C16.6539372,7.32896987 16.4766409,7.40492736 16.2913956,7.40413695 C16.1033881,7.4041638 15.9232819,7.32854574 15.7916767,7.1943286 C15.1093855,6.51394182 14.3275475,5.94124412 13.472981,5.49588003 L12.1737119,6.79469364 C13.0664078,7.18145891 13.8796858,7.7302291 14.5723626,8.41321521 C14.8467638,8.68976037 14.8467638,9.13575745 14.5723626,9.41230261 C14.4368056,9.53928328 14.2584092,9.61061679 14.0726437,9.61212008 C13.8895339,9.61214677 13.7137119,9.54040784 13.5829192,9.41230261 C12.8797802,8.72108985 12.0288733,8.19842676 11.0943191,7.8836989 L9.51520738,9.46225698 C10.5483745,9.55546638 11.5183975,9.99975746 12.2636613,10.7211071 C12.4005487,10.8512413 12.478041,11.0318124 12.478041,11.2206508 C12.478041,11.4094891 12.4005487,11.5900603 12.2636613,11.7201945 C12.1364784,11.8548358 11.9591821,11.9307932 11.7739368,11.9300028 C11.5859293,11.9300297 11.4058231,11.8544116 11.2742179,11.7201945 C10.401751,10.8874383 9.13948315,10.6066052 7.99606195,10.9908607 L2.19932281,16.7755767 C2.06771756,16.9097938 1.88761142,16.9854119 1.69960392,16.985385 C1.5158486,16.9887836 1.338773,16.9165331 1.2098794,16.7855676 C1.07299203,16.6554334 0.995499737,16.4748622 0.995499737,16.2860239 C0.995499737,16.0971855 1.07299203,15.9166144 1.2098794,15.7864802 L5.57742252,11.4104774 L7.23648924,9.76198319 L9.4652355,7.53401831 L10.694544,6.30514082 L12.0937569,4.8964276 L13.183144,3.79743146 L15.7816823,1.19980425 C15.9118621,1.06296486 16.0924966,0.985499737 16.2814012,0.985499737 C16.4703058,0.985499737 16.6509402,1.06296486 16.7811201,1.19980425 C16.9180074,1.32993843 16.9954997,1.51050959 16.9954997,1.69934794 C16.9954997,1.8881863 16.9180074,2.06875745 16.7811201,2.19889164 L14.5123963,4.46682002 Z" id="Combined-Shape"></path>
                </g>
            </g>
        </g>
    </g>
</svg>