<svg viewBox="0 0 14 16"><path d="M13.49 4.6c0 .02.01.05.01.05v8.65a2.7 2.7 0 0 1-2.7 2.7H3.2a2.7 2.7 0 0 1-2.7-2.7V2.7A2.7 2.7 0 0 1 3.2 0h5.7a.57.57 0 0 1 .19.07h.07a.66.66 0 0 1 .2.14l4 3.94a.57.57 0 0 1 .13.21v.06c.01.06.01.12 0 .18zM9.56 2.39V4h1.55L9.56 2.39zM10.8 14.6a1.3 1.3 0 0 0 1.3-1.25v-8H8.9a.7.7 0 0 1-.7-.7V1.4h-5a1.3 1.3 0 0 0-1.3 1.3v10.6a1.3 1.3 0 0 0 1.3 1.3h7.6zm-.75-7.26h.05a.7.7 0 0 1 0 1.4H4a.7.7 0 0 1 0-1.4h6.05zm0 3.66h.05a.7.7 0 1 1 0 1.4H4A.7.7 0 0 1 4 11h6.05zM4 5.09a.7.7 0 0 1 0-1.4h2.11a.7.7 0 0 1 0 1.4H4z" fill="currentColor" fill-rule="evenodd"/></svg>