<?xml version="1.0" encoding="UTF-8"?>
<svg width="16px" height="16px" viewBox="0 0 16 16" version="1.1" xmlns="http://www.w3.org/2000/svg" xmlns:xlink="http://www.w3.org/1999/xlink">
    <!-- Generator: Sketch 52.6 (67491) - http://www.bohemiancoding.com/sketch -->
    <title>icon/add-contact</title>
    <desc>Created with Sketch.</desc>
    <g id="Icons-✅" stroke="none" stroke-width="1" fill="none" fill-rule="evenodd">
        <g id="Icons" transform="translate(-409.000000, -2917.000000)" fill="currentColor">
            <g id="icon/add-contact" transform="translate(409.000000, 2917.000000)">
                <g id="add-contact" transform="translate(-1.000000, -1.000000)">
                    <path d="M7.09,7.25 C5.38087739,7.22816468 4.00532143,5.8392538 4,4.13 C3.99604459,2.85951241 4.76046926,1.71267357 5.93466954,1.22748488 C7.10886982,0.742296183 8.45987077,1.0150247 9.35389511,1.91772888 C10.2479194,2.82043307 10.5075824,4.17400596 10.0110717,5.34346373 C9.51456096,6.5129215 8.36039008,7.26623018 7.09,7.25 Z M7.09,2.4 C6.13454738,2.4 5.36,3.17454738 5.36,4.13 C5.36,5.08545262 6.13454738,5.86 7.09,5.86 C8.04545262,5.86 8.82,5.08545262 8.82,4.13 C8.82,3.17454738 8.04545262,2.4 7.09,2.4 Z M16.3,13.3 C16.6865993,13.3 17,13.6134007 17,14 C17,14.3865993 16.6865993,14.7 16.3,14.7 L14.7,14.7 L14.7,16.3 C14.7,16.6865993 14.3865993,17 14,17 C13.6134007,17 13.3,16.6865993 13.3,16.3 L13.3,14.7 L11.7,14.7 C11.3134007,14.7 11,14.3865993 11,14 C11,13.6134007 11.3134007,13.3 11.7,13.3 L13.3,13.3 L13.3,11.7 C13.3,11.3134007 13.6134007,11 14,11 C14.3865993,11 14.7,11.3134007 14.7,11.7 L14.7,13.3 L16.3,13.3 Z M10.24,15.6 C10.6265993,15.6 10.94,15.9134007 10.94,16.3 C10.94,16.6865993 10.6265993,17 10.24,17 L1.71,17 C1.49798819,17.0056225 1.29516893,16.9134319 1.16,16.75 C1.02740521,16.5917302 0.969137763,16.3841525 1,16.18 L1.88,11 C2.12547315,9.50788461 3.41783698,8.41467193 4.93,8.42 L9.29,8.42 C10.7847609,8.4349329 12.0514852,9.5243158 12.29,11 C12.3247526,11.1833541 12.2837539,11.3729661 12.1763562,11.525584 C12.0689584,11.6782018 11.9043214,11.780809 11.72,11.81 C11.5355109,11.8417371 11.3459963,11.7982565 11.1937932,11.6892716 C11.0415901,11.5802867 10.9393813,11.4148789 10.91,11.23 C10.7673967,10.4057693 10.0463862,9.80775479 9.21,9.82 L4.93,9.82 C4.10342341,9.81835853 3.39694624,10.4148452 3.26,11.23 L2.53,15.6 L10.24,15.6 Z" id="Combined-Shape"></path>
                </g>
            </g>
        </g>
    </g>
</svg>