<?xml version="1.0" encoding="UTF-8"?>
<svg width="10" height="14" viewBox="0 0 10 14" fill="none" xmlns="http://www.w3.org/2000/svg">    <!-- Generator: Sketch 52.6 (67491) - http://www.bohemiancoding.com/sketch -->
    <title>icon/arrow-down</title>
    <desc>Created with Sketch.</desc>
    <path d="M4.47509 1.37373L4.47509 11.375L1.50009 8.60998C1.45131 8.56104 1.39336 8.5222 1.32954 8.4957C1.26573 8.46921 1.19731 8.45557 1.12821 8.45557C1.05912 8.45557 0.990697 8.46921 0.926883 8.4957C0.863068 8.5222 0.805112 8.56104 0.756338 8.60998C0.659588 8.70959 0.605469 8.84299 0.605469 8.98186C0.605469 9.12072 0.659588 9.25412 0.756338 9.35373L4.64134 13.0112C4.7376 13.1043 4.86623 13.1562 5.00009 13.1562C5.13395 13.1562 5.26258 13.1043 5.35884 13.0112L9.20884 9.37123C9.25778 9.32246 9.29662 9.2645 9.32311 9.20069C9.34961 9.13687 9.36325 9.06845 9.36325 8.99936C9.36325 8.93026 9.34961 8.86184 9.32311 8.79803C9.29662 8.73421 9.25778 8.67626 9.20884 8.62748C9.16006 8.57854 9.10211 8.5397 9.03829 8.5132C8.97448 8.48671 8.90606 8.47307 8.83696 8.47307C8.76787 8.47307 8.69945 8.48671 8.63563 8.5132C8.57182 8.5397 8.51386 8.57854 8.46509 8.62748L5.52509 11.375L5.52509 1.37373C5.52509 1.23449 5.46978 1.10096 5.37132 1.0025C5.27286 0.904042 5.13933 0.84873 5.00009 0.84873C4.86085 0.84873 4.72731 0.904042 4.62886 1.0025C4.5304 1.10096 4.47509 1.23449 4.47509 1.37373Z" fill="currentColor"/>
</svg>
