<?xml version="1.0" encoding="UTF-8"?>
<svg width="10" height="14" viewBox="0 0 10 14" fill="none" xmlns="http://www.w3.org/2000/svg">    <!-- Generator: Sketch 52.6 (67491) - http://www.bohemiancoding.com/sketch -->
    <title>icon/arrow-up</title>
    <desc>Created with Sketch.</desc>
    <path d="M5.52491 12.6263L5.52491 2.62502L8.49991 5.39002C8.54869 5.43896 8.60664 5.4778 8.67046 5.5043C8.73427 5.53079 8.80269 5.54443 8.87179 5.54443C8.94088 5.54443 9.0093 5.53079 9.07312 5.5043C9.13693 5.4778 9.19489 5.43896 9.24366 5.39002C9.34041 5.29041 9.39453 5.15701 9.39453 5.01814C9.39453 4.87928 9.34041 4.74588 9.24366 4.64627L5.35866 0.988769C5.2624 0.895746 5.13377 0.84375 4.99991 0.84375C4.86605 0.84375 4.73742 0.895746 4.64116 0.988769L0.791162 4.62877C0.742218 4.67754 0.703384 4.7355 0.676887 4.79931C0.650389 4.86313 0.636749 4.93155 0.636749 5.00064C0.636749 5.06974 0.650389 5.13816 0.676887 5.20197C0.703384 5.26579 0.742218 5.32374 0.791162 5.37252C0.839936 5.42146 0.897893 5.4603 0.961708 5.4868C1.02552 5.51329 1.09394 5.52693 1.16304 5.52693C1.23213 5.52693 1.30055 5.51329 1.36437 5.4868C1.42818 5.4603 1.48614 5.42146 1.53491 5.37252L4.47491 2.62502L4.47491 12.6263C4.47491 12.7655 4.53022 12.899 4.62868 12.9975C4.72714 13.096 4.86067 13.1513 4.99991 13.1513C5.13915 13.1513 5.27269 13.096 5.37114 12.9975C5.4696 12.899 5.52491 12.7655 5.52491 12.6263Z" fill="currentColor"/>
</svg>
