<svg viewBox="0 0 16 16"><path d="M8.16 0a8.19 8.19 0 0 0-6.34 3A7.86 7.86 0 0 0 .15 9.56a7.93 7.93 0 0 0 6.45 6.32c.463.078.93.118 1.4.12a8 8 0 0 0 4-1.06.7.7 0 0 0 .25-1 .69.69 0 0 0-1-.25A6.62 6.62 0 0 1 1.52 9.3 6.5 6.5 0 0 1 2.9 3.85 6.78 6.78 0 0 1 8.16 1.4a6.66 6.66 0 0 1 6.43 6.24 7 7 0 0 1-.1 1.59 1.26 1.26 0 0 1-1.18 1 1.17 1.17 0 0 1-.92-.33A1.2 1.2 0 0 1 12 9V5.09a.7.7 0 0 0-.7-.7.68.68 0 0 0-.68.61 4 4 0 1 0 .46 5.52c.103.154.224.295.36.42a2.67 2.67 0 0 0 4.42-1.46A8 8 0 0 0 16 7.57 8.09 8.09 0 0 0 8.16 0zM8 10.6a2.6 2.6 0 1 1 0-5.2 2.6 2.6 0 0 1 0 5.2z" fill="currentColor" fill-rule="evenodd"/></svg>