<?xml version="1.0" encoding="UTF-8"?>
<svg width="16px" height="16px" viewBox="0 0 16 16" version="1.1" xmlns="http://www.w3.org/2000/svg" xmlns:xlink="http://www.w3.org/1999/xlink">
    <!-- Generator: Sketch 52.6 (67491) - http://www.bohemiancoding.com/sketch -->
    <title>icon/attachment</title>
    <desc>Created with Sketch.</desc>
    <g id="Icons-✅" stroke="none" stroke-width="1" fill="none" fill-rule="evenodd">
        <g id="Icons" transform="translate(-572.000000, -2653.000000)" fill="currentColor">
            <g id="icon/attachment" transform="translate(573.000000, 2653.000000)">
                <g id="attachment" transform="translate(-1.000000, -1.000000)">
                    <path d="M4.24,17 C3.35697412,16.9962874 2.512985,16.6356083 1.9,16 C1.2765115,15.3788942 0.926038313,14.5350627 0.926038313,13.655 C0.926038313,12.7749373 1.2765115,11.9311058 1.9,11.31 L8.67,4.56 C9.17731714,4.05268286 9.91674798,3.85455297 10.6097561,4.04024393 C11.3027642,4.22593489 11.8440651,4.76723583 12.0297561,5.46024393 C12.215447,6.15325202 12.0173171,6.89268286 11.51,7.4 L6.19,12.72 C6.05974694,12.8569644 5.87901085,12.9345003 5.69,12.9345003 C5.50098915,12.9345003 5.32025306,12.8569644 5.19,12.72 C4.91544444,12.4432022 4.91544444,11.9967978 5.19,11.72 L10.51,6.4 C10.625502,6.28878186 10.6907629,6.13534397 10.6907629,5.975 C10.6907629,5.81465603 10.625502,5.66121814 10.51,5.55 C10.3981463,5.43250608 10.2421986,5.36722565 10.08,5.37 C9.92030071,5.37011789 9.76660582,5.43088098 9.65,5.54 L2.89,12.33 C2.31577571,13.0987134 2.39720337,14.1733288 3.08070288,14.8467398 C3.76420238,15.5201507 4.83990973,15.5855909 5.6,15 L12.73,7.9 C13.9892092,6.64079076 13.9892092,4.59920925 12.73,3.34000003 C11.4707907,2.08079082 9.42920924,2.0807908 8.17,3.34 L3,8.54 C2.72320224,8.81455556 2.27679776,8.81455556 2,8.54 C1.73076447,8.26103249 1.73076447,7.81896751 2,7.54 L7.18,2.35 C8.98597114,0.544028933 11.9140288,0.544028964 13.7199999,2.35000007 C15.525971,4.15597117 15.5259711,7.08402886 13.72,8.89 L6.59,16 C5.97198146,16.6342806 5.12556655,16.9944572 4.24,17 Z" id="Path"></path>
                </g>
            </g>
        </g>
    </g>
</svg>