<?xml version="1.0" encoding="UTF-8"?>
<svg width="17px" height="16px" viewBox="0 0 17 16" version="1.1" xmlns="http://www.w3.org/2000/svg" xmlns:xlink="http://www.w3.org/1999/xlink">
    <!-- Generator: Sketch 52.6 (67491) - http://www.bohemiancoding.com/sketch -->
    <title>icon/cell</title>
    <desc>Created with Sketch.</desc>
    <g id="Icons-✅" stroke="none" stroke-width="1" fill="none" fill-rule="evenodd">
        <g id="Icons" transform="translate(-818.000000, -2521.000000)" fill="currentColor">
            <g id="icon/cell" transform="translate(818.000000, 2521.000000)">
                <g id="cell" transform="translate(0.000000, -1.000000)">
                    <path d="M15.31,1 C15.6927275,0.999960944 16.0045325,1.30731154 16.01,1.69 L16.01,4.21 C16.01,4.59659932 15.6965993,4.91 15.31,4.91 C14.9234007,4.91 14.61,4.59659932 14.61,4.21 L14.61,2.4 L12.79,2.4 C12.4034007,2.4 12.09,2.08659932 12.09,1.7 C12.09,1.31340068 12.4034007,1 12.79,1 L15.31,1 Z M3.23,1 L3.23,0.99 C3.48008592,0.989999996 3.71117483,1.12341924 3.83621779,1.34 C3.96126075,1.55658075 3.96126075,1.82341925 3.83621779,2.04 C3.71117483,2.25658076 3.48008592,2.39 3.23,2.39 L1.41,2.39 L1.41,4.21 C1.4126771,4.39737809 1.34011085,4.57800566 1.2085441,4.71145193 C1.07697736,4.8448982 0.897397215,4.92001912 0.71,4.92 C0.321788614,4.91453169 0.0099614889,4.5982499 0.01,4.21 L0.01,1.7 C0.0153763146,1.31564964 0.325649643,1.00537631 0.71,1 L3.23,1 Z M3.23,15.59 C3.61659932,15.59 3.93,15.9034007 3.93,16.29 C3.93,16.6765993 3.61659932,16.99 3.23,16.99 L0.71,16.99 C0.323400675,16.99 0.01,16.6765993 0.01,16.29 L0.01,13.77 C0.0153763146,13.3856496 0.325649643,13.0753763 0.71,13.07 C1.09659932,13.07 1.41,13.3834007 1.41,13.77 L1.41,15.59 L3.23,15.59 Z M15.31,13.07 C15.6965993,13.07 16.01,13.3834007 16.01,13.77 L16.01,16.29 C16.01,16.6765993 15.6965993,16.99 15.31,16.99 L12.79,16.99 C12.4034007,16.99 12.09,16.6765993 12.09,16.29 C12.09,15.9034007 12.4034007,15.59 12.79,15.59 L14.61,15.59 L14.61,13.77 C14.61,13.3834007 14.9234007,13.07 15.31,13.07 Z M9.5,1 C9.88659932,1 10.2,1.31340068 10.2,1.7 C10.2,2.08659932 9.88659932,2.4 9.5,2.4 L6.5,2.4 C6.11340068,2.4 5.8,2.08659932 5.8,1.7 C5.8,1.31340068 6.11340068,1 6.5,1 L9.5,1 Z M9.5,15.59 C9.88659932,15.59 10.2,15.9034007 10.2,16.29 C10.2,16.6765993 9.88659932,16.99 9.5,16.99 L6.5,16.99 C6.11340068,16.99 5.8,16.6765993 5.8,16.29 C5.8,15.9034007 6.11340068,15.59 6.5,15.59 L9.5,15.59 Z M15.3,11.19 C15.1143485,11.19 14.9363007,11.1162502 14.8050253,10.9849747 C14.6737498,10.8536993 14.6,10.6756515 14.6,10.49 L14.6,7.49 C14.6,7.10340068 14.9134007,6.79 15.3,6.79 C15.6865993,6.79 16,7.10340068 16,7.49 L16,10.49 C16,10.8765993 15.6865993,11.19 15.3,11.19 Z M0.7,11.19 C0.514348457,11.19 0.336300718,11.1162502 0.205025253,10.9849747 C0.0737497883,10.8536993 4.51666249e-14,10.6756515 4.5519144e-14,10.49 L4.5519144e-14,7.49 C4.55664888e-14,7.10340068 0.313400675,6.79 0.7,6.79 C1.08659932,6.79 1.4,7.10340068 1.4,7.49 L1.4,10.49 C1.4,10.8765993 1.08659932,11.19 0.7,11.19 Z" id="Combined-Shape"></path>
                </g>
            </g>
        </g>
    </g>
</svg>