<?xml version="1.0" encoding="UTF-8"?>
<svg width="8px" height="6px" viewBox="0 0 8 6" version="1.1" xmlns="http://www.w3.org/2000/svg" xmlns:xlink="http://www.w3.org/1999/xlink">
    <!-- Generator: Sketch 52.6 (67491) - http://www.bohemiancoding.com/sketch -->
    <title>icon/chevron-up</title>
    <desc>Created with Sketch.</desc>
    <g id="Icons-✅" stroke="none" stroke-width="1" fill="none" fill-rule="evenodd">
        <g id="Icons" transform="translate(-85.000000, -2525.000000)" fill="currentColor">
            <g id="icon/chevron-up" transform="translate(85.000000, 2525.000000)">
                <g id="chevron-up" transform="translate(-1.000000, 0.000000)">
                    <path d="M8.3,5.35 C8.11412994,5.34849533 7.93563326,5.27709666 7.8,5.15 L5,2.34 L2.2,5.15 C2.02136721,5.32863279 1.76100423,5.39839684 1.5169873,5.3330127 C1.27297036,5.26762856 1.08237144,5.07702964 1.0169873,4.8330127 C0.951603157,4.58899577 1.02136721,4.32863279 1.2,4.15 L4.5,0.85 C4.77896751,0.580764472 5.22103249,0.580764472 5.5,0.85 L8.79,4.15 C8.99317342,4.34906847 9.0556853,4.65128737 8.94815684,4.91462238 C8.84062838,5.17795738 8.58444278,5.35004147 8.3,5.35 Z" id="Path"></path>
                </g>
            </g>
        </g>
    </g>
</svg>