<?xml version="1.0" encoding="UTF-8"?>
<svg width="16px" height="16px" viewBox="0 0 16 16" version="1.1" xmlns="http://www.w3.org/2000/svg" xmlns:xlink="http://www.w3.org/1999/xlink">
    <!-- Generator: Sketch 52.6 (67491) - http://www.bohemiancoding.com/sketch -->
    <title>icon/circle-cross</title>
    <desc>Created with Sketch.</desc>
    <g id="Icons-✅" stroke="none" stroke-width="1" fill="none" fill-rule="evenodd">
        <g id="Icons" transform="translate(-736.000000, -2388.000000)" fill="currentColor">
            <g id="icon/circle-cross" transform="translate(736.000000, 2388.000000)">
                <g id="circle-cross">
                    <path d="M8,0 C10.1217319,1.2991861e-16 12.1565632,0.842854723 13.6568542,2.34314575 C15.1571453,3.84343678 16,5.87826808 16,8 C16,12.418278 12.418278,16 8,16 C3.581722,16 -5.41083001e-16,12.418278 0,8 C5.41083001e-16,3.581722 3.581722,-2.705415e-16 8,0 Z M8,14.6 C11.6427959,14.5944931 14.5944931,11.6427959 14.6,8 C14.6,4.35492065 11.6450793,1.4 8,1.4 C4.35492065,1.4 1.4,4.35492065 1.4,8 C1.4,11.6450793 4.35492065,14.6 8,14.6 Z M10.82,5.18 C11.0908105,5.4528696 11.0952433,5.89171571 10.83,6.17 L9,8 L10.83,9.83 C11.1061424,10.1061424 11.1061424,10.5538576 10.83,10.83 C10.5538576,11.1061424 10.1061424,11.1061424 9.83,10.83 L8,9 L6.18,10.83 C5.90385763,11.1061424 5.45614237,11.1061424 5.18,10.83 C4.90385763,10.5538576 4.90385763,10.1061424 5.18,9.83 L7,8 L5.17,6.18 C4.89385763,5.90385763 4.89385763,5.45614237 5.17,5.18 C5.44614237,4.90385763 5.89385763,4.90385763 6.17,5.18 L8,7 L9.82,5.18 C10.0967978,4.90544444 10.5432022,4.90544444 10.82,5.18 Z" id="Combined-Shape"></path>
                </g>
            </g>
        </g>
    </g>
</svg>