<?xml version="1.0" encoding="UTF-8"?>
<svg width="16px" height="16px" viewBox="0 0 16 16" version="1.1" xmlns="http://www.w3.org/2000/svg" xmlns:xlink="http://www.w3.org/1999/xlink">
    <!-- Generator: Sketch 52.6 (67491) - http://www.bohemiancoding.com/sketch -->
    <title>icon/circle-check</title>
    <desc>Created with Sketch.</desc>
    <g id="Icons-✅" stroke="none" stroke-width="1" fill="none" fill-rule="evenodd">
        <g id="Icons" transform="translate(-818.000000, -2388.000000)" fill="currentColor">
            <g id="icon/circle-check" transform="translate(818.000000, 2388.000000)">
                <g id="circle-check">
                    <path d="M8,0 C10.1217319,1.2991861e-16 12.1565632,0.842854723 13.6568542,2.34314575 C15.1571453,3.84343678 16,5.87826808 16,8 C16,12.418278 12.418278,16 8,16 C3.581722,16 -5.41083001e-16,12.418278 0,8 C5.41083001e-16,3.581722 3.581722,-2.705415e-16 8,0 Z M8,14.6 C11.6427959,14.5944931 14.5944931,11.6427959 14.6,8 C14.6,4.35492065 11.6450793,1.4 8,1.4 C4.35492065,1.4 1.4,4.35492065 1.4,8 C1.4,11.6450793 4.35492065,14.6 8,14.6 Z M10.8,5.33 C11.0755847,5.06199214 11.5144153,5.06199214 11.79,5.33 C11.9269644,5.46025306 12.0045003,5.64098915 12.0045003,5.83 C12.0045003,6.01901085 11.9269644,6.19974694 11.79,6.33 L7.45,10.68 C7.17320224,10.9545556 6.72679776,10.9545556 6.45,10.68 L4.2,8.42 C4.02136721,8.24136721 3.95160316,7.98100423 4.0169873,7.7369873 C4.08237144,7.49297036 4.27297036,7.30237144 4.5169873,7.2369873 C4.76100423,7.17160316 5.02136721,7.24136721 5.2,7.42 L7,9.18 L10.8,5.33 Z" id="Combined-Shape"></path>
                </g>
            </g>
        </g>
    </g>
</svg>