<svg viewBox="0 0 16 16"><path d="M5 16h-.78a2.68 2.68 0 0 1-2.68-2.67v-2.67A2.36 2.36 0 0 0 .35 8.61a.71.71 0 0 1 0-1.22 2.36 2.36 0 0 0 1.19-2V2.67A2.68 2.68 0 0 1 4.22 0H5a.7.7 0 1 1 0 1.4h-.78a1.27 1.27 0 0 0-1.28 1.27v2.67A3.77 3.77 0 0 1 1.84 8a3.77 3.77 0 0 1 1.1 2.66v2.67a1.27 1.27 0 0 0 1.28 1.27H5A.7.7 0 0 1 5 16zm6.79 0H11a.7.7 0 0 1 0-1.4h.79a1.27 1.27 0 0 0 1.28-1.27v-2.67A3.77 3.77 0 0 1 14.17 8a3.77 3.77 0 0 1-1.1-2.66V2.67a1.27 1.27 0 0 0-1.28-1.27H11A.7.7 0 0 1 11 0h.79a2.68 2.68 0 0 1 2.68 2.67v2.67c0 .847.454 1.63 1.19 2.05a.72.72 0 0 1 0 1.22 2.36 2.36 0 0 0-1.19 2.05v2.67A2.68 2.68 0 0 1 11.79 16z" fill="currentColor" fill-rule="evenodd"/></svg>