<?xml version="1.0" encoding="UTF-8"?>
<svg width="14px" height="14px" viewBox="0 0 14 14" version="1.1" xmlns="http://www.w3.org/2000/svg" xmlns:xlink="http://www.w3.org/1999/xlink">
    <!-- Generator: Sketch 52.6 (67491) - http://www.bohemiancoding.com/sketch -->
    <title>icon/color-picker</title>
    <desc>Created with Sketch.</desc>
    <g id="Icons-✅" stroke="none" stroke-width="1" fill="none" fill-rule="evenodd">
        <g id="Icons" transform="translate(-164.000000, -2389.000000)" fill="currentColor">
            <g id="icon/color-picker" transform="translate(164.000000, 2389.000000)">
                <g id="color-picker" transform="translate(-1.000000, 0.000000)">
                    <path d="M14.37,3.66 C14.7751181,3.25817102 15.0020724,2.71059873 15,2.14 C15.0039296,1.57196676 14.7764775,1.02680381 14.37,0.63 C13.5373886,-0.188263037 12.2026114,-0.188263037 11.37,0.63 L8.91,3.06 C8.4273492,3.53523694 7.6526508,3.53523694 7.17,3.06 C6.89385762,2.78385764 6.44614238,2.78385765 6.17000001,3.06000001 C5.89385765,3.33614238 5.89385764,3.78385762 6.17,4.06 L7.03,4.93 L2.5,9.47 C1.84908328,10.1126895 1.68379229,11.1004039 2.09,11.92 L1.21,12.8 C1.07303562,12.9302531 0.995499737,13.1109892 0.995499737,13.3 C0.995499737,13.4890108 1.07303562,13.6697469 1.21,13.8 C1.33896611,13.9310852 1.51614131,14.0034016 1.7,14 C1.88811326,14.0000269 2.06832072,13.9243397 2.2,13.79 L3.08,12.91 C3.37002436,13.0509024 3.6875844,13.1260242 4.01,13.13 C4.58037807,13.130956 5.1275372,12.9041729 5.53,12.5 L10.08,8 L10.95,8.86 C11.075202,8.9905505 11.2491414,9.06302527 11.43,9.06 C11.6158701,9.05849533 11.7943667,8.98709666 11.93,8.86 C12.1992355,8.58103249 12.1992355,8.13896751 11.93,7.86 C11.699777,7.63101886 11.5703342,7.31970752 11.5703342,6.995 C11.5703342,6.67029248 11.699777,6.35898114 11.93,6.13 L14.37,3.66 Z M4.54,11.51 C4.25709286,11.769297 3.82290714,11.769297 3.54,11.51 C3.38377589,11.3842969 3.28613658,11.1998671 3.27,11 C3.27017505,10.8011546 3.34930751,10.6105174 3.49,10.47 L8,5.91 L9.09,7 L4.54,11.51 Z M11,5.1 C10.6982263,5.40359915 10.4780764,5.7785419 10.36,6.19 L8.8,4.68 C9.21319024,4.56435674 9.59117771,4.34787301 9.9,4.05 L12.33,1.62 C12.468916,1.48015493 12.6578851,1.40151222 12.855,1.40151222 C13.0521149,1.40151222 13.241084,1.48015493 13.38,1.62 C13.5201113,1.7568091 13.5993814,1.94417479 13.6,2.14 C13.5998249,2.33884535 13.5206925,2.52948264 13.38,2.67 L11,5.1 Z" id="Shape"></path>
                </g>
            </g>
        </g>
    </g>
</svg>