<svg viewBox="0 0 16 16"><path d="M14.49 2.45h-1.27v-.63A1.83 1.83 0 0 0 11.4 0H1.82A1.83 1.83 0 0 0 0 1.82v2.65a1.82 1.82 0 0 0 1.82 1.82h9.58a1.82 1.82 0 0 0 1.82-1.82v-.62h1.27a.11.11 0 0 1 .11.15v3.2c0 .06-.05.11-.11.11H7.81A1.52 1.52 0 0 0 6.3 8.79v1.79a1.82 1.82 0 0 0-1.22 1.71v1.89A1.82 1.82 0 0 0 6.89 16h.21a1.82 1.82 0 0 0 1.82-1.82v-1.89a1.82 1.82 0 0 0-1.22-1.71V8.79a.12.12 0 0 1 .11-.12h6.68A1.51 1.51 0 0 0 16 7.16V4a1.52 1.52 0 0 0-1.51-1.55zm-2.67 2a.42.42 0 0 1-.42.42H1.82a.42.42 0 0 1-.42-.42V1.82a.42.42 0 0 1 .42-.42h9.58a.42.42 0 0 1 .42.42v2.63zm-4.3 9.71a.42.42 0 0 1-.42.42h-.21a.41.41 0 0 1-.41-.42v-1.87a.41.41 0 0 1 .41-.42h.21a.42.42 0 0 1 .42.42v1.87z" fill="currentColor" fill-rule="evenodd"/></svg>