<?xml version="1.0" encoding="UTF-8"?>
<svg width="12px" height="16px" viewBox="0 0 12 16" version="1.1" xmlns="http://www.w3.org/2000/svg" xmlns:xlink="http://www.w3.org/1999/xlink">
    <!-- Generator: Sketch 52.6 (67491) - http://www.bohemiancoding.com/sketch -->
    <title>icon/contact</title>
    <desc>Created with Sketch.</desc>
    <g id="Icons-✅" stroke="none" stroke-width="1" fill="none" fill-rule="evenodd">
        <g id="Icons" transform="translate(-738.000000, -2257.000000)" fill="currentColor">
            <g id="icon/contact" transform="translate(738.000000, 2257.000000)">
                <g id="contact" transform="translate(-1.000000, -1.000000)">
                    <path d="M7,7.25 C5.73222227,7.25404398 4.5872145,6.49293018 4.10018704,5.32242559 C3.61315957,4.15192101 3.88031291,2.80323049 4.7767717,1.9067717 C5.67323049,1.01031291 7.02192101,0.743159575 8.19242559,1.23018704 C9.36293018,1.7172145 10.124044,2.86222227 10.12,4.13 C10.1145108,5.85084959 8.72084959,7.2445108 7,7.25 Z M7,2.4 C6.29938453,2.39595013 5.66550115,2.81487368 5.39457636,3.4609992 C5.12365157,4.10712473 5.26918449,4.85286279 5.76316464,5.34971492 C6.2571448,5.84656706 7.00202666,5.99642061 7.6497119,5.729246 C8.29739713,5.46207139 8.7199883,4.83062717 8.72,4.13 C8.7200159,3.17843904 7.95154506,2.40550035 7,2.4 Z M12.3,17 L1.7,17 C1.49432431,17.0024397 1.29892563,16.9102705 1.17,16.75 C1.02462404,16.5985934 0.961309548,16.3863036 1,16.18 L1.87,11 C2.11932898,9.51007473 3.40935745,8.41883753 4.92,8.42 L9.08,8.42 C10.5906425,8.41883753 11.880671,9.51007473 12.13,11 L13,16.18 C13.0318707,16.3830538 12.9741824,16.5899547 12.841846,16.7472241 C12.7095096,16.9044934 12.5155131,16.9966961 12.31,17 L12.3,17 Z M2.53,15.6 L11.47,15.6 L10.75,11.23 C10.6092553,10.4170164 9.9050729,9.82246717 9.08,9.82 L4.92,9.82 C4.0949271,9.82246717 3.39074467,10.4170164 3.25,11.23 L2.53,15.6 Z" id="Combined-Shape"></path>
                </g>
            </g>
        </g>
    </g>
</svg>