<svg viewBox="0 0 16 16"><path d="M6.17 5a.7.7 0 0 1 .71.7v6.6a.71.71 0 0 1-1.41 0V5.7a.7.7 0 0 1 .7-.7zm2.95.7a.71.71 0 0 1 1.41 0v6.6a.71.71 0 0 1-1.41 0V5.7zM14.3 2a.7.7 0 0 1 0 1.4H14v9.93A2.67 2.67 0 0 1 11.34 16H4.66A2.67 2.67 0 0 1 2 13.33V3.4h-.3a.7.7 0 0 1 0-1.4h3.6v-.3A1.7 1.7 0 0 1 7 0h2a1.7 1.7 0 0 1 1.67 1.7V2h3.63zm-7.57-.3V2H9.3v-.3a.29.29 0 0 0-.3-.3H7a.29.29 0 0 0-.27.3zm5.87 11.63V3.4H3.4v9.93a1.27 1.27 0 0 0 1.26 1.27h6.68a1.27 1.27 0 0 0 1.26-1.27z" fill="currentColor"/></svg>