<?xml version="1.0" encoding="UTF-8"?>
<svg width="14px" height="16px" viewBox="0 0 14 16" version="1.1" xmlns="http://www.w3.org/2000/svg" xmlns:xlink="http://www.w3.org/1999/xlink">
    <!-- Generator: Sketch 52.6 (67491) - http://www.bohemiancoding.com/sketch -->
    <title>icon/delete</title>
    <desc>Created with Sketch.</desc>
    <g id="Icons-✅" stroke="none" stroke-width="1" fill="none" fill-rule="evenodd">
        <g id="Icons" transform="translate(-327.000000, -2256.000000)" fill="currentColor">
            <g id="icon/delete" transform="translate(327.000000, 2256.000000)">
                <g id="delete">
                    <path d="M5.17,5 C5.35737809,4.9973229 5.53800566,5.06988915 5.67145193,5.2014559 C5.8048982,5.33302264 5.88001912,5.51260279 5.88,5.7 L5.88,12.3 C5.83740005,12.6570549 5.53458719,12.925887 5.175,12.925887 C4.81541281,12.925887 4.51259995,12.6570549 4.47,12.3 L4.47,5.7 C4.47,5.31340068 4.78340068,5 5.17,5 Z M8.12,5.7 C8.16259995,5.34294512 8.46541281,5.07411302 8.825,5.07411302 C9.18458719,5.07411302 9.48740005,5.34294512 9.53,5.7 L9.53,12.3 C9.48740005,12.6570549 9.18458719,12.925887 8.825,12.925887 C8.46541281,12.925887 8.16259995,12.6570549 8.12,12.3 L8.12,5.7 Z M13.3,2 C13.6865993,2.00000001 14,2.31340068 14,2.7 C14,3.08659932 13.6865993,3.39999999 13.3,3.4 L13,3.4 L13,13.33 C13.0000103,14.8007039 11.8106935,15.9944917 10.34,16 L3.66,16 C2.18930646,15.9944917 0.999989685,14.8007039 1,13.33 L1,3.4 L0.7,3.4 C0.313400681,3.39999999 1.4751401e-08,3.08659932 1.4751401e-08,2.7 C1.4751401e-08,2.31340068 0.313400681,2.00000001 0.7,2 L4.3,2 L4.3,1.7 C4.3,0.761115925 5.06111593,-5.74900688e-17 6,0 L8,0 C8.92714765,0.0163639661 9.6701444,0.77270796 9.67,1.7 L9.67,2 L13.3,2 Z M5.73,1.7 L5.73,2 L8.3,2 L8.3,1.7 C8.3028236,1.61960266 8.2721242,1.5416449 8.21523965,1.48476035 C8.1583551,1.4278758 8.08039734,1.3971764 8,1.4 L6,1.4 C5.84376063,1.41069417 5.72423426,1.54350124 5.73,1.7 Z M11.6,13.33 L11.6,3.4 L2.4,3.4 L2.4,13.33 C2.39997838,14.0275149 2.96250675,14.5945078 3.66,14.6 L10.34,14.6 C11.0374933,14.5945078 11.6000216,14.0275149 11.6,13.33 Z" id="Combined-Shape"></path>
                </g>
            </g>
        </g>
    </g>
</svg>