<svg viewBox="0 0 15 14"><path d="M13.4 0a.7.7 0 0 1 .7.7v2.24a.7.7 0 0 1-.7.7H.8a.7.7 0 0 1-.7-.7V.7A.7.7 0 0 1 .8 0h12.6zm-.7 2.24V1.4H1.5v.84h11.2zm.7 2.94a.7.7 0 0 1 .7.7v2.24a.7.7 0 0 1-.7.7H5.63a.7.7 0 0 1-.7-.7V5.88a.7.7 0 0 1 .7-.7h7.77zm-.7 2.24v-.84H6.33v.84h6.37zM1.91 5.18a1.82 1.82 0 1 1 0 3.64 1.82 1.82 0 0 1 0-3.64zm0 2.24h.02A.41.41 0 0 0 2.34 7a.42.42 0 1 0-.43.42zm0 2.94a1.82 1.82 0 1 1 0 3.64 1.82 1.82 0 0 1 0-3.64zm0 2.24h.02a.42.42 0 1 0-.02 0zm11.49-2.24a.7.7 0 0 1 .7.7v2.24a.7.7 0 0 1-.7.7H5.63a.7.7 0 0 1-.7-.7v-2.24a.7.7 0 0 1 .7-.7h7.77zm-.7 2.24v-.84H6.33v.84h6.37z" fill="currentColor" fill-rule="evenodd"/></svg>