<?xml version="1.0" encoding="UTF-8"?>
<svg width="14px" height="14px" viewBox="0 0 14 14" version="1.1" xmlns="http://www.w3.org/2000/svg" xmlns:xlink="http://www.w3.org/1999/xlink">
    <!-- Generator: Sketch 52.6 (67491) - http://www.bohemiancoding.com/sketch -->
    <title>icon/enlarge</title>
    <desc>Created with Sketch.</desc>
    <g id="Icons-✅" stroke="none" stroke-width="1" fill="none" fill-rule="evenodd">
        <g id="Icons" transform="translate(-328.000000, -2125.000000)" fill="currentColor">
            <g id="icon/enlarge" transform="translate(328.000000, 2125.000000)">
                <g id="enlarge" transform="translate(-1.000000, 0.000000)">
                    <path d="M14.3,-1.55431223e-15 C14.6865993,-1.77635684e-15 15,0.313400675 15,0.7 L15,4.15 C15,4.53659932 14.6865993,4.85 14.3,4.85 C13.9134007,4.85 13.6,4.53659932 13.6,4.15 L13.6,2.39 L10,6 C9.86934812,6.13472156 9.68752141,6.20745225 9.5,6.2 C9.31312377,6.203808 9.13269796,6.13163767 9,6 C8.72544444,5.72320224 8.72544444,5.27679776 9,5 L12.61,1.4 L10.85,1.4 C10.4634007,1.39999999 10.15,1.08659932 10.15,0.7 C10.15,0.313400679 10.4634007,5.76077719e-09 10.85,-1.55431223e-15 L14.3,-1.55431223e-15 Z M6,8 C6.17863279,7.82136719 6.43899577,7.75160314 6.68301271,7.81698728 C6.92702966,7.88237142 7.11762858,8.07297034 7.18301272,8.31698729 C7.24839686,8.56100423 7.17863281,8.82136721 7,9 L3.39,12.55 L5.15,12.55 C5.53659932,12.55 5.85,12.8634007 5.85,13.25 C5.85,13.6365993 5.53659932,13.95 5.15,13.95 L1.65,13.95 C1.59681523,13.9556297 1.54318477,13.9556297 1.49,13.95 L1.39,13.95 C1.21074812,13.8809237 1.06907633,13.7392519 1,13.56 C1,13.53 1,13.46 1,13.46 C0.995249858,13.4067724 0.995249858,13.3532276 1,13.3 L1,9.85 C1.00000001,9.46340068 1.31340068,9.15000001 1.7,9.15000001 C2.08659932,9.15000001 2.39999999,9.46340068 2.4,9.85 L2.4,11.61 L6,8 Z" id="Combined-Shape"></path>
                </g>
            </g>
        </g>
    </g>
</svg>