<?xml version="1.0" encoding="UTF-8"?>
<svg width="16px" height="16px" viewBox="0 0 16 16" version="1.1" xmlns="http://www.w3.org/2000/svg" xmlns:xlink="http://www.w3.org/1999/xlink">
    <!-- Generator: Sketch 52.6 (67491) - http://www.bohemiancoding.com/sketch -->
    <title>icon/explore</title>
    <desc>Created with Sketch.</desc>
    <g id="Icons-✅" stroke="none" stroke-width="1" fill="none" fill-rule="evenodd">
        <g id="Icons" transform="translate(-162.000000, -2124.000000)" fill="currentColor">
            <g id="icon/explore" transform="translate(162.000000, 2124.000000)">
                <g id="explore" transform="translate(0.000000, -1.000000)">
                    <path d="M12.16,1.76 L14.87,6.41 C15.2924881,7.14177857 15.0417695,8.07749622 14.31,8.5 L13.15,9.17 C12.9191293,9.30347741 12.6566665,9.37254658 12.39,9.37 C12.0222738,9.37519456 11.6657855,9.2432939 11.39,9 L8.5,10.25 L8.5,12.19 L11.16,15.86 C11.2817171,16.010102 11.3338195,16.2049028 11.3032877,16.395726 C11.272756,16.5865493 11.1624745,16.7553686 11,16.86 C10.8477083,16.9757768 10.6546678,17.024181 10.4657669,16.9939568 C10.276866,16.9637327 10.1085652,16.8575139 10,16.7 L8.5,14.59 L8.5,16.3 C8.5,16.6865993 8.18659932,17 7.8,17 C7.41340068,17 7.1,16.6865993 7.1,16.3 L7.1,14.59 L5.57,16.71 C5.43784334,16.8928831 5.22563445,17.0008491 5,17 C4.73841965,16.997259 4.50019523,16.8488931 4.38236563,16.6153381 C4.26453604,16.381783 4.28676588,16.1020167 4.44,15.89 L7.1,12.19 L7.1,10.85 L4.58,11.93 C4.37070061,12.0163506 4.14641197,12.0605287 3.92,12.06 C3.33627725,12.0615778 2.79409407,11.7582585 2.49,11.26 L1.13,12.04 C1.0254717,12.1065076 0.903886549,12.1412463 0.78,12.14 C0.460513,12.143054 0.179500453,11.9293916 0.0970301765,11.6207171 C0.0145599002,11.3120427 0.151562583,10.9866968 0.43,10.83 L1.79,10.05 C1.39143872,9.31922124 1.59189384,8.40651067 2.26,7.91 L8.18,3.47 C8.06640693,2.83943054 8.35774752,2.20486679 8.91,1.88 L10.08,1.2 C10.8095364,0.784289179 11.7377923,1.03420423 12.16,1.76 Z M4,10.64 L7.53,9.14 L10.59,7.83 L8.81,4.75 L3.1,9 C3.03116961,9.03744844 2.98118052,9.10202534 2.96217586,9.17804397 C2.94317121,9.25406259 2.9568901,9.33456649 3,9.4 L3.34,10 L3.64,10.52 C3.71046554,10.6476151 3.86705849,10.6998128 4,10.64 Z M13.56,7.29 L13.59,7.29 C13.6248367,7.24719209 13.6288459,7.18705341 13.6,7.14 L10.91,2.48 C10.8860268,2.44248323 10.8445219,2.41984418 10.8,2.42 L10.74,2.42 L9.57,3.09 C9.54740546,3.11251622 9.53470537,3.14310182 9.53470537,3.175 C9.53470537,3.20689818 9.54740546,3.23748378 9.57,3.26 L9.63,3.37 L12.2,7.9 L12.25,8 C12.3020493,8.0436826 12.3779507,8.0436826 12.43,8 L13.56,7.29 Z M15.64,2.9 C16.0504207,3.54040501 16.0620479,4.35818548 15.67,5.01 C15.5546967,5.24033867 15.3175525,5.38418028 15.06,5.38 C14.9446987,5.38456196 14.8304121,5.35685612 14.73,5.3 C14.5534299,5.21131376 14.4218037,5.05305899 14.3667698,4.86328677 C14.3117358,4.67351454 14.3382728,4.46939245 14.44,4.3 C14.562028,4.0969919 14.5659143,3.84416006 14.4501832,3.63749741 C14.3344521,3.43083477 14.1168523,3.30203513 13.88,3.3 C13.6943231,3.29477079 13.5183377,3.215957 13.390797,3.08091391 C13.2632563,2.94587082 13.1946192,2.7656726 13.2,2.58 C13.2025271,2.39342372 13.2805106,2.2158251 13.4161665,2.08770569 C13.5518223,1.95958627 13.7335838,1.89187013 13.92,1.9 C14.6264405,1.91789027 15.2749445,2.2949275 15.64,2.9 Z" id="Combined-Shape"></path>
                </g>
            </g>
        </g>
    </g>
</svg>