<?xml version="1.0" encoding="UTF-8"?>
<svg width="16px" height="16px" viewBox="0 0 16 16" version="1.1" xmlns="http://www.w3.org/2000/svg" xmlns:xlink="http://www.w3.org/1999/xlink">
    <!-- Generator: Sketch 52.6 (67491) - http://www.bohemiancoding.com/sketch -->
    <title>icon/feed-subscribe</title>
    <desc>Created with Sketch.</desc>
    <g id="Icons-✅" stroke="none" stroke-width="1" fill="none" fill-rule="evenodd">
        <g id="Icons" transform="translate(-818.000000, -1992.000000)" fill="currentColor">
            <g id="icon/feed-subscribe" transform="translate(818.000000, 1992.000000)">
                <g id="feed-subscribe" transform="translate(-1.000000, -1.000000)">
                    <path d="M4,17 C2.78743338,16.9989335 1.69473697,16.2680198 1.2308521,15.1476941 C0.766967219,14.0273683 1.02311879,12.7379473 1.88,11.88 C2.62788232,11.0773873 3.75422217,10.7470033 4.81715563,11.0184578 C5.8800891,11.2899124 6.71008761,12.1199109 6.98154217,13.1828444 C7.25299673,14.2457778 6.92261271,15.3721177 6.12,16.12 C5.55793057,16.6827699 4.7953814,16.9992998 4,17 Z M4,12.4 C3.27525301,12.3987599 2.64018192,12.8848328 2.45208691,13.5847471 C2.26399189,14.2846614 2.56985315,15.0236005 3.19758872,15.3858267 C3.82532428,15.7480529 4.61814563,15.6430934 5.13,15.13 C5.58644282,14.6724523 5.72279755,13.985231 5.47562325,13.3880754 C5.22844894,12.7909197 4.64628844,12.4011058 4,12.4 Z M11,17 C10.9273625,17.0142863 10.8526375,17.0142863 10.78,17 C10.413159,16.8807561 10.2119171,16.4872163 10.33,16.12 C11.1462099,13.7463838 10.5431553,11.1152036 8.77467631,9.33398646 C7.00619731,7.55276932 4.37941294,6.93084638 2,7.73 C1.76420471,7.81395742 1.50153012,7.76574198 1.31092322,7.60351598 C1.12031632,7.44128997 1.03073483,7.18969939 1.07592322,6.94351597 C1.12111161,6.69733255 1.29420471,6.49395741 1.53,6.41 C4.39754264,5.47406076 7.54774748,6.23061779 9.6775061,8.36671498 C11.8072647,10.5028122 12.5544568,13.6552514 11.61,16.52 C11.5221179,16.7884071 11.2815471,16.9777088 11,17 Z M16.09,17 L16,17 C15.8167237,16.9660503 15.6545559,16.8604067 15.5494367,16.7064822 C15.4443176,16.5525577 15.4049288,16.3630651 15.44,16.18 C16.1479814,12.3986444 14.9385509,8.51199146 12.21,5.8 C9.4986576,3.07189794 5.60549273,1.87544361 1.83,2.61 C1.4495999,2.68388812 1.08021661,2.43911606 1,2.06 C0.9651274,1.87547265 1.00586139,1.68467184 1.11304854,1.53047277 C1.2202357,1.3762737 1.3848858,1.27160969 1.57,1.24 C5.80275093,0.410835535 10.1699775,1.75026842 13.21,4.81 C16.245567,7.8560941 17.5783203,12.2062606 16.77,16.43 C16.7117432,16.7598723 16.4249769,17.00025 16.09,17 Z" id="Combined-Shape"></path>
                </g>
            </g>
        </g>
    </g>
</svg>