<?xml version="1.0" encoding="UTF-8"?>
<svg width="16px" height="17px" viewBox="0 0 16 17" version="1.1" xmlns="http://www.w3.org/2000/svg" xmlns:xlink="http://www.w3.org/1999/xlink">
    <!-- Generator: Sketch 52.6 (67491) - http://www.bohemiancoding.com/sketch -->
    <title>icon/font-size</title>
    <desc>Created with Sketch.</desc>
    <g id="Icons-✅" stroke="none" stroke-width="1" fill="none" fill-rule="evenodd">
        <g id="Icons" transform="translate(-491.000000, -1992.000000)" fill="currentColor">
            <g id="icon/font-size" transform="translate(491.000000, 1992.000000)">
                <g id="font-size" transform="translate(-1.000000, -1.000000)">
                    <path d="M16.3,3 C16.6865993,3 17,3.31340068 17,3.7 L17,6.09 C17,6.27565154 16.9262502,6.45369928 16.7949747,6.58497475 C16.6636993,6.71625021 16.4856515,6.79 16.3,6.79 L13.89,6.79 L13.89,14.3 C13.89,14.6865993 13.5765993,15 13.19,15 L10.81,15 C10.4234007,15 10.11,14.6865993 10.11,14.3 L10.11,6.79 L7.7,6.79 C7.51434846,6.79 7.33630072,6.71625021 7.20502525,6.58497475 C7.07374979,6.45369928 7,6.27565154 7,6.09 L7,3.7 C7,3.31340068 7.31340068,3 7.7,3 L16.3,3 Z M15.6,5.39 L15.6,4.39 L8.4,4.39 L8.4,5.39 L10.79,5.39 C11.1765993,5.39 11.49,5.70340068 11.49,6.09 L11.49,13.6 L12.49,13.6 L12.49,6.09 C12.49,5.70340068 12.8034007,5.39 13.19,5.39 L15.6,5.39 Z M5.15,4.16 L4.43,3.38 L4.43,14.62 L5.21,13.84 C5.34025306,13.7030356 5.52098915,13.6254997 5.71,13.6254997 C5.89901085,13.6254997 6.07974694,13.7030356 6.21,13.84 C6.48455556,14.1167978 6.48455556,14.5632022 6.21,14.84 L4.21,16.84 C4.07832072,16.9743397 3.89811326,17.0500269 3.71,17.05 C3.52465043,17.0507911 3.3472544,16.9747643 3.22,16.84 L1.22,14.84 C0.945444435,14.5632022 0.945444435,14.1167978 1.22,13.84 C1.35025306,13.7030356 1.53098915,13.6254997 1.72,13.6254997 C1.90901085,13.6254997 2.08974694,13.7030356 2.22,13.84 L3,14.62 L3,3.38 L2.18,4.2 C2.04974694,4.33696438 1.86901085,4.41450026 1.68,4.41450026 C1.49098915,4.41450026 1.31025306,4.33696438 1.18,4.2 C0.905444435,3.92320224 0.905444435,3.47679776 1.18,3.2 L3.18,1.2 C3.23966313,1.13242029 3.31529569,1.08085264 3.4,1.05 C3.57318352,0.979943818 3.76681648,0.979943818 3.94,1.05 C4.01693559,1.07154394 4.08848277,1.10902103 4.15,1.16 L6.15,3.16 C6.42614237,3.43614238 6.42614236,3.88385762 6.14999999,4.15999999 C5.87385762,4.43614236 5.42614238,4.43614237 5.15,4.16 Z" id="Combined-Shape"></path>
                </g>
            </g>
        </g>
    </g>
</svg>