<svg viewBox="0 0 14 14"><path d="M11.3 0H2.7A2.7 2.7 0 0 0 0 2.7v8.6A2.7 2.7 0 0 0 2.7 14h8.6a2.7 2.7 0 0 0 2.7-2.7V2.7A2.7 2.7 0 0 0 11.3 0zM5.6 8.4V5.6h2.8v2.8H5.6zm2.8 1.4v2.8H5.6V9.8h2.8zm-7-4.2h2.8v2.8H1.4V5.6zm4.2-1.4V1.4h2.8v2.8H5.6zm4.2 1.4h2.8v2.8H9.8V5.6zm2.8-2.9v1.5H9.8V1.4h1.5a1.3 1.3 0 0 1 1.3 1.3zM2.7 1.4h1.5v2.8H1.4V2.7a1.3 1.3 0 0 1 1.3-1.3zm-1.3 9.9V9.8h2.8v2.8H2.7a1.3 1.3 0 0 1-1.3-1.3zm9.9 1.3H9.8V9.8h2.8v1.5a1.3 1.3 0 0 1-1.3 1.3z" fill="currentColor" fill-rule="evenodd"/></svg>