<svg viewBox="0 0 16 16"><path d="M6.09 6.25a3.13 3.13 0 1 1 0-6.26 3.13 3.13 0 0 1 0 6.26zm0-4.85a1.73 1.73 0 1 0 0 3.46 1.73 1.73 0 0 0 0-3.46zM6.24 16H.71a.69.69 0 0 1-.54-.25.72.72 0 0 1-.17-.57L.88 10a3.08 3.08 0 0 1 3.05-2.58h4.32a.7.7 0 0 1 .7.66.69.69 0 0 1-.62.73h-4.4a1.69 1.69 0 0 0-1.67 1.41l-.73 4.38h4.71a.7.7 0 0 1 0 1.4zm5.88-6.31a2.13 2.13 0 1 1 2.13-2.13 2.12 2.12 0 0 1-2.13 2.13zm0-2.86a.73.73 0 1 0 0 1.46.73.73 0 0 0 0-1.46zM15.3 16H9a.69.69 0 0 1-.53-.25.72.72 0 0 1-.16-.57l.51-3a2.1 2.1 0 0 1 2.08-1.76h2.5a2.1 2.1 0 0 1 2.08 1.76l.51 3a.72.72 0 0 1-.16.57.69.69 0 0 1-.53.25zm-5.52-1.4h4.69l-.37-2.24a.71.71 0 0 0-.7-.59h-2.55a.71.71 0 0 0-.7.59l-.37 2.24z" fill="currentColor" fill-rule="evenodd"/></svg>