<?xml version="1.0" encoding="UTF-8"?>
<svg width="16px" height="16px" viewBox="0 0 16 16" version="1.1" xmlns="http://www.w3.org/2000/svg" xmlns:xlink="http://www.w3.org/1999/xlink">
    <!-- Generator: Sketch 52.6 (67491) - http://www.bohemiancoding.com/sketch -->
    <title>icon/help</title>
    <desc>Created with Sketch.</desc>
    <g id="Icons-✅" stroke="none" stroke-width="1" fill="none" fill-rule="evenodd">
        <g id="Icons" transform="translate(-572.000000, -1860.000000)" fill="currentColor">
            <g id="icon/help" transform="translate(572.000000, 1860.000000)">
                <g id="help">
                    <path d="M8,0 C10.1217319,1.2991861e-16 12.1565632,0.842854723 13.6568542,2.34314575 C15.1571453,3.84343678 16,5.87826808 16,8 C16,12.418278 12.418278,16 8,16 C3.581722,16 -5.41083001e-16,12.418278 0,8 C5.41083001e-16,3.581722 3.581722,-2.705415e-16 8,0 Z M8,14.6 C11.6427959,14.5944931 14.5944931,11.6427959 14.6,8 C14.6,4.35492065 11.6450793,1.4 8,1.4 C4.35492065,1.4 1.4,4.35492065 1.4,8 C1.4,11.6450793 4.35492065,14.6 8,14.6 Z M8,3.4 C9.3430399,3.39359784 10.4818028,4.38581878 10.659306,5.71709253 C10.8368092,7.04836628 9.9977989,8.30429031 8.7,8.65 L8.7,9 C8.7,9.38659932 8.38659932,9.7 8,9.7 C7.61340068,9.7 7.3,9.38659932 7.3,9 L7.3,8.04 C7.3,7.65340068 7.61340068,7.34 8,7.34 C8.70140163,7.34 9.27,6.77140163 9.27,6.07 C9.27,5.36859837 8.70140163,4.8 8,4.8 C7.29859837,4.8 6.73,5.36859837 6.73,6.07 C6.73,6.45659932 6.41659932,6.77 6.03,6.77 C5.64340068,6.77 5.33,6.45659932 5.33,6.07 C5.33548357,4.59767707 6.52767707,3.40548357 8,3.4 Z M8,10.5 C8.27411126,10.4996571 8.53634636,10.6118495 8.72538875,10.810344 C8.91443115,11.0088386 9.01370579,11.2762314 9,11.55 C8.99951319,11.9791324 8.73793784,12.3647806 8.33940786,12.5239304 C7.94087788,12.6830803 7.48560939,12.583698 7.18965585,12.2729468 C6.89370231,11.9621956 6.81663325,11.5026234 6.99502278,11.1123261 C7.17341231,10.7220288 7.57135417,10.4795654 8,10.5 Z" id="Combined-Shape"></path>
                </g>
            </g>
        </g>
    </g>
</svg>