<?xml version="1.0" encoding="UTF-8"?>
<svg width="16px" height="16px" viewBox="0 0 16 16" version="1.1" xmlns="http://www.w3.org/2000/svg" xmlns:xlink="http://www.w3.org/1999/xlink">
    <!-- Generator: Sketch 52.6 (67491) - http://www.bohemiancoding.com/sketch -->
    <title>icon/hidden</title>
    <desc>Created with Sketch.</desc>
    <g id="Icons-✅" stroke="none" stroke-width="1" fill="none" fill-rule="evenodd">
        <g id="Icons" transform="translate(-490.000000, -1860.000000)" fill="currentColor">
            <g id="icon/hidden" transform="translate(490.000000, 1860.000000)">
                <g id="hidden" transform="translate(-1.000000, 0.000000)">
                    <path d="M3.12,10.91 C2.2830787,10.1827286 1.59096186,9.30401165 1.08,8.32 C0.969646383,8.12093767 0.969646383,7.87906233 1.08,7.68 C2.60412872,4.71103538 5.6626805,2.84578221 9,2.85 C9.65346239,2.85932682 10.303965,2.93980138 10.94,3.09 L9.72,4.25 C9.48,4.25 9.24,4.25 9,4.25 C6.31934192,4.2503432 3.84211376,5.6795133 2.5,8 C2.92881873,8.72318746 3.47649398,9.36890333 4.12,9.91 L3.12,10.91 Z M13.76,4.24 C15.1008232,5.08486741 16.1917308,6.27243768 16.92,7.68 C17.0303536,7.87906233 17.0303536,8.12093767 16.92,8.32 C15.3958713,11.2889646 12.3373195,13.1542178 9,13.15 C7.8162629,13.1468013 6.64565956,12.9017913 5.56,12.43 L2.2,15.79 C2.06832072,15.9243397 1.88811326,16.0000269 1.7,16 C1.52629115,15.9773908 1.3683454,15.8876489 1.26,15.75 C1.12303562,15.6197469 1.04549974,15.4390108 1.04549974,15.25 C1.04549974,15.0609892 1.12303562,14.8802531 1.26,14.75 L4.26,11.75 L5.26,10.75 L6.6,9.41 L7.65,8.36 L9.36,6.65 L10.41,5.61 L11.36,4.66 L12.45,3.56 L15.76,0.24 C15.8902531,0.103035618 16.0709892,0.0254997371 16.26,0.0254997371 C16.4490108,0.0254997371 16.6297469,0.103035618 16.76,0.24 C16.8969644,0.370253055 16.9745003,0.550989153 16.9745003,0.74 C16.9745003,0.929010847 16.8969644,1.10974694 16.76,1.24 L13.76,4.24 Z M10.4,8 C10.3954982,7.88120037 10.3753238,7.76351585 10.34,7.65 L8.65,9.34 C8.76351585,9.37532376 8.88120037,9.39549825 9,9.4 C9.77319865,9.4 10.4,8.77319865 10.4,8 Z M9,11.75 C11.6806581,11.7496568 14.1578862,10.3204867 15.5,8 C14.8326845,6.85890269 13.8730194,5.91649771 12.72,5.27 L11.41,6.58 C11.6666706,7.0090784 11.8015051,7.5000142 11.8,8 C11.7945146,9.54411947 10.5441195,10.7945146 9,10.8 C8.5000142,10.8015051 8.0090784,10.6666706 7.58,10.41 L6.64,11.35 C7.39996478,11.6096644 8.19691567,11.7447409 9,11.75 Z M8.81,5.22 C7.42148444,5.31643046 6.31643046,6.42148444 6.22,7.81 L8.81,5.22 Z" id="Combined-Shape"></path>
                </g>
            </g>
        </g>
    </g>
</svg>