<?xml version="1.0" encoding="UTF-8"?>
<svg width="8px" height="8px" viewBox="0 0 8 8" version="1.1" xmlns="http://www.w3.org/2000/svg" xmlns:xlink="http://www.w3.org/1999/xlink">
    <!-- Generator: Sketch 52.6 (67491) - http://www.bohemiancoding.com/sketch -->
    <title>icon/loading</title>
    <desc>Created with Sketch.</desc>
    <g id="Icons-✅" stroke="none" stroke-width="1" fill="none" fill-rule="evenodd">
        <g id="Icons" transform="translate(-248.000000, -1732.000000)" fill="currentColor">
            <g id="icon/loading" transform="translate(248.000000, 1732.000000)">
                <g id="loading">
                    <path d="M4,8 C1.790861,8 0,6.209139 0,4 C-4.4408921e-16,1.790861 1.790861,0 4,0 C6.209139,-4.4408921e-16 8,1.790861 8,4 C7.99999998,4.38659931 7.68659931,4.69999997 7.3,4.69999997 C6.91340069,4.69999997 6.60000002,4.38659931 6.6,4 C6.6,2.56405965 5.43594035,1.4 4,1.4 C2.56405965,1.4 1.4,2.56405965 1.4,4 C1.4,5.43594035 2.56405965,6.6 4,6.6 C4.25008592,6.59999999 4.48117484,6.73341923 4.60621781,6.94999999 C4.73126077,7.16658075 4.73126077,7.43341925 4.60621781,7.65000001 C4.48117484,7.86658077 4.25008592,8.00000001 4,8 Z" id="Path"></path>
                </g>
            </g>
        </g>
    </g>
</svg>