<svg viewBox="0 0 16 16"><path d="M12.47 16a11.9 11.9 0 0 1-3-.38A12.08 12.08 0 0 1 .71 6.1 11.59 11.59 0 0 1 .5 3.86a12.19 12.19 0 0 1 .3-2.72A1.49 1.49 0 0 1 2.24 0H4.7A2.27 2.27 0 0 1 7 2.28v1.58a.7.7 0 0 1-.42.64l-1.72.75a7.81 7.81 0 0 0 5.46 6.27.09.09 0 0 0 .11 0l.67-1.58a.7.7 0 0 1 .64-.43h1.56a2.27 2.27 0 0 1 2.25 2.28v2.64a1.48 1.48 0 0 1-1.24 1.47 12.1 12.1 0 0 1-1.84.1zM2.24 1.4a8.3 8.3 0 0 0-.34 2.46c-.004.67.057 1.34.18 2a10.71 10.71 0 0 0 7.77 8.43c1.372.35 2.8.42 4.2.21v-2.75a.86.86 0 0 0-.85-.88h-1.04L11.67 12a1.47 1.47 0 0 1-1.79.84 9.35 9.35 0 0 1-6.5-7.29A1.49 1.49 0 0 1 4.25 4l1.3-.56V2.28a.86.86 0 0 0-.85-.88H2.24z" fill="currentColor" fill-rule="evenodd"/></svg>