<?xml version="1.0" encoding="UTF-8"?>
<svg width="16px" height="16px" viewBox="0 0 16 16" version="1.1" xmlns="http://www.w3.org/2000/svg" xmlns:xlink="http://www.w3.org/1999/xlink">
    <!-- Generator: Sketch 52.6 (67491) - http://www.bohemiancoding.com/sketch -->
    <title>icon/play</title>
    <desc>Created with Sketch.</desc>
    <g id="Icons-✅" stroke="none" stroke-width="1" fill="none" fill-rule="evenodd">
        <g id="Icons" transform="translate(-818.000000, -1332.000000)" fill="currentColor">
            <g id="icon/play" transform="translate(818.000000, 1332.000000)">
                <g id="play">
                    <path d="M8,16 C3.581722,16 5.41083001e-16,12.418278 0,8 C-5.41083001e-16,3.581722 3.581722,8.11624501e-16 8,0 C12.418278,-8.11624501e-16 16,3.581722 16,8 C16,10.1217319 15.1571453,12.1565632 13.6568542,13.6568542 C12.1565632,15.1571453 10.1217319,16 8,16 Z M8,1.4 C4.35492065,1.4 1.4,4.35492065 1.4,8 C1.4,11.6450793 4.35492065,14.6 8,14.6 C11.6450793,14.6 14.6,11.6450793 14.6,8 C14.5944931,4.35720411 11.6427959,1.40550688 8,1.4 Z M6.35,11.56 C6.22611345,11.5612463 6.1045283,11.5265076 6,11.46 C5.78227792,11.3391673 5.64801188,11.108997 5.65,10.86 L5.65,5.14 C5.66075396,4.90577739 5.78806051,4.69249402 5.98911632,4.57186053 C6.19017213,4.45122705 6.4382723,4.43926639 6.65,4.54 L11.65,7.39 C11.8649748,7.51803972 11.996682,7.74978341 11.996682,8 C11.996682,8.25021659 11.8649748,8.48196028 11.65,8.61 L6.7,11.46 C6.5954717,11.5265076 6.47388655,11.5612463 6.35,11.56 Z M7.05,6.35 L7.05,9.65 L9.9,8 L7.05,6.35 Z" id="Combined-Shape"></path>
                </g>
            </g>
        </g>
    </g>
</svg>