<svg width="16" height="16" viewBox="0 0 16 16" fill="none" xmlns="http://www.w3.org/2000/svg">
    <path d="M8 0C12.4183 0 16 3.58172 16 8C16 12.4183 12.4183 16 8 16C3.58172 16 0 12.4183 0 8C0 3.58172 3.58172 0 8 0ZM8.77167 8.77167H12.0283C12.4545 8.77167 12.8 8.42618 12.8 8C12.8 7.57382 12.4545 7.22833 12.0283 7.22833H8.77167V3.97167C8.77167 3.54549 8.42618 3.2 8 3.2C7.57382 3.2 7.22833 3.54549 7.22833 3.97167V7.22833H3.97167C3.54549 7.22833 3.2 7.57382 3.2 8C3.2 8.42618 3.54549 8.77167 3.97167 8.77167H7.22833V12.0283C7.22833 12.4545 7.57382 12.8 8 12.8C8.42618 12.8 8.77167 12.4545 8.77167 12.0283V8.77167Z" fill="currentColor"/>
</svg>
