<?xml version="1.0" encoding="UTF-8"?>
<svg width="14px" height="14px" viewBox="0 0 14 14" version="1.1" xmlns="http://www.w3.org/2000/svg" xmlns:xlink="http://www.w3.org/1999/xlink">
    <!-- Generator: Sketch 52.6 (67491) - http://www.bohemiancoding.com/sketch -->
    <title>icon/reply</title>
    <desc>Created with Sketch.</desc>
    <g id="Icons-✅" stroke="none" stroke-width="1" fill="none" fill-rule="evenodd">
        <g id="Icons" transform="translate(-81.000000, -1333.000000)" fill="currentColor">
            <g id="icon/reply" transform="translate(81.000000, 1333.000000)">
                <g id="reply" transform="translate(-1.000000, -1.000000)">
                    <path d="M10.85,5 L3.39,5 L6.17,2.2 C6.44614237,1.92385763 6.44614237,1.47614237 6.17,1.2 C5.89385763,0.923857625 5.44614237,0.923857625 5.17,1.2 L1.17,5.2 C1.10459083,5.26751891 1.05055696,5.34519259 1.01,5.43 C0.939943818,5.60318352 0.939943818,5.79681648 1.01,5.97 C1.05055696,6.05480741 1.10459083,6.13248109 1.17,6.2 L5.17,10.2 C5.44614237,10.4761424 5.89385763,10.4761424 6.17,10.2 C6.44614237,9.92385763 6.44614237,9.47614237 6.17,9.2 L3.39,6.37 L10.85,6.37 C12.3687831,6.37 13.6,7.60121694 13.6,9.12 L13.6,14.3 C13.6,14.6865993 13.9134007,15 14.3,15 C14.6865993,15 15,14.6865993 15,14.3 L15,9.12 C14.9835158,6.83974267 13.1303169,4.99994042 10.85,5 Z" id="Path"></path>
                </g>
            </g>
        </g>
    </g>
</svg>