<?xml version="1.0" encoding="UTF-8"?>
<svg width="14px" height="14px" viewBox="0 0 14 14" version="1.1" xmlns="http://www.w3.org/2000/svg" xmlns:xlink="http://www.w3.org/1999/xlink">
    <!-- Generator: Sketch 52.6 (67491) - http://www.bohemiancoding.com/sketch -->
    <title>icon/share</title>
    <desc>Created with Sketch.</desc>
    <g id="Icons-✅" stroke="none" stroke-width="1" fill="none" fill-rule="evenodd">
        <g id="Icons" transform="translate(-656.000000, -1200.000000)" fill="currentColor">
            <g id="icon/share" transform="translate(656.000000, 1200.000000)">
                <g id="share" transform="translate(-1.000000, 0.000000)">
                    <path d="M12.58,9.16 C11.9172039,9.16299415 11.2846431,9.43770626 10.83,9.92 L5.83,7.41 C5.83984316,7.27351057 5.83984316,7.13648943 5.83,7 C5.83984316,6.86351057 5.83984316,6.72648943 5.83,6.59 L10.83,4.08 C11.629343,4.9140938 12.908143,5.06362014 13.8783492,4.43643454 C14.8485553,3.80924894 15.2372155,2.58179999 14.8048209,1.51049397 C14.3724263,0.439187948 13.2406242,-0.174580391 12.1068791,0.0474191228 C10.973134,0.269418636 10.156407,1.26473 10.16,2.42 C10.1496485,2.55313242 10.1496485,2.68686758 10.16,2.82 L5.16,5.34 C4.47967325,4.61831723 3.42786411,4.38480543 2.50606243,4.75080021 C1.58426075,5.11679498 0.979091144,6.00819835 0.979091144,7 C0.979091144,7.99180165 1.58426075,8.88320502 2.50606243,9.24919979 C3.42786411,9.61519457 4.47967325,9.38168277 5.16,8.66 L10.16,11.18 C10.1496485,11.3131324 10.1496485,11.4468676 10.16,11.58 C10.16,12.9165291 11.2434709,14 12.58,14 C13.9165291,14 15,12.9165291 15,11.58 C15,10.2434709 13.9165291,9.16 12.58,9.16 Z M12.58,1.4 C13.1322847,1.4 13.58,1.84771525 13.58,2.4 C13.58,2.95228475 13.1322847,3.4 12.58,3.4 C12.0277153,3.4 11.58,2.95228475 11.58,2.4 C11.58,1.84771525 12.0277153,1.4 12.58,1.4 Z M3.42,8 C2.86771525,8 2.42,7.55228475 2.42,7 C2.42,6.44771525 2.86771525,6 3.42,6 C3.97228475,6 4.42,6.44771525 4.42,7 C4.42,7.55228475 3.97228475,8 3.42,8 Z M12.58,12.58 C12.0277153,12.58 11.58,12.1322847 11.58,11.58 C11.58,11.0277153 12.0277153,10.58 12.58,10.58 C13.1322847,10.58 13.58,11.0277153 13.58,11.58 C13.5853744,11.8486646 13.4823949,12.1081869 13.2942729,12.3000714 C13.1061508,12.4919559 12.8487184,12.6000537 12.58,12.6 L12.58,12.58 Z" id="Shape"></path>
                </g>
            </g>
        </g>
    </g>
</svg>