<svg viewBox="0 0 16 17"><path d="M15.72 5.89a8 8 0 0 1 .25 2.42.7.7 0 0 1-.7.68.72.72 0 0 1-.68-.73 6.5 6.5 0 0 0-.22-2 .7.7 0 1 1 1.35-.37zM12.6 3.28a5.26 5.26 0 0 0-.86-.74.7.7 0 0 1 .78-1.16c.38.253.734.54 1.06.86a7 7 0 0 1 .69.76.7.7 0 0 1-.11 1 .66.66 0 0 1-.44.18.73.73 0 0 1-.55-.27 5.59 5.59 0 0 0-.57-.63zM7.37 1.43A.69.69 0 0 1 6.6.8a.71.71 0 0 1 .64-.8 8.11 8.11 0 0 1 2.55.2.68.68 0 0 1 .53.8.69.69 0 0 1-.68.56h-.15a7.19 7.19 0 0 0-2.12-.13zm7.3 9.57a.69.69 0 0 1 .26 1.08 7.59 7.59 0 0 1-1.4 1.8A8 8 0 0 1 1.36 3.68a6.56 6.56 0 0 1 .86-1H.92a.7.7 0 1 1 0-1.4h3.31a.58.58 0 0 1 .14 0h.13l.1.07.11.09a.2.2 0 0 1 0 .08.75.75 0 0 1 .07.12.89.89 0 0 1 0 .14v3.29a.7.7 0 0 1-1.4 0V3.35a5.79 5.79 0 0 0-.9 1 6.58 6.58 0 0 0 .88 8.4 6.72 6.72 0 0 0 9.16 0 6.32 6.32 0 0 0 1.15-1.49.7.7 0 0 1 1-.26zM8.7 4.7v2.6h2.6a.7.7 0 0 1 0 1.4H8a.7.7 0 0 1-.7-.7V4.7a.7.7 0 0 1 1.4 0z" fill="currentColor" fill-rule="evenodd"/></svg>