<?xml version="1.0" encoding="UTF-8"?>
<svg width="16px" height="16px" viewBox="0 0 16 16" version="1.1" xmlns="http://www.w3.org/2000/svg" xmlns:xlink="http://www.w3.org/1999/xlink">
    <!-- Generator: Sketch 52.6 (67491) - http://www.bohemiancoding.com/sketch -->
    <title>icon/survey</title>
    <desc>Created with Sketch.</desc>
    <g id="Icons-✅" stroke="none" stroke-width="1" fill="none" fill-rule="evenodd">
        <g id="Icons" transform="translate(-654.000000, -1068.000000)" fill="currentColor">
            <g id="icon/survey" transform="translate(654.000000, 1068.000000)">
                <g id="survey">
                    <path d="M9.48,-1.77635684e-14 C11.2092115,-1.76576847e-14 12.867599,0.686926599 14.0903362,1.90966379 C15.3130734,3.13240097 16,4.79078849 16,6.52 C16,10.1208966 13.0808966,13.04 9.48,13.04 C5.87910343,13.04 2.96,10.1208966 2.96,6.52 C2.96,2.91910343 5.87910343,-1.79840597e-14 9.48,-1.77635684e-14 Z M9.48,11.64 C12.3054157,11.6344977 14.5944977,9.34541566 14.6,6.52 C14.6,3.69230208 12.3076979,1.4 9.48,1.4 C6.65230208,1.4 4.36,3.69230208 4.36,6.52 C4.36,9.34769792 6.65230208,11.64 9.48,11.64 Z M11.39,7.05 C11.5689852,7.12225265 11.710193,7.26520455 11.7802432,7.44506316 C11.8502934,7.62492177 11.8429685,7.82572328 11.76,8 C11.3695017,8.91250561 10.47255,9.50429513 9.48,9.50429513 C8.48745004,9.50429513 7.59049832,8.91250561 7.2,8 C7.11589763,7.82825794 7.10571822,7.62958529 7.17182712,7.45014684 C7.23793603,7.27070838 7.37457725,7.12612754 7.55,7.05 C7.9035666,6.90199646 8.31077972,7.06134072 8.47,7.41 C8.62798565,7.82503377 9.02591387,8.09934267 9.47,8.09934267 C9.91408613,8.09934267 10.3120144,7.82503377 10.47,7.41 C10.6292203,7.06134072 11.0364334,6.90199646 11.39,7.05 Z M8.69,4.62 C8.69,5.17228475 8.24228475,5.62 7.69,5.62 C7.13771525,5.62 6.69,5.17228475 6.69,4.62 C6.69,4.06771525 7.13771525,3.62 7.69,3.62 C8.24228475,3.62 8.69,4.06771525 8.69,4.62 Z M11.32,3.57 C11.5941113,3.56965714 11.8563464,3.68184953 12.0453888,3.88034405 C12.2344311,4.07883856 12.3337058,4.34623139 12.32,4.62 C12.3195132,5.04913236 12.0579378,5.43478059 11.6594079,5.59393043 C11.2608779,5.75308027 10.8056094,5.65369803 10.5096558,5.34294681 C10.2137023,5.03219559 10.1366332,4.57262342 10.3150228,4.1823261 C10.4934123,3.79202878 10.8913542,3.54956539 11.32,3.57 Z M9.36,13.72 C9.65052794,13.519422 10.0449499,13.5665811 10.28,13.83 C10.3928935,13.9860544 10.4364977,14.1817306 10.4005453,14.3709536 C10.3645929,14.5601766 10.2522611,14.726225 10.09,14.83 C7.5159213,16.5460304 4.08844237,16.2066328 1.90090477,14.0190952 C-0.28663283,11.8315576 -0.626030399,8.4040787 1.09,5.83 C1.19377503,5.66773893 1.3598234,5.55540705 1.54904639,5.51945469 C1.73826938,5.48350232 1.9339456,5.52710652 2.09,5.64 C2.25226107,5.74377503 2.36459295,5.9098234 2.40054531,6.09904639 C2.43649768,6.28826938 2.39289348,6.4839456 2.28,6.64 C1.70888307,7.47718162 1.40231231,8.46656906 1.4,9.48 C1.40550229,12.3054157 3.69458434,14.5944977 6.52,14.6 C7.53343094,14.5976877 8.52281838,14.2911169 9.36,13.72 Z" id="Combined-Shape"></path>
                </g>
            </g>
        </g>
    </g>
</svg>