<?xml version="1.0" encoding="UTF-8"?>
<svg width="16px" height="16px" viewBox="0 0 16 16" version="1.1" xmlns="http://www.w3.org/2000/svg" xmlns:xlink="http://www.w3.org/1999/xlink">
    <!-- Generator: Sketch 52.6 (67491) - http://www.bohemiancoding.com/sketch -->
    <title>icon/survey-neutral</title>
    <desc>Created with Sketch.</desc>
    <g id="Icons-✅" stroke="none" stroke-width="1" fill="none" fill-rule="evenodd">
        <g id="Icons" transform="translate(-736.000000, -1068.000000)" fill="currentColor">
            <g id="icon/survey-neutral" transform="translate(736.000000, 1068.000000)">
                <g id="survey-neutral">
                    <path d="M8,0 C10.1217319,1.2991861e-16 12.1565632,0.842854723 13.6568542,2.34314575 C15.1571453,3.84343678 16,5.87826808 16,8 C16,12.418278 12.418278,16 8,16 C3.581722,16 -5.41083001e-16,12.418278 0,8 C5.41083001e-16,3.581722 3.581722,-2.705415e-16 8,0 Z M8,14.6 C11.6427959,14.5944931 14.5944931,11.6427959 14.6,8 C14.6,4.35492065 11.6450793,1.4 8,1.4 C4.35492065,1.4 1.4,4.35492065 1.4,8 C1.4,11.6450793 4.35492065,14.6 8,14.6 Z M6.75,5.62 C6.75,6.17228475 6.30228475,6.62 5.75,6.62 C5.19771525,6.62 4.75,6.17228475 4.75,5.62 C4.75,5.06771525 5.19771525,4.62 5.75,4.62 C6.30228475,4.62 6.75,5.06771525 6.75,5.62 Z M10.3,4.57 C10.8522847,4.57 11.3,5.01771525 11.3,5.57 C11.3,6.12228475 10.8522847,6.57 10.3,6.57 C9.74771525,6.57 9.3,6.12228475 9.3,5.57 C9.3,5.01771525 9.74771525,4.57 10.3,4.57 Z M10.1,9.44 C10.4865993,9.44 10.8,9.75340068 10.8,10.14 C10.8,10.5265993 10.4865993,10.84 10.1,10.84 L5.9,10.84 C5.51340068,10.84 5.2,10.5265993 5.2,10.14 C5.2,9.75340068 5.51340068,9.44 5.9,9.44 L10.1,9.44 Z" id="Combined-Shape"></path>
                </g>
            </g>
        </g>
    </g>
</svg>