<svg viewBox="0 0 16 16"><path d="M2.1 10.92L1.07 12a8 8 0 0 1-.9-5.63.7.7 0 1 1 1.37.28 6.59 6.59 0 0 0 .56 4.27zm-.55-7.18a.35.35 0 0 1-.07-.14V1a.7.7 0 1 1 1.4 0v.82a8 8 0 0 1 9.06-.78l-1 1a6.6 6.6 0 0 0-7.07.77h.95a.7.7 0 0 1 0 1.4H2.13a.61.61 0 0 1-.13 0 .84.84 0 0 1-.18-.1h-.07L1.66 4l-.11-.14a.56.56 0 0 1 0-.12zM15.79 1.2l-1.65 1.76a8 8 0 0 1 1.72 6.75.7.7 0 0 1-.68.56h-.15a.71.71 0 0 1-.54-.83 6.61 6.61 0 0 0-1.34-5.48l-9.26 9.26.12.11a6.61 6.61 0 0 0 8.15-.1h-.94a.7.7 0 0 1 0-1.4h2.69a.61.61 0 0 1 .13 0 .84.84 0 0 1 .14.06h.07l.09.11.11.14a.56.56 0 0 1 0 .12.35.35 0 0 1 0 .14V15a.7.7 0 0 1-1.4 0v-.84A8 8 0 0 1 8 16a7.94 7.94 0 0 1-4.87-1.65l-.26-.23-1.67 1.67a.7.7 0 0 1-.5.21.67.67 0 0 1-.49-.2.69.69 0 0 1 0-1l1.67-1.67 1-1 9.25-9.25 1-1L14.79.2a.69.69 0 0 1 1 0 .69.69 0 0 1 0 1z" fill="currentColor" fill-rule="evenodd"/></svg>