<?xml version="1.0" encoding="UTF-8"?>
<svg width="16px" height="16px" viewBox="0 0 16 16" version="1.1" xmlns="http://www.w3.org/2000/svg" xmlns:xlink="http://www.w3.org/1999/xlink">
    <!-- Generator: Sketch 52.6 (67491) - http://www.bohemiancoding.com/sketch -->
    <title>icon/sync</title>
    <desc>Created with Sketch.</desc>
    <g id="Icons-✅" stroke="none" stroke-width="1" fill="none" fill-rule="evenodd">
        <g id="Icons" transform="translate(-490.000000, -1068.000000)" fill="currentColor">
            <g id="icon/sync" transform="translate(490.000000, 1068.000000)">
                <g id="sync" transform="translate(0.000000, -1.000000)">
                    <path d="M12.87,2.65 C15.2860852,4.53126608 16.425612,7.62039141 15.81,10.62 C15.743923,10.9437692 15.4604315,11.1772327 15.13,11.18 L14.98,11.18 C14.6049406,11.0952079 14.3655446,10.7272475 14.44,10.35 C14.9484846,7.86787699 14.0023267,5.31247512 12,3.76 C9.59895023,1.91102631 6.2481264,1.93163409 3.87,3.81 L4.82,3.81 C5.20659932,3.81 5.52,4.12340068 5.52,4.51 C5.52,4.89659932 5.20659932,5.21 4.82,5.21 L2.22,5.21 L2.13,5.21 C2.08679038,5.21463067 2.04320962,5.21463067 2,5.21 C1.93612602,5.18417466 1.87567192,5.15058905 1.82,5.11 L1.75,5.11 L1.66,5 L1.47,4.86 C1.46570192,4.82011546 1.46570192,4.77988454 1.47,4.74 C1.46057142,4.69380957 1.46057142,4.64619043 1.47,4.6 L1.47,2 C1.46999999,1.74991408 1.60341924,1.51882516 1.82,1.39378221 C2.03658075,1.26873925 2.30341925,1.26873925 2.52,1.39378221 C2.73658076,1.51882516 2.87000001,1.74991408 2.87,2 L2.87,2.84 C5.74800213,0.443929291 9.90305721,0.364983245 12.87,2.65 Z M14.45,13.26 C14.4594286,13.3061904 14.4594286,13.3538096 14.45,13.4 L14.45,16 C14.45,16.3865993 14.1365993,16.7 13.75,16.7 C13.3634007,16.7 13.05,16.3865993 13.05,16 L13.05,15.16 C11.8930041,16.1186208 10.4894304,16.7320345 9,16.93 C8.66861633,16.9757584 8.33452689,16.9991447 8,17 C6.25460595,17.002308 4.55708236,16.4294377 3.17,15.37 C0.720592531,13.4978075 -0.444413287,10.3911253 0.17,7.37 C0.209263171,7.11473033 0.385897873,6.90181998 0.629528509,6.81609766 C0.873159146,6.73037534 1.14419798,6.78577014 1.3346565,6.96021141 C1.52511501,7.13465268 1.60404546,7.39979532 1.54,7.65 C1.00108974,10.1670477 1.96320512,12.7690439 4.01,14.33 C6.42640745,16.1748564 9.78958577,16.1335904 12.16,14.23 L11.22,14.23 C10.8334007,14.23 10.52,13.9165993 10.52,13.53 C10.52,13.1434007 10.8334007,12.83 11.22,12.83 L13.82,12.83 L13.91,12.83 C13.9532096,12.8253693 13.9967904,12.8253693 14.04,12.83 C14.0883874,12.845719 14.1352466,12.8658016 14.18,12.89 L14.25,12.89 L14.34,13 L14.45,13.14 C14.4542981,13.1798845 14.4542981,13.2201155 14.45,13.26 Z" id="Combined-Shape"></path>
                </g>
            </g>
        </g>
    </g>
</svg>