<?xml version="1.0" encoding="UTF-8"?>
<svg width="14px" height="14px" viewBox="0 0 14 14" version="1.1" xmlns="http://www.w3.org/2000/svg" xmlns:xlink="http://www.w3.org/1999/xlink">
    <!-- Generator: Sketch 52.6 (67491) - http://www.bohemiancoding.com/sketch -->
    <title>icon/table-style</title>
    <desc>Created with Sketch.</desc>
    <g id="Icons-✅" stroke="none" stroke-width="1" fill="none" fill-rule="evenodd">
        <g id="Icons" transform="translate(-245.000000, -1069.000000)" fill="currentColor">
            <g id="icon/table-style" transform="translate(245.000000, 1069.000000)">
                <g id="table-style" transform="translate(0.000000, -1.000000)">
                    <path d="M13.64,1.36 C13.01,0.74 11.89,0.91 10.19,1.88 C8.53919445,2.86291429 7.02315966,4.05624544 5.68,5.43 C4.64466333,6.45481812 3.69794918,7.56545098 2.85,8.75 C2.43563621,8.87843617 2.05832076,9.10482545 1.75,9.41 C0.88,10.28 0.2,13.26 0.02,14.16 C-0.0312554034,14.3887788 0.0408023396,14.6277071 0.21,14.79 C0.337254397,14.9247643 0.514650433,15.0007911 0.7,15 L0.84,15 C1.74,14.81 4.72,14.13 5.59,13.26 C5.8873636,12.9551821 6.10987508,12.5854708 6.24,12.18 C7.42791718,11.3250116 8.54184103,10.3716533 9.57,9.33 C11.9,7 15.05,2.78 13.64,1.36 Z M6.43,8.57 C6.77381103,8.90671764 6.94662295,9.38103122 6.9,9.86 C6.68,10.06 6.45,10.26 6.23,10.43 C6.17546895,10.2758826 6.09792395,10.1309072 6,10 L6,9.87 C5.89765979,9.70363088 5.77689787,9.54932399 5.64,9.41 C5.50414274,9.27331729 5.35317131,9.15254015 5.19,9.05 L5,9 C4.88400729,8.93520924 4.7637278,8.87841059 4.64,8.83 L4.58,8.83 L5.15,8.15 C5.61671241,8.1040658 6.08123149,8.25648613 6.43,8.57 Z M1.64,13.36 C1.83613539,12.3054713 2.20797311,11.2913684 2.74,10.36 C2.97373006,10.1338255 3.28479465,10.0051092 3.61,10 L3.69,10 C3.83823259,9.99775546 3.98510987,10.0284972 4.12,10.09 L4.22,10.09 C4.3601786,10.1507169 4.48875382,10.2353058 4.6,10.34 C4.70502363,10.4547462 4.78958341,10.5866595 4.85,10.73 C4.85376476,10.7598819 4.85376476,10.7901181 4.85,10.82 C4.90000462,10.9584069 4.93030115,11.103157 4.94,11.25 C4.94,11.25 4.94,11.25 4.94,11.33 C4.92831042,11.6557354 4.79651702,11.965628 4.57,12.2 C3.66406066,12.7457507 2.67400244,13.1377191 1.64,13.36 Z M8.14,8.75 C7.99681704,8.30812628 7.74993787,7.90694762 7.42,7.58 C7.09094132,7.25273232 6.69044137,7.00627081 6.25,6.86 L6.67,6.42 C9.37,3.71 11.86,2.42 12.61,2.42 C12.61,3.16 11.29,5.65 8.61,8.36 C8.44,8.48 8.29,8.61 8.14,8.75 Z" id="Shape"></path>
                </g>
            </g>
        </g>
    </g>
</svg>