<svg viewBox="0 0 16 14"><path d="M5.3 14a9.25 9.25 0 0 1-5-1.46.71.71 0 0 1-.3-.8.72.72 0 0 1 .74-.46 4 4 0 0 0 2.09-.34 2.55 2.55 0 0 1-2-1.6.7.7 0 0 1 .8-.9h.17A2.94 2.94 0 0 1 .12 5.78a.69.69 0 0 1 .36-.59.64.64 0 0 1 .63 0A4.47 4.47 0 0 1 1.27 1 .6.6 0 0 1 1.9.66a.71.71 0 0 1 .6.34 5.81 5.81 0 0 0 4.12 3 4.21 4.21 0 0 1 .71-2.5A3.41 3.41 0 0 1 9.73 0a3.2 3.2 0 0 1 2.93.9A3.25 3.25 0 0 0 14 .41.7.7 0 0 1 15 1a4.55 4.55 0 0 1-.17 1.15.76.76 0 0 0 .17-.03.69.69 0 0 1 .75.13A.7.7 0 0 1 16 3a5.22 5.22 0 0 1-1.33 2.08 8.86 8.86 0 0 1-2.46 6.15A9.37 9.37 0 0 1 5.3 14zm-2.14-1.7c.696.2 1.416.3 2.14.3a7.84 7.84 0 0 0 5.86-2.37 7.49 7.49 0 0 0 2.07-5.47.68.68 0 0 1 .29-.6c.19-.144.36-.316.5-.51h-.46a.7.7 0 0 1-.75-.47.69.69 0 0 1 .3-.82.8.8 0 0 0 .21-.2 3.76 3.76 0 0 1-1 .11.74.74 0 0 1-.57-.27 1.84 1.84 0 0 0-1.82-.6 2.06 2.06 0 0 0-1.45.89 3 3 0 0 0-.37 2.35.71.71 0 0 1-.11.61.69.69 0 0 1-.57.25 7.55 7.55 0 0 1-5.34-2.57 2.27 2.27 0 0 0 .81 2.18.71.71 0 0 1 .3.68.68.68 0 0 1-.48.57 5.75 5.75 0 0 1-1 .23c.508.547 1.19.9 1.93 1A.7.7 0 0 1 4 8.81a3.85 3.85 0 0 1-1.1.69 8.2 8.2 0 0 0 2.1.24.7.7 0 0 1 .44 1.26 9 9 0 0 1-2.28 1.33v-.03z" fill="currentColor" fill-rule="evenodd"/></svg>