<svg viewBox="0 0 16 16"><path d="M15.79 1.2l-1.67 1.67a8 8 0 0 1-1.92 11.94.71.71 0 0 1-1.044-.413.7.7 0 0 1 .314-.787 6.58 6.58 0 0 0 1.68-9.76L12 5a4.91 4.91 0 0 1 1 3 5 5 0 0 1-1.7 3.75.71.71 0 0 1-.46.17.67.67 0 0 1-.52-.24.7.7 0 0 1 .06-1A3.49 3.49 0 0 0 11 6L9.51 7.48v6.82a.7.7 0 0 1-.7.7.7.7 0 0 1-.43-.15l-3.5-2.74-3.68 3.68a.7.7 0 0 1-.5.21.67.67 0 0 1-.49-.2.69.69 0 0 1 0-1l3.45-3.45 1.11-1.11L8.11 6.9l1.4-1.4.62-.62.79-.79 1.21-1.21 1-1L14.79.2a.69.69 0 0 1 1 0 .69.69 0 0 1 0 1zM8.11 12.86V8.88l-2.23 2.23 2.23 1.75zm-6.42-1.52A1.82 1.82 0 0 1 0 9.53V6.47a1.83 1.83 0 0 1 1.82-1.82h2.1l4.46-3.5a.69.69 0 0 1 .74-.08.7.7 0 0 1 .39.63v1.81l-1.4 1.4V3.14L4.59 5.9a.68.68 0 0 1-.43.15H1.82a.42.42 0 0 0-.42.42v3.11c0 .232.188.42.42.42h1.26l-1.39 1.34z" fill="currentColor" fill-rule="evenodd"/></svg>