<?xml version="1.0" encoding="UTF-8"?>
<svg width="16px" height="12px" viewBox="0 0 16 12" version="1.1" xmlns="http://www.w3.org/2000/svg" xmlns:xlink="http://www.w3.org/1999/xlink">
    <!-- Generator: Sketch 52.6 (67491) - http://www.bohemiancoding.com/sketch -->
    <title>icon/visible</title>
    <desc>Created with Sketch.</desc>
    <g id="Icons-✅" stroke="none" stroke-width="1" fill="none" fill-rule="evenodd">
        <g id="Icons" transform="translate(-244.000000, -806.000000)" fill="currentColor">
            <g id="icon/visible" transform="translate(244.000000, 807.000000)">
                <g id="visible" transform="translate(-1.000000, -1.000000)">
                    <path d="M9,11.15 C5.6626805,11.1542178 2.60412872,9.28896462 1.08,6.32 C0.969646383,6.12093767 0.969646383,5.87906233 1.08,5.68 C2.60812543,2.71500115 5.66437629,0.851874569 9,0.851874569 C12.3356237,0.851874569 15.3918746,2.71500115 16.92,5.68 C17.0303536,5.87906233 17.0303536,6.12093767 16.92,6.32 C15.3958713,9.28896462 12.3373195,11.1542178 9,11.15 Z M2.5,6 C3.84253547,8.31984715 6.3196843,9.74833813 9,9.74833813 C11.6803157,9.74833813 14.1574645,8.31984715 15.5,6 C14.1574645,3.68015285 11.6803157,2.25166187 9,2.25166187 C6.3196843,2.25166187 3.84253547,3.68015285 2.5,6 Z M9,8.8 C7.4536027,8.8 6.2,7.5463973 6.2,6 C6.2,4.4536027 7.4536027,3.2 9,3.2 C10.5463973,3.2 11.8,4.4536027 11.8,6 C11.7945146,7.54411947 10.5441195,8.79451462 9,8.8 Z M9,4.6 C8.22680135,4.6 7.6,5.22680135 7.6,6 C7.6,6.77319865 8.22680135,7.4 9,7.4 C9.77319865,7.4 10.4,6.77319865 10.4,6 C10.4,5.22680135 9.77319865,4.6 9,4.6 Z" id="Combined-Shape"></path>
                </g>
            </g>
        </g>
    </g>
</svg>