<?xml version="1.0" encoding="UTF-8"?>
<svg width="20" height="20" viewBox="0 0 20 20" fill="none" xmlns="http://www.w3.org/2000/svg">
    <!-- Generator: Sketch 52.6 (67491) - http://www.bohemiancoding.com/sketch -->
    <title>icon/warning-filled</title>
    <desc>Created with Sketch.</desc>
    <path d="M10 2C5.58172 2 2 5.58172 2 10C2 14.4183 5.58172 18 10 18C14.4183 18 18 14.4183 18 10C18 7.87827 17.1571 5.84344 15.6569 4.34315C14.1566 2.84285 12.1217 2 10 2Z" fill="currentColor"/>
    <path d="M9.34998 10.31V6.7C9.34998 6.44991 9.48339 6.21883 9.69998 6.09378C9.91656 5.96874 10.1834 5.96874 10.4 6.09378C10.6166 6.21883 10.75 6.44991 10.75 6.7V10.31C10.75 10.6966 10.4366 11.01 10.05 11.01C9.66338 11.01 9.34998 10.6966 9.34998 10.31Z" fill="white"/>
    <path d="M10.05 12.0599C9.4701 12.0599 9 12.53 9 13.1099C9 13.6898 9.4701 14.1599 10.05 14.1599C10.6299 14.1599 11.1 13.6898 11.1 13.1099C11.1145 12.8272 11.0086 12.5516 10.8084 12.3515C10.6083 12.1513 10.3327 12.0454 10.05 12.0599Z" fill="white"/>
</svg>
