<svg width="14" height="14" viewBox="0 0 14 14" xmlns="http://www.w3.org/2000/svg"><path d="M11.3.85a2.7 2.7 0 012.7 2.7v7.75a2.7 2.7 0 01-2.7 2.7H2.7A2.7 2.7 0 010 11.3V3.55A2.7 2.7 0 012.7.85H3V.7a.7.7 0 011.37 0v.15H9.6V.7a.7.7 0 111.4 0v.15h.3zm-8.6 1.4a1.3 1.3 0 00-1.3 1.3V4h11.23v-.45a1.3 1.3 0 00-1.3-1.3h-.27v.21a.7.7 0 01-1.4 0v-.21H4.4v.21a.7.7 0 01-1.4 0v-.21h-.3zm8.6 10.35a1.3 1.3 0 001.3-1.3V5.36H1.4v5.94a1.3 1.3 0 001.3 1.3h8.6zM3.73 9.23a1 1 0 11-.098 1.998A1 1 0 013.73 9.23zm3.27 0a1 1 0 11.003 2 1 1 0 01-.003-2zm3.27 0a1 1 0 11.003 2 1 1 0 01-.003-2zM3.73 6.52a1 1 0 11-.1 1.997 1 1 0 01.1-1.997zm3.27 0a1 1 0 110 2 1 1 0 010-2zm3.27 0a1 1 0 110 2 1 1 0 010-2z" fill="currentColor" fill-rule="evenodd"/></svg>