<?xml version="1.0" encoding="UTF-8"?>
<svg width="16px" height="16px" viewBox="0 0 16 16" version="1.1" xmlns="http://www.w3.org/2000/svg" xmlns:xlink="http://www.w3.org/1999/xlink">
    <!-- Generator: Sketch 52.6 (67491) - http://www.bohemiancoding.com/sketch -->
    <title>icon/circle-plus</title>
    <desc>Created with Sketch.</desc>
    <g id="Icons-✅" stroke="none" stroke-width="1" fill="none" fill-rule="evenodd">
        <g id="Icons" transform="translate(-572.000000, -2388.000000)" fill="currentColor">
            <g id="icon/circle-plus" transform="translate(572.000000, 2388.000000)">
                <g id="circle-plus">
                    <path d="M8,0 C10.1217319,1.2991861e-16 12.1565632,0.842854723 13.6568542,2.34314575 C15.1571453,3.84343678 16,5.87826808 16,8 C16,12.418278 12.418278,16 8,16 C3.581722,16 -5.41083001e-16,12.418278 0,8 C5.41083001e-16,3.581722 3.581722,-2.705415e-16 8,0 Z M8,14.6 C11.6427959,14.5944931 14.5944931,11.6427959 14.6,8 C14.6,4.35492065 11.6450793,1.4 8,1.4 C4.35492065,1.4 1.4,4.35492065 1.4,8 C1.4,11.6450793 4.35492065,14.6 8,14.6 Z M11.3,7.3 C11.6865993,7.3 12,7.61340068 12,8 C12,8.38659932 11.6865993,8.7 11.3,8.7 L8.7,8.7 L8.7,11.3 C8.70000001,11.5500859 8.56658077,11.7811748 8.35000001,11.9062178 C8.13341925,12.0312608 7.86658075,12.0312608 7.64999999,11.9062178 C7.43341923,11.7811748 7.29999999,11.5500859 7.3,11.3 L7.3,8.7 L4.7,8.7 C4.44991408,8.70000001 4.21882516,8.56658077 4.09378219,8.35000001 C3.96873923,8.13341925 3.96873923,7.86658075 4.09378219,7.64999999 C4.21882516,7.43341923 4.44991408,7.29999999 4.7,7.3 L7.3,7.3 L7.3,4.7 C7.3,4.31340068 7.61340068,4 8,4 C8.38659932,4 8.7,4.31340068 8.7,4.7 L8.7,7.3 L11.3,7.3 Z" id="Combined-Shape"></path>
                </g>
            </g>
        </g>
    </g>
</svg>