<?xml version="1.0" encoding="UTF-8"?>
<svg width="16px" height="16px" viewBox="0 0 16 16" version="1.1" xmlns="http://www.w3.org/2000/svg" xmlns:xlink="http://www.w3.org/1999/xlink">
    <!-- Generator: Sketch 52.6 (67491) - http://www.bohemiancoding.com/sketch -->
    <title>icon/image-replace</title>
    <desc>Created with Sketch.</desc>
    <g id="Icons-✅" stroke="none" stroke-width="1" fill="none" fill-rule="evenodd">
        <g id="Icons" transform="translate(-408.000000, -1861.000000)" fill="currentColor">
            <g id="icon/image-replace" transform="translate(408.000000, 1861.000000)">
                <g id="image-replace" transform="translate(0.000000, -1.000000)">
                    <path d="M16,7.65 C16.0151056,7.73936617 16.0151056,7.83063383 16,7.92 L16,11.92 C16,12.3065993 15.6865993,12.62 15.3,12.62 C14.9134007,12.62 14.6,12.3065993 14.6,11.92 L14.6,9.61 L7.41,16.79 C7.2827456,16.9247643 7.10534957,17.0007911 6.92,17 C6.63839711,16.9945718 6.38662782,16.8231982 6.2782989,16.5632088 C6.16996997,16.3032194 6.22556593,16.0037769 6.42,15.8 L13.66,8.67 L11.35,8.67 C10.9634007,8.66999998 10.65,8.35659931 10.65,7.97 C10.65,7.58340069 10.9634007,7.27000002 11.35,7.27 L15.35,7.27 C15.4394386,7.25578397 15.5305614,7.25578397 15.62,7.27 C15.7915629,7.34198524 15.9280148,7.47843714 16,7.65 Z M4.7,9.38 L4.7,9.33 C5.08659932,9.33 5.4,9.64340068 5.4,10.03 C5.4,10.4165993 5.08659932,10.73 4.7,10.73 L0.7,10.73 C0.610561376,10.744216 0.519438624,10.744216 0.43,10.73 C0.260189909,10.6554276 0.124572362,10.5198101 0.05,10.35 C0.0180885873,10.2635015 0.00117899846,10.1721897 -3.55271368e-15,10.08 L-3.55271368e-15,6.08 C-3.50536892e-15,5.69340068 0.313400675,5.38 0.7,5.38 C1.08659932,5.38 1.4,5.69340068 1.4,6.08 L1.4,8.39 L8.58,1.2 C8.71025306,1.06303562 8.89098915,0.985499737 9.08,0.985499737 C9.26901085,0.985499737 9.44974694,1.06303562 9.58,1.2 C9.85455556,1.47679776 9.85455556,1.92320224 9.58,2.2 L2.39,9.38 L4.7,9.38 Z" id="Combined-Shape"></path>
                </g>
            </g>
        </g>
    </g>
</svg>