<?xml version="1.0" encoding="UTF-8"?>
<svg width="14px" height="14px" viewBox="0 0 14 14" version="1.1" xmlns="http://www.w3.org/2000/svg" xmlns:xlink="http://www.w3.org/1999/xlink">
    <!-- Generator: Sketch 52.6 (67491) - http://www.bohemiancoding.com/sketch -->
    <title>icon/checkbox</title>
    <desc>Created with Sketch.</desc>
    <g id="Icons-✅" stroke="none" stroke-width="1" fill="none" fill-rule="evenodd">
        <g id="Icons" transform="translate(-409.000000, -2521.000000)" fill="currentColor">
            <g id="icon/checkbox" transform="translate(409.000000, 2521.000000)">
                <g id="checkbox">
                    <path d="M11.6,8.8817842e-16 C12.9232072,0.0054791892 13.9945208,1.0767928 14,2.4 L14,11.6 C13.9945208,12.9232072 12.9232072,13.9945208 11.6,14 L2.4,14 C1.0767928,13.9945208 0.0054791892,12.9232072 0,11.6 L0,2.4 C0.0054791892,1.0767928 1.0767928,0.0054791892 2.4,8.8817842e-16 L11.6,8.8817842e-16 Z M12.6,11.6 L12.6,2.4 C12.6,1.84771525 12.1522847,1.4 11.6,1.4 L2.4,1.4 C1.84771525,1.4 1.4,1.84771525 1.4,2.4 L1.4,11.6 C1.4,12.1522847 1.84771525,12.6 2.4,12.6 L11.6,12.6 C12.1522847,12.6 12.6,12.1522847 12.6,11.6 Z M9.35,4.63 C9.48405838,4.48874109 9.67025471,4.4087484 9.865,4.4087484 C10.0597453,4.4087484 10.2459416,4.48874109 10.38,4.63 C10.5169644,4.76025306 10.5945003,4.94098915 10.5945003,5.13 C10.5945003,5.31901085 10.5169644,5.49974694 10.38,5.63 L6.64,9.38 C6.50547742,9.50883164 6.32626231,9.58051769 6.14,9.58 C5.95678721,9.58002671 5.78086628,9.50822225 5.65,9.38 L3.65,7.43 C3.51303562,7.29974694 3.43549974,7.11901085 3.43549974,6.93 C3.43549974,6.74098915 3.51303562,6.56025306 3.65,6.43 C3.92679776,6.15544444 4.37320224,6.15544444 4.65,6.43 L6.1,7.88 L9.35,4.63 Z" id="Combined-Shape"></path>
                </g>
            </g>
        </g>
    </g>
</svg>