<?xml version="1.0" encoding="UTF-8"?>
<svg width="16px" height="16px" viewBox="0 0 16 16" version="1.1" xmlns="http://www.w3.org/2000/svg" xmlns:xlink="http://www.w3.org/1999/xlink">
    <!-- Generator: Sketch 52.6 (67491) - http://www.bohemiancoding.com/sketch -->
    <title>icon/clear-formatting</title>
    <desc>Created with Sketch.</desc>
    <g id="Icons-✅" stroke="none" stroke-width="1" fill="none" fill-rule="evenodd">
        <g id="Icons" transform="translate(-491.000000, -2389.000000)" fill="currentColor">
            <g id="icon/clear-formatting" transform="translate(491.000000, 2389.000000)">
                <g id="clear-formatting" transform="translate(-1.000000, -1.000000)">
                    <path d="M16.79,1.21 C16.9237973,1.33993276 16.9992974,1.51849466 16.9992974,1.705 C16.9992974,1.89150534 16.9237973,2.07006724 16.79,2.2 L15,4 L15,6.65 C15,7.03659932 14.6865993,7.35 14.3,7.35 L11.64,7.35 L11.17,7.82 L11.17,14.3 C11.17,14.6865993 10.8565993,15 10.47,15 L7.53,15 C7.14340068,15 6.83,14.6865993 6.83,14.3 L6.83,12.16 L2.2,16.79 C2.06832072,16.9243397 1.88811326,17.0000269 1.7,17 C1.51614131,17.0034016 1.33896611,16.9310852 1.21,16.8 C1.07303562,16.6697469 0.995499737,16.4890108 0.995499737,16.3 C0.995499737,16.1109892 1.07303562,15.9302531 1.21,15.8 L6.83,10.18 L8.23,8.78 L9.77,7.23 L11.06,6 L12.6,4.4 L14,3 L15.79,1.21 C15.9202531,1.07303562 16.1009892,0.995499737 16.29,0.995499737 C16.4790108,0.995499737 16.6597469,1.07303562 16.79,1.21 Z M9.79,13.6 L9.77,9.22 L8.23,10.76 L8.23,13.6 L9.79,13.6 Z M13.6,6 L13.56,5.44 L13,6 L13.6,6 Z M3.7,7.35 C3.33211393,7.3509396 3.02627646,7.06694767 3,6.7 L3,3.7 C3,3.31340068 3.31340068,3 3.7,3 L12,3 L10.63,4.4 L4.4,4.4 L4.4,5.95 L7.53,5.95 C7.91435036,5.95537631 8.22462369,6.26564964 8.23,6.65 L8.23,6.8 L6.83,8.2 L6.83,7.35 L3.7,7.35 Z" id="Combined-Shape"></path>
                </g>
            </g>
        </g>
    </g>
</svg>