<?xml version="1.0" encoding="UTF-8"?>
<svg width="16px" height="12px" viewBox="0 0 16 12" version="1.1" xmlns="http://www.w3.org/2000/svg" xmlns:xlink="http://www.w3.org/1999/xlink">
    <!-- Generator: Sketch 52.6 (67491) - http://www.bohemiancoding.com/sketch -->
    <title>icon/arrow-right</title>
    <desc>Created with Sketch.</desc>
    <g id="Icons-✅" stroke="none" stroke-width="1" fill="none" fill-rule="evenodd">
        <g id="Icons" transform="translate(-244.000000, -2786.000000)" fill="currentColor">
            <g id="icon/arrow-right" transform="translate(244.000000, 2786.000000)">
                <g id="arrow-right">
                    <path d="M13.61,6.7 L0.7,6.7 C0.313400675,6.7 4.73447626e-17,6.38659932 0,6 C-4.73447626e-17,5.61340068 0.313400675,5.3 0.7,5.3 L13.61,5.3 L10.21,1.9 C10.0313672,1.72136721 9.96160316,1.46100423 10.0269873,1.2169873 C10.0923714,0.972970362 10.2829704,0.782371439 10.5269873,0.716987298 C10.7710042,0.651603157 11.0313672,0.721367205 11.21,0.9 L15.8,5.5 C15.9343772,5.63166227 16.0101021,5.81187187 16.0101021,6 C16.0101021,6.18812813 15.9343772,6.36833773 15.8,6.5 L11.2,11.1 C11.0643667,11.2270967 10.8858701,11.2984953 10.7,11.3 C10.4155572,11.3000415 10.1593716,11.1279574 10.0518432,10.8646224 C9.9443147,10.6012874 10.0068266,10.2990685 10.21,10.1 L13.61,6.7 Z" id="Combined-Shape"></path>
                </g>
            </g>
        </g>
    </g>
</svg>