<?xml version="1.0" encoding="UTF-8"?>
<svg width="16px" height="16px" viewBox="0 0 16 16" version="1.1" xmlns="http://www.w3.org/2000/svg" xmlns:xlink="http://www.w3.org/1999/xlink">
    <!-- Generator: Sketch 52.6 (67491) - http://www.bohemiancoding.com/sketch -->
    <title>icon/canned-forms</title>
    <desc>Created with Sketch.</desc>
    <g id="Icons-✅" stroke="none" stroke-width="1" fill="none" fill-rule="evenodd">
        <g id="Icons" transform="translate(-162.000000, -2652.000000)" fill="currentColor">
            <g id="icon/canned-forms" transform="translate(162.000000, 2652.000000)">
                <g id="canned-forms">
                    <path d="M13.94,16 C13.8285799,15.998455 13.7190389,15.9710698 13.62,15.92 L11.75,14.92 L9.88,15.92 C9.64260928,16.0392164 9.35919591,16.0200669 9.14,15.87 C8.92931352,15.7071345 8.82238273,15.4436265 8.86,15.18 L9.22,13.1 L7.71,11.63 C7.52140049,11.4417928 7.45215677,11.1648179 7.53,10.91 C7.61402047,10.6551371 7.83455629,10.4694228 8.1,10.43 L10.19,10.13 L11.12,8.23 C11.2418612,7.99362951 11.4840909,7.84367779 11.75,7.84 C12.0174336,7.84781034 12.2591678,8.0012924 12.38,8.24 L13.31,10.13 L15.4,10.43 C15.6625752,10.4756797 15.880302,10.6590286 15.97,10.91 C16.0478432,11.1648179 15.9785995,11.4417928 15.79,11.63 L14.28,13.1 L14.63,15.18 C14.6768906,15.4446831 14.5680739,15.7128387 14.35,15.87 C14.229219,15.9529715 14.0865235,15.9982164 13.94,16 Z M9.7,11.61 L10.46,12.35 C10.6246321,12.5111623 10.6994228,12.7430135 10.66,12.97 L10.48,13.97 L11.42,13.48 C11.6261943,13.3697773 11.8738057,13.3697773 12.08,13.48 L13,14 L12.82,13 C12.7882233,12.7717724 12.8660698,12.5419397 13.03,12.38 L13.79,11.64 L12.74,11.49 C12.5115157,11.4583911 12.3132687,11.3162518 12.21,11.11 L11.74,10.16 L11.27,11.11 C11.1695587,11.3186458 10.9698443,11.4618373 10.74,11.49 L9.7,11.61 Z M9.18,8.7 L3.07,8.7 C2.68340068,8.7 2.37,8.38659932 2.37,8 C2.37,7.61340068 2.68340068,7.3 3.07,7.3 L9.18,7.3 C9.56659932,7.3 9.88,7.61340068 9.88,8 C9.88,8.38659932 9.56659932,8.7 9.18,8.7 Z M10.17,5.09 L3.07,5.09 C2.68340068,5.09 2.37,4.77659932 2.37,4.39 C2.37,4.00340068 2.68340068,3.69 3.07,3.69 L10.17,3.69 C10.5565993,3.69 10.87,4.00340068 10.87,4.39 C10.87,4.77659932 10.5565993,5.09 10.17,5.09 Z M5.24,12.35 L3.07,12.35 C2.68340069,12.35 2.37000003,12.0365993 2.37000003,11.65 C2.37000003,11.2634007 2.68340069,10.95 3.07,10.95 L5.24,10.95 C5.62659932,10.95 5.94,11.2634007 5.94,11.65 C5.94,12.0365993 5.62659932,12.35 5.24,12.35 Z M6.59,16 L1.69,16 C0.756638773,16 4.55519588e-15,15.2433612 4.4408921e-15,14.31 L4.4408921e-15,1.69 C4.32658831e-15,0.756638773 0.756638773,-1.60490116e-15 1.69,-1.77635684e-15 L11.55,-1.77635684e-15 C12.4833612,-1.71920495e-15 13.24,0.756638773 13.24,1.69 L13.24,6.2 C13.24,6.58659932 12.9265993,6.9 12.54,6.9 C12.1534007,6.9 11.84,6.58659932 11.84,6.2 L11.84,1.69 C11.84,1.52983742 11.7101626,1.4 11.55,1.4 L1.69,1.4 C1.52983742,1.4 1.4,1.52983742 1.4,1.69 L1.4,14.31 C1.4,14.4701626 1.52983742,14.6 1.69,14.6 L6.59,14.6 C6.97659931,14.6 7.28999996,14.9134007 7.28999996,15.3 C7.28999996,15.6865993 6.97659931,16 6.59,16 Z" id="Combined-Shape"></path>
                </g>
            </g>
        </g>
    </g>
</svg>