<svg viewBox="0 0 16 16"><path d="M2.12 10.91A8.81 8.81 0 0 1 .08 8.32a.66.66 0 0 1 0-.64A8.89 8.89 0 0 1 8 2.85a9 9 0 0 1 1.94.24L8.72 4.25H8A7.51 7.51 0 0 0 1.5 8a7.48 7.48 0 0 0 1.62 1.91l-1 1zm10.64-6.67a8.9 8.9 0 0 1 3.16 3.44c.11.2.11.44 0 .64A8.89 8.89 0 0 1 8 13.15a8.69 8.69 0 0 1-3.44-.72L1.2 15.79a.7.7 0 0 1-.5.21.67.67 0 0 1-.44-.25.69.69 0 0 1 0-1l3-3 1-1L5.6 9.41l1.05-1.05 1.71-1.71 1.05-1.04.95-.95 1.09-1.1L14.76.24a.69.69 0 0 1 1 0 .69.69 0 0 1 0 1l-3 3zM9.4 8a1.35 1.35 0 0 0-.06-.35L7.65 9.34c.114.035.231.055.35.06A1.4 1.4 0 0 0 9.4 8zM8 11.75A7.51 7.51 0 0 0 14.5 8a7.43 7.43 0 0 0-2.78-2.73l-1.31 1.31c.257.43.392.92.39 1.42A2.81 2.81 0 0 1 8 10.8a2.75 2.75 0 0 1-1.42-.39l-.94.94a7.45 7.45 0 0 0 2.36.4zm-.19-6.53a2.79 2.79 0 0 0-2.59 2.59l2.59-2.59z" fill="currentColor" fill-rule="evenodd"/></svg>