<svg viewBox="0 0 20 20"><path d="M10 0a10 10 0 0 1 10 10c0 5.523-4.477 10-10 10S0 15.523 0 10 4.477 0 10 0zm0 18.6a8.61 8.61 0 0 0 8.6-8.6 8.6 8.6 0 1 0-8.6 8.6zm3.43-13.03l-.02-.04a5.61 5.61 0 0 0-8.78 2.76.71.71 0 0 1-.67.5.45.45 0 0 1-.2 0 .7.7 0 0 1-.47-.87 7 7 0 0 1 11-3.45.7.7 0 1 1-.86 1.1zm2.85 1.31a.71.71 0 0 1 0 .99l-4.39 4.39c.072.195.11.402.11.61a2 2 0 1 1-2-2c.354.003.7.103 1 .29l4.28-4.28a.71.71 0 0 1 1 0zM10 13.47a.6.6 0 1 0 0-1.2.6.6 0 0 0 0 1.2z" fill="currentColor" fill-rule="evenodd"/></svg>