<svg viewBox="0 0 18 18"><path d="M17.36 12.89l-.63-.63a3.35 3.35 0 0 1-1-2.36V8.8a7 7 0 0 0-5.89-7 .43.43 0 0 0 0-.11v-1a.7.7 0 0 0-1.4 0v1a.19.19 0 0 0 0 .07 6.75 6.75 0 0 0-6.2 6.79V9.9a3.3 3.3 0 0 1-1 2.36l-.63.63a1.4 1.4 0 0 0-.31 1.54c.22.53.736.876 1.31.88h4a3.39 3.39 0 0 0 6.64 0h4a1.43 1.43 0 0 0 1.31-.88 1.4 1.4 0 0 0-.2-1.54zM9 16.6a2 2 0 0 1-1.87-1.29h3.74A2 2 0 0 1 9 16.6zm7.36-2.7H1.63l.63-.63A4.7 4.7 0 0 0 3.64 9.9V8.55c0-2.96 2.4-5.36 5.36-5.36h.17a5.54 5.54 0 0 1 5.19 5.61v1.1a4.76 4.76 0 0 0 1.38 3.35l.63.65h-.01z" fill="currentColor" fill-rule="evenodd"/></svg>