<svg viewBox="0 0 14 14"><path d="M13.64.36c-.63-.62-1.75-.45-3.45.52a22.17 22.17 0 0 0-4.51 3.55 25.81 25.81 0 0 0-2.83 3.32 2.7 2.7 0 0 0-1.1.66C.88 9.28.2 12.26.02 13.16a.67.67 0 0 0 .19.63.67.67 0 0 0 .49.21h.14c.9-.19 3.88-.87 4.75-1.74a2.75 2.75 0 0 0 .65-1.08 26.11 26.11 0 0 0 3.33-2.85C11.9 6 15.05 1.78 13.64.36zM6.43 7.57c.344.337.517.811.47 1.29-.22.2-.45.4-.67.57A1.62 1.62 0 0 0 6 9v-.13a2.54 2.54 0 0 0-.81-.82L5 8a2.92 2.92 0 0 0-.36-.17h-.06l.57-.68a1.67 1.67 0 0 1 1.28.42zm-4.79 4.79a9.58 9.58 0 0 1 1.1-3A1.28 1.28 0 0 1 3.61 9h.08a1 1 0 0 1 .43.09h.1c.14.06.269.145.38.25.105.115.19.247.25.39a.36.36 0 0 1 0 .09c.05.138.08.283.09.43v.08a1.32 1.32 0 0 1-.37.87 9.58 9.58 0 0 1-2.93 1.16zm6.5-4.61a2.91 2.91 0 0 0-.72-1.17 3 3 0 0 0-1.17-.72l.42-.44c2.7-2.71 5.19-4 5.94-4 0 .74-1.32 3.23-4 5.94-.17.12-.32.25-.47.39z" fill="currentColor" fill-rule="evenodd"/></svg>