<?xml version="1.0" encoding="UTF-8"?>
<svg width="14px" height="14px" viewBox="0 0 14 14" version="1.1" xmlns="http://www.w3.org/2000/svg" xmlns:xlink="http://www.w3.org/1999/xlink">
    <!-- Generator: Sketch 52.6 (67491) - http://www.bohemiancoding.com/sketch -->
    <title>icon/add-remove</title>
    <desc>Created with Sketch.</desc>
    <g id="Icons-✅" stroke="none" stroke-width="1" fill="none" fill-rule="evenodd">
        <g id="Icons" transform="translate(-246.000000, -2918.000000)" fill="currentColor">
            <g id="icon/add-remove" transform="translate(246.000000, 2918.000000)">
                <g id="add-remove" transform="translate(-1.000000, -1.000000)">
                    <path d="M14.79,1.21 C14.9237973,1.33993276 14.9992974,1.51849466 14.9992974,1.705 C14.9992974,1.89150534 14.9237973,2.07006724 14.79,2.2 L2.2,14.79 C2.06832072,14.9243397 1.88811326,15.0000269 1.7,15 C1.51614131,15.0034016 1.33896611,14.9310852 1.21,14.8 C1.07303562,14.6697469 0.995499737,14.4890108 0.995499737,14.3 C0.995499737,14.1109892 1.07303562,13.9302531 1.21,13.8 L13.79,1.21 C13.9202531,1.07303562 14.1009892,0.995499737 14.29,0.995499737 C14.4790108,0.995499737 14.6597469,1.07303562 14.79,1.21 Z M1.7,4.38 L1.7,4.4 C1.31340068,4.4 1,4.08659932 1,3.7 C1,3.31340068 1.31340068,3 1.7,3 L3,3 L3,1.7 C2.95308937,1.42545538 3.07340453,1.14922141 3.30637757,0.996581599 C3.53935062,0.843941785 3.84064938,0.843941785 4.07362243,0.996581599 C4.30659547,1.14922141 4.42691063,1.42545538 4.38,1.7 L4.38,2.98 L5.67,2.98 C6.05659932,2.98 6.37,3.29340068 6.37,3.68 C6.37,4.06659932 6.05659932,4.38 5.67,4.38 L4.4,4.38 L4.4,5.67 C4.4,6.05659932 4.08659932,6.37 3.7,6.37 C3.31340068,6.37 3,6.05659932 3,5.67 L3,4.38 L1.7,4.38 Z M14.3,11.62 C14.6865993,11.62 15,11.9334007 15,12.32 C15,12.7065993 14.6865993,13.02 14.3,13.02 L10.3,13.02 C9.91340068,13.02 9.6,12.7065993 9.6,12.32 C9.6,11.9334007 9.91340068,11.62 10.3,11.62 L14.3,11.62 Z" id="Combined-Shape"></path>
                </g>
            </g>
        </g>
    </g>
</svg>