<?xml version="1.0" encoding="UTF-8"?>
<svg width="14px" height="14px" viewBox="0 0 14 14" version="1.1" xmlns="http://www.w3.org/2000/svg" xmlns:xlink="http://www.w3.org/1999/xlink">
    <!-- Generator: Sketch 52.6 (67491) - http://www.bohemiancoding.com/sketch -->
    <title>icon/align-center</title>
    <desc>Created with Sketch.</desc>
    <g id="Icons-✅" stroke="none" stroke-width="1" fill="none" fill-rule="evenodd">
        <g id="Icons" transform="translate(-819.000000, -2785.000000)" fill="currentColor">
            <g id="icon/align-center" transform="translate(819.000000, 2785.000000)">
                <g id="align-center">
                    <path d="M13.3,1.4 L0.7,1.4 C0.313400679,1.39999999 1.04308668e-08,1.08659932 1.04308668e-08,0.7 C1.04308668e-08,0.313400679 0.313400679,5.76077874e-09 0.7,-2.22044605e-16 L13.3,-2.22044605e-16 C13.5500859,-5.27016741e-09 13.7811748,0.13341924 13.9062178,0.349999996 C14.0312608,0.566580752 14.0312608,0.833419248 13.9062178,1.05 C13.7811748,1.26658076 13.5500859,1.40000001 13.3,1.4 Z M11.57,14 L2.43,14 C2.04340068,14 1.73,13.6865993 1.73,13.3 C1.73,12.9134007 2.04340068,12.6 2.43,12.6 L11.57,12.6 C11.9565993,12.6 12.27,12.9134007 12.27,13.3 C12.27,13.6865993 11.9565993,14 11.57,14 Z M13.3,9.8 L0.7,9.8 C0.313400675,9.8 0,9.48659932 0,9.1 C0,8.71340068 0.313400675,8.4 0.7,8.4 L13.3,8.4 C13.6865993,8.4 14,8.71340068 14,9.1 C14,9.48659932 13.6865993,9.8 13.3,9.8 Z M11.57,5.6 L2.43,5.6 C2.04340068,5.6 1.73,5.28659932 1.73,4.9 C1.73,4.51340068 2.04340068,4.2 2.43,4.2 L11.57,4.2 C11.9565993,4.2 12.27,4.51340068 12.27,4.9 C12.27,5.28659932 11.9565993,5.6 11.57,5.6 Z" id="Combined-Shape"></path>
                </g>
            </g>
        </g>
    </g>
</svg>