<?xml version="1.0" encoding="UTF-8"?>
<svg width="12px" height="16px" viewBox="0 0 12 16" version="1.1" xmlns="http://www.w3.org/2000/svg" xmlns:xlink="http://www.w3.org/1999/xlink">
    <!-- Generator: Sketch 52.6 (67491) - http://www.bohemiancoding.com/sketch -->
    <title>icon/bulb</title>
    <desc>Created with Sketch.</desc>
    <g id="Icons-✅" stroke="none" stroke-width="1" fill="none" fill-rule="evenodd">
        <g id="Icons" transform="translate(-410.000000, -2652.000000)" fill="currentColor">
            <g id="icon/bulb" transform="translate(410.000000, 2652.000000)">
                <g id="bulb">
                    <path d="M6,0 C8.70450889,0.0124837537 11.0663693,1.83279898 11.7672986,4.44492882 C12.4682279,7.05705866 11.3349464,9.8152474 9,11.18 L9,15.3 C9,15.6865993 8.68659932,16 8.3,16 L3.7,16 C3.31340068,16 3,15.6865993 3,15.3 L3,11.18 C0.665053639,9.8152474 -0.468227902,7.05705866 0.232701393,4.44492882 C0.933630688,1.83279898 3.29549111,0.0124837537 6,0 Z M4.4,14.6 L7.6,14.6 L7.6,13 L4.4,13 L4.4,14.6 Z M8,10.12 C9.59082629,9.36540909 10.6034962,7.76071676 10.6,6 C10.6,3.45949018 8.54050982,1.40000007 6,1.40000007 C3.45949018,1.40000007 1.40000004,3.45949018 1.4,6 C1.3965038,7.76071676 2.40917371,9.36540909 4,10.12 C4.24184316,10.2373469 4.39667771,10.4812113 4.4,10.75 L4.4,11.6 L7.61,11.6 L7.61,10.75 C7.61142789,10.4834392 7.76204293,10.240138 8,10.12 Z M7.59,4.27 C7.73465705,4.15539087 7.91968537,4.10450234 8.10260591,4.12901746 C8.28552645,4.15353259 8.45062571,4.25134543 8.56,4.4 C8.67965532,4.54996367 8.73147248,4.74297437 8.70301334,4.932702 C8.67455419,5.12242964 8.56838844,5.2917429 8.41,5.4 L6.7,6.65 L6.7,8.9 C6.69999998,9.28659931 6.38659931,9.59999997 6,9.59999997 C5.61340069,9.59999997 5.30000002,9.28659931 5.3,8.9 L5.3,6.65 L3.56,5.42 C3.40161156,5.3117429 3.29544581,5.14242964 3.26698666,4.952702 C3.23852752,4.76297437 3.29034468,4.56996367 3.41,4.42 C3.51626488,4.2590676 3.68586538,4.15082514 3.87658263,4.12221755 C4.06729988,4.09360997 4.26119448,4.14732816 4.41,4.27 L6,5.43 L7.59,4.27 Z" id="Combined-Shape"></path>
                </g>
            </g>
        </g>
    </g>
</svg>