<?xml version="1.0" encoding="UTF-8"?>
<svg width="14px" height="14px" viewBox="0 0 14 14" version="1.1" xmlns="http://www.w3.org/2000/svg" xmlns:xlink="http://www.w3.org/1999/xlink">
    <!-- Generator: Sketch 52.6 (67491) - http://www.bohemiancoding.com/sketch -->
    <title>icon/cross-big</title>
    <desc>Created with Sketch.</desc>
    <g id="Icons-✅" stroke="none" stroke-width="1" fill="none" fill-rule="evenodd">
        <g id="Icons" transform="translate(-573.000000, -2257.000000)" fill="currentColor">
            <g id="icon/cross-big" transform="translate(573.000000, 2257.000000)">
                <g id="cross-big" transform="translate(-1.000000, -1.000000)">
                    <path d="M9,8 L14.8,2.2 C15.0761424,1.92385762 15.0761423,1.47614239 14.8,1.20000002 C14.5238576,0.923857658 14.0761424,0.923857647 13.8,1.2 L8,7 L2.2,1.21 C1.92385762,0.933857632 1.47614238,0.933857635 1.20000001,1.21000001 C0.923857635,1.48614238 0.923857632,1.93385762 1.2,2.21 L7,8 L1.2,13.8 C1.06303562,13.9302531 0.985499737,14.1109892 0.985499737,14.3 C0.985499737,14.4890108 1.06303562,14.6697469 1.2,14.8 C1.33136098,14.9336601 1.51269715,15.0061946 1.7,15 C1.88811326,15.0000269 2.06832072,14.9243397 2.2,14.79 L8,9 L13.8,14.8 C13.9316793,14.9343397 14.1118867,15.0100269 14.3,15.01 C14.4853496,15.0107911 14.6627456,14.9347643 14.79,14.8 C14.9269644,14.6697469 15.0045003,14.4890108 15.0045003,14.3 C15.0045003,14.1109892 14.9269644,13.9302531 14.79,13.8 L9,8 Z" id="Path"></path>
                </g>
            </g>
        </g>
    </g>
</svg>