<svg width="14" height="16" viewBox="0 0 14 16"><path d="M5.17 5a.7.7 0 0 1 .71.7v6.6a.71.71 0 0 1-1.41 0V5.7a.7.7 0 0 1 .7-.7zm2.95.7a.71.71 0 0 1 1.41 0v6.6a.71.71 0 0 1-1.41 0V5.7zM13.3 2a.7.7 0 0 1 0 1.4H13v9.93A2.67 2.67 0 0 1 10.34 16H3.66A2.67 2.67 0 0 1 1 13.33V3.4H.7A.7.7 0 0 1 .7 2h3.6v-.3A1.7 1.7 0 0 1 6 0h2a1.7 1.7 0 0 1 1.67 1.7V2h3.63zm-7.57-.3V2H8.3v-.3a.29.29 0 0 0-.3-.3H6a.29.29 0 0 0-.27.3zm5.87 11.63V3.4H2.4v9.93a1.27 1.27 0 0 0 1.26 1.27h6.68a1.27 1.27 0 0 0 1.26-1.27z" fill="currentColor" fill-rule="evenodd"/></svg>