<?xml version="1.0" encoding="UTF-8"?>
<svg width="8px" height="16px" viewBox="0 0 8 16" version="1.1" xmlns="http://www.w3.org/2000/svg" xmlns:xlink="http://www.w3.org/1999/xlink">
    <!-- Generator: Sketch 52.6 (67491) - http://www.bohemiancoding.com/sketch -->
    <title>icon/drag</title>
    <desc>Created with Sketch.</desc>
    <g id="Icons-✅" stroke="none" stroke-width="1" fill="none" fill-rule="evenodd">
        <g id="Icons" transform="translate(-85.000000, -2257.000000)" fill="currentColor">
            <g id="icon/drag" transform="translate(85.000000, 2257.000000)">
                <g id="drag" transform="translate(-1.000000, -1.000000)">
                    <path d="M2.55,4.09 C1.92128187,4.09404333 1.352405,3.71788808 1.10993347,3.13779292 C0.867461946,2.55769776 0.999436493,1.88859659 1.44401654,1.44401654 C1.88859659,0.999436493 2.55769776,0.867461946 3.13779292,1.10993347 C3.71788808,1.352405 4.09404333,1.92128187 4.09,2.55 C4.09,3.40051851 3.40051851,4.09 2.55,4.09 Z M7.45,4.09 C6.82217632,4.08998693 6.25636771,3.71125041 6.01705491,3.13082647 C5.77774211,2.55040253 5.9121967,1.88294264 6.35756944,1.44044327 C6.80294218,0.997943903 7.47125834,0.867812205 8.05012119,1.11087675 C8.62898404,1.35394129 9.00405048,1.92218939 9,2.55 C9.00000865,2.96017192 8.83638712,3.35340007 8.54541467,3.64249528 C8.25444222,3.93159049 7.86016328,4.09266345 7.45,4.09 Z M2.55,17 C1.92218939,17.0040505 1.35394129,16.628984 1.11087675,16.0501212 C0.867812205,15.4712583 0.997943903,14.8029422 1.44044327,14.3575694 C1.88294264,13.9121967 2.55040253,13.7777421 3.13082647,14.0170549 C3.71125041,14.2563677 4.08998693,14.8221763 4.09,15.45 C4.09266345,15.8601633 3.93159049,16.2544422 3.64249528,16.5454147 C3.35340007,16.8363871 2.96017192,17.0000086 2.55,17 Z M7.45,17 C6.59395864,17 5.9,16.3060414 5.9,15.45 C5.9,14.5939586 6.59395864,13.9 7.45,13.9 C8.30604136,13.9 9,14.5939586 9,15.45 C9.00268349,15.8619024 8.84024225,16.257712 8.54897712,16.5489771 C8.257712,16.8402423 7.86190235,17.0026835 7.45,17 Z M2.55,10.55 C1.92218939,10.5540505 1.35394129,10.178984 1.11087675,9.60012119 C0.867812205,9.02125834 0.997943903,8.35294218 1.44044327,7.90756944 C1.88294264,7.4621967 2.55040253,7.32774211 3.13082647,7.56705491 C3.71125041,7.80636771 4.08998693,8.37217632 4.09,9 C4.09001773,9.85215128 3.40213354,10.5445023 2.55,10.55 Z M7.45,10.55 C6.59395864,10.55 5.9,9.85604136 5.9,9 C5.9,8.14395864 6.59395864,7.45 7.45,7.45 C8.30604136,7.45 9,8.14395864 9,9 C9,9.41108556 8.8366969,9.80533412 8.54601551,10.0960155 C8.25533412,10.3866969 7.86108556,10.55 7.45,10.55 Z" id="Combined-Shape"></path>
                </g>
            </g>
        </g>
    </g>
</svg>