<?xml version="1.0" encoding="UTF-8"?>
<svg width="14px" height="14px" viewBox="0 0 14 14" version="1.1" xmlns="http://www.w3.org/2000/svg" xmlns:xlink="http://www.w3.org/1999/xlink">
    <!-- Generator: Sketch 52.6 (67491) - http://www.bohemiancoding.com/sketch -->
    <title>icon/forward</title>
    <desc>Created with Sketch.</desc>
    <g id="Icons-✅" stroke="none" stroke-width="1" fill="none" fill-rule="evenodd">
        <g id="Icons" transform="translate(-245.000000, -1994.000000)" fill="currentColor">
            <g id="icon/forward" transform="translate(245.000000, 1994.000000)">
                <g id="forward" transform="translate(0.000000, -1.000000)">
                    <path d="M14,5.4 C13.959443,5.31519259 13.9054092,5.23751891 13.84,5.17 L9.84,1.17 C9.56385763,0.893857625 9.11614237,0.893857625 8.84,1.17 C8.56385763,1.44614237 8.56385763,1.89385763 8.84,2.17 L11.61,5 L4.15,5 C1.86968308,4.99994042 0.0164842179,6.83974267 0,9.12 L0,14.3 C5.76077874e-09,14.6865993 0.313400679,15 0.7,15 C1.08659932,15 1.39999999,14.6865993 1.4,14.3 L1.4,9.12 C1.4,7.60121694 2.63121694,6.37 4.15,6.37 L11.61,6.37 L8.83,9.14 C8.6513672,9.31863279 8.58160315,9.57899577 8.64698729,9.82301271 C8.71237143,10.0670296 8.90297036,10.2576286 9.14698729,10.3230127 C9.39100423,10.3883969 9.65136721,10.3186328 9.83,10.14 L13.83,6.14 C13.8964554,6.08231466 13.9537743,6.01488066 14,5.94 C14.0700562,5.76681648 14.0700562,5.57318352 14,5.4 Z" id="Path"></path>
                </g>
            </g>
        </g>
    </g>
</svg>