<?xml version="1.0" encoding="UTF-8"?>
<svg width="14px" height="14px" viewBox="0 0 14 14" version="1.1" xmlns="http://www.w3.org/2000/svg" xmlns:xlink="http://www.w3.org/1999/xlink">
    <!-- Generator: Sketch 52.6 (67491) - http://www.bohemiancoding.com/sketch -->
    <title>icon/location</title>
    <desc>Created with Sketch.</desc>
    <g id="Icons-✅" stroke="none" stroke-width="1" fill="none" fill-rule="evenodd">
        <g id="Icons" transform="translate(-164.000000, -1730.000000)" fill="currentColor">
            <g id="icon/location" transform="translate(164.000000, 1730.000000)">
                <g id="location" transform="translate(-1.000000, -1.000000)">
                    <path d="M7.44,12.14 L4.58,8.36 C3.04719544,6.53909344 3.20165051,3.83846468 4.93206476,2.204189 C6.66247901,0.569913311 9.36752099,0.569913311 11.0979352,2.204189 C12.8283495,3.83846468 12.9828046,6.53909344 11.45,8.36 C11.32,8.52 8.56,12.14 8.56,12.14 C8.42330571,12.3091506 8.21747928,12.4074517 8,12.4074517 C7.78252072,12.4074517 7.57669429,12.3091506 7.44,12.14 Z M5.82,3.3 C4.68397622,4.44065623 4.61011731,6.26106117 5.65,7.49 L8,10.56 C9,9.31 10.31,7.54 10.38,7.46 C11.4286973,6.18973031 11.2965808,4.32014795 10.0796667,3.20998072 C8.86275263,2.09981349 6.98892637,2.13941295 5.82,3.3 Z M8,7.43 C6.85677057,7.43 5.93,6.50322943 5.93,5.36 C5.93,4.21677057 6.85677057,3.29 8,3.29 C9.14322943,3.29 10.07,4.21677057 10.07,5.36 C10.07,6.50322943 9.14322943,7.43 8,7.43 Z M8,4.69 C7.62996922,4.69 7.33,4.98996922 7.33,5.36 C7.33,5.73003078 7.62996922,6.03 8,6.03 C8.37003078,6.03 8.67,5.73003078 8.67,5.36 C8.67,4.98996922 8.37003078,4.69 8,4.69 Z M14.93,13.12 C15.0716098,13.5573908 14.9974034,14.0360221 14.73,14.41 C14.4593279,14.7801433 14.0285509,14.9992454 13.57,15 L2.43,15 C1.97144914,14.9992454 1.54067213,14.7801433 1.27,14.41 C1.00259664,14.0360221 0.928390236,13.5573908 1.07,13.12 L2.07,10.19 C2.2572468,9.59610716 2.80729036,9.19166337 3.43,9.19 L4.23,9.19 C4.61659932,9.19 4.93,9.50340068 4.93,9.89 C4.93,10.2765993 4.61659932,10.59 4.23,10.59 L3.43,10.59 L2.43,13.59 L13.6,13.59 L12.6,10.59 L11.77,10.59 C11.3834007,10.59 11.07,10.2765993 11.07,9.89 C11.07,9.50340068 11.3834007,9.19 11.77,9.19 L12.57,9.19 C13.1927096,9.19166337 13.7427532,9.59610716 13.93,10.19 L14.93,13.12 Z" id="Combined-Shape"></path>
                </g>
            </g>
        </g>
    </g>
</svg>