<svg width="100" height="100" viewBox="0 0 100 100" fill="none"><style>@keyframes line-3d-printing1-overall{0%,10%,40%,65%,90%{transform:translate3d(0,0,0)}15%,35%,70%,85%{transform:translate3d(0,14px,0)}}@keyframes line-3d-printing1-tool{0%,10%,15%,30%,45%,55%{transform:translate3d(0,0,0)}20%{transform:translate3d(-3px,0,0)}25%{transform:translate3d(3px,0,0)}65%,75%,85%,90%{transform:translate3d(-25px,0,0)}80%{transform:translate3d(-20px,0,0)}}</style><rect class="fill1 stroke1" x="9" y="9" width="83" height="84" rx="4" fill="rgba(255,248,44,1)" stroke="#000" stroke-width="2"/><path class="fill1 stroke1" d="M23 71a2 2 0 0 1 2-2h51a2 2 0 0 1 2 2v4H23v-4z" fill="rgba(255,248,44,1)"/><path class="fill1 stroke1" d="M78 75v-4a2 2 0 0 0-2-2H25a2 2 0 0 0-2 2v4m55 0H23m55 0h8V15H15v60h8" stroke="#000" stroke-width="2"/><g class="fill1 stroke1" style="animation:line-3d-printing1-overall 10s infinite"><path class="fill2 stroke2" fill="rgba(232,20,24,1)" stroke="rgba(53,51,49,1)" stroke-width="2" d="M15 29h71v7H15z"/><g class="fill2 stroke2" style="animation:line-3d-printing1-tool 10s infinite"><path class="fill2 stroke2" d="M59 24a1 1 0 0 1 1-1h12a1 1 0 0 1 1 1v18a1 1 0 0 1-1 1H60a1 1 0 0 1-1-1V24zm3 19v5h8v-5h-8zm8 5h-8l3.132 5.48a1 1 0 0 0 1.736 0L70 48z" fill="rgba(232,20,24,1)"/><path class="fill2 stroke2" d="M62 43h-2a1 1 0 0 1-1-1V24a1 1 0 0 1 1-1h12a1 1 0 0 1 1 1v18a1 1 0 0 1-1 1h-2m-8 0v5m0-5h8m-8 5h8m-8 0l3.132 5.48a1 1 0 0 0 1.736 0L70 48m0 0v-5" stroke="rgba(53,51,49,1)" stroke-width="2"/></g></g><circle class="fill2 stroke2" cx="20" cy="84" r="4" fill="rgba(232,20,24,1)" stroke="rgba(53,51,49,1)" stroke-width="2"/><circle class="fill2 stroke2" cx="33" cy="84" r="4" fill="rgba(232,20,24,1)" stroke="rgba(53,51,49,1)" stroke-width="2"/><circle class="fill2 stroke2" cx="46" cy="84" r="4" fill="rgba(232,20,24,1)" stroke="rgba(53,51,49,1)" stroke-width="2"/></svg>