<?xml version="1.0" encoding="UTF-8"?>
<svg width="16px" height="16px" viewBox="0 0 16 16" version="1.1" xmlns="http://www.w3.org/2000/svg" xmlns:xlink="http://www.w3.org/1999/xlink">
    <!-- Generator: Sketch 52.6 (67491) - http://www.bohemiancoding.com/sketch -->
    <title>icon/signal</title>
    <desc>Created with Sketch.</desc>
    <g id="Icons-✅" stroke="none" stroke-width="1" fill="none" fill-rule="evenodd">
        <g id="Icons" transform="translate(-408.000000, -1200.000000)" fill="currentColor">
            <g id="icon/signal" transform="translate(408.000000, 1200.000000)">
                <g id="signal" transform="translate(0.000000, -1.000000)">
                    <path d="M8,5.44 C8.63196623,5.4418918 9.18431267,5.86693455 9.3480207,6.47733161 C9.51172872,7.08772868 9.24620466,7.73212367 8.7,8.05 L8.7,16.3 C8.7,16.6865993 8.38659932,17 8,17 C7.61340068,17 7.3,16.6865993 7.3,16.3 L7.3,8.05 C6.75379534,7.73212367 6.48827128,7.08772868 6.6519793,6.47733161 C6.81568733,5.86693455 7.36803377,5.4418918 8,5.44 Z M11.59,3.26 L11.58,3.28 C12.545187,4.22105774 13.0894986,5.51197341 13.0894986,6.86 C13.0894986,8.20802659 12.545187,9.49894226 11.58,10.44 C11.4510339,10.5710852 11.2738587,10.6434016 11.09,10.64 C10.9031238,10.643808 10.722698,10.5716377 10.59,10.44 C10.3154444,10.1632022 10.3154444,9.71679776 10.59,9.44 C11.2800674,8.75476903 11.6681524,7.82248883 11.6681524,6.85 C11.6681524,5.87751117 11.2800674,4.94523097 10.59,4.26 C10.4113672,4.08136721 10.3416031,3.82100423 10.4069873,3.57698729 C10.4723714,3.33297035 10.6629703,3.14237142 10.9069873,3.07698728 C11.1510042,3.01160314 11.4113672,3.0813672 11.59,3.26 Z M5.4,3.26 C5.65880753,3.53696016 5.6544053,3.96837874 5.39,4.24 C4.69993259,4.92523097 4.31184758,5.85751117 4.31184758,6.83 C4.31184758,7.80248883 4.69993259,8.73476903 5.39,9.42 C5.66455556,9.69679776 5.66455556,10.1432022 5.39,10.42 C5.25730204,10.5516377 5.07687623,10.623808 4.89,10.62 C4.70614131,10.6234016 4.52896611,10.5510852 4.4,10.42 C3.43481296,9.47894226 2.8905014,8.18802659 2.8905014,6.84 C2.8905014,5.49197341 3.43481296,4.20105774 4.4,3.26 C4.67679776,2.98544444 5.12320224,2.98544444 5.4,3.26 Z M13.66,1.21 L13.65,1.23 C16.7451675,4.34912929 16.7451675,9.38087071 13.65,12.5 C13.5143667,12.6270967 13.3358701,12.6984953 13.15,12.7 C12.9646504,12.7007911 12.7872544,12.6247643 12.66,12.49 C12.5230356,12.3597469 12.4454997,12.1790108 12.4454997,11.99 C12.4454997,11.8009892 12.5230356,11.6202531 12.66,11.49 C13.8960112,10.2622721 14.5910956,8.59213642 14.5910956,6.85 C14.5910956,5.10786358 13.8960112,3.43772787 12.66,2.21 C12.5230356,2.07974694 12.4454997,1.89901085 12.4454997,1.71 C12.4454997,1.52098915 12.5230356,1.34025306 12.66,1.21 C12.7902531,1.07303562 12.9709892,0.995499737 13.16,0.995499737 C13.3490108,0.995499737 13.5297469,1.07303562 13.66,1.21 Z M1.4,6.84 C1.40127567,8.57382639 2.0920352,10.2359665 3.32,11.46 C3.45696438,11.5902531 3.53450026,11.7709892 3.53450026,11.96 C3.53450026,12.1490108 3.45696438,12.3297469 3.32,12.46 C3.1927456,12.5947643 3.01534957,12.6707911 2.83,12.67 C2.64412994,12.6684953 2.46563326,12.5970967 2.33,12.47 C-0.765167476,9.35087071 -0.765167476,4.31912929 2.33,1.2 C2.46025306,1.06303562 2.64098915,0.985499737 2.83,0.985499737 C3.01901085,0.985499737 3.19974694,1.06303562 3.33,1.2 C3.46696438,1.33025306 3.54450026,1.51098915 3.54450026,1.7 C3.54450026,1.88901085 3.46696438,2.06974694 3.33,2.2 C2.09345091,3.4272769 1.39859964,5.09780016 1.4,6.84 Z" id="Combined-Shape"></path>
                </g>
            </g>
        </g>
    </g>
</svg>