<?xml version="1.0" encoding="UTF-8"?>
<svg width="16px" height="14px" viewBox="0 0 16 14" version="1.1" xmlns="http://www.w3.org/2000/svg" xmlns:xlink="http://www.w3.org/1999/xlink">
    <!-- Generator: Sketch 52.6 (67491) - http://www.bohemiancoding.com/sketch -->
    <title>icon/twitter</title>
    <desc>Created with Sketch.</desc>
    <g id="Icons-✅" stroke="none" stroke-width="1" fill="none" fill-rule="evenodd">
        <g id="Icons" transform="translate(-244.000000, -937.000000)" fill="currentColor">
            <g id="icon/twitter" transform="translate(244.000000, 937.000000)">
                <g id="twitter" transform="translate(-1.000000, -1.000000)">
                    <path d="M6.3,15 C4.527889,15.0023301 2.79240459,14.4955686 1.3,13.54 C1.03278503,13.370074 0.910405829,13.0437295 1,12.74 C1.11536491,12.4378756 1.41801776,12.24974 1.74,12.28 C2.45456004,12.3564691 3.17652437,12.2390204 3.83,11.94 C2.92441726,11.8044373 2.16104272,11.1937377 1.83,10.34 C1.75487199,10.1045337 1.80948713,9.84690111 1.97369198,9.66217065 C2.13789684,9.47744019 2.38734954,9.39299651 2.63,9.44 L2.8,9.44 C1.77278611,8.95275076 1.11857473,7.91691607 1.12,6.78 C1.12575318,6.53307566 1.26305131,6.30805929 1.48,6.19 C1.67545981,6.07948413 1.91454019,6.07948413 2.11,6.19 C1.4643246,4.8534019 1.52427442,3.28346584 2.27,2 C2.3819798,1.76007705 2.63798457,1.62191575 2.9,1.66 C3.14530728,1.66206815 3.37216799,1.79062256 3.5,2 C4.33804794,3.58112156 5.85794758,4.6878446 7.62,5 C7.58709651,4.11264373 7.83560771,3.23760427 8.33,2.5 C8.87493954,1.67594501 9.75048268,1.12873055 10.73,1 C11.7961627,0.782313977 12.899882,1.12134038 13.66,1.9 C14.1374477,1.8379387 14.5951423,1.67057273 15,1.41 C15.2101751,1.30979449 15.4564185,1.32065364 15.6569569,1.43897131 C15.8574954,1.55728899 15.9860762,1.76757612 16,2 C15.9927375,2.38902528 15.9356047,2.77551226 15.83,3.15 C15.8876221,3.14648899 15.9446566,3.13642408 16,3.12 C16.2534534,3.00904732 16.5486738,3.06021886 16.75,3.25 C16.9800423,3.42451107 17.0793272,3.72236579 17,4 C16.7293637,4.78970736 16.2732747,5.50298931 15.67,6.08 C15.6759503,8.37094669 14.794272,10.5751422 13.21,12.23 C11.3880422,14.067983 8.8870317,15.0705588 6.3,15 Z M4.16,13.3 C4.85576828,13.4997049 5.57613877,13.6006914 6.3,13.6 C8.49936868,13.6673474 10.6258031,12.807339 12.16,11.23 C13.5627796,9.76253691 14.3098047,7.78851417 14.23,5.76 C14.2153236,5.52309365 14.3252406,5.29567907 14.52,5.16 C14.7108761,5.01555448 14.8793622,4.84369869 15.02,4.65 L14.56,4.65 C14.2301079,4.6913219 13.9166623,4.494896 13.81,4.18 C13.7023502,3.87010477 13.8277811,3.52726033 14.11,3.36 C14.1915997,3.30668349 14.2627688,3.23890341 14.32,3.16 C13.9930991,3.24129606 13.6567558,3.27829382 13.32,3.27 C13.0992375,3.26952919 12.8902138,3.17051796 12.75,3 C12.3035783,2.4749318 11.601159,2.24336501 10.93,2.4 C10.3410114,2.47389544 9.81252773,2.7982751 9.48,3.29 C9.03807997,3.98886968 8.90420608,4.83914983 9.11,5.64 C9.16871154,5.84944818 9.12817309,6.07425233 9,6.25 C8.86051157,6.41916223 8.64892875,6.51196171 8.43,6.5 C6.3741275,6.40692491 4.44534214,5.4786518 3.09,3.93 C2.93899173,4.7502931 3.2500005,5.58732905 3.9,6.11 C4.12012721,6.26204321 4.23610018,6.52491529 4.2,6.79 C4.16761576,7.0585599 3.9791314,7.28238507 3.72,7.36 C3.39418717,7.46631519 3.05952162,7.54328827 2.72,7.59 C3.2279752,8.13696432 3.91020362,8.49045055 4.65,8.59 C4.91888679,8.63237406 5.13882582,8.8267826 5.21388955,9.08843333 C5.28895328,9.35008405 5.20552797,9.63152334 5,9.81 C4.67504399,10.1006204 4.30308818,10.3339381 3.9,10.5 C4.58671498,10.6702604 5.2925775,10.7509304 6,10.74 C6.30502181,10.7311085 6.58065764,10.9208339 6.68126081,11.2089248 C6.78186398,11.4970157 6.68425067,11.8170821 6.44,12 C5.7494951,12.5529779 4.98123451,13.00113 4.16,13.33 L4.16,13.3 Z" id="Shape"></path>
                </g>
            </g>
        </g>
    </g>
</svg>