<?xml version="1.0" encoding="UTF-8"?>
<svg width="16px" height="16px" viewBox="0 0 16 16" version="1.1" xmlns="http://www.w3.org/2000/svg" xmlns:xlink="http://www.w3.org/1999/xlink">
    <!-- Generator: Sketch 52.6 (67491) - http://www.bohemiancoding.com/sketch -->
    <title>icon/watcher</title>
    <desc>Created with Sketch.</desc>
    <g id="Icons-✅" stroke="none" stroke-width="1" fill="none" fill-rule="evenodd">
        <g id="Icons" transform="translate(-162.000000, -804.000000)" fill="currentColor">
            <g id="icon/watcher" transform="translate(162.000000, 804.000000)">
                <g id="watcher" transform="translate(-1.000000, 0.000000)">
                    <path d="M13.51,15.64 C13.3980107,15.6432258 13.2872961,15.6155471 13.19,15.56 L9,13.36 L4.81,15.56 C4.57500382,15.6756077 4.29513033,15.6503679 4.08460916,15.4945822 C3.87408799,15.3387966 3.76813707,15.0785263 3.81,14.82 L4.61,10.16 L1.21,6.86 C1.00860867,6.67956838 0.927186864,6.40040792 1,6.14 C1.09388213,5.88164261 1.3266783,5.6992856 1.6,5.67 L6.28,5 L8.37,0.75 C8.50096385,0.52627088 8.74075832,0.388781778 9,0.388781778 C9.25924168,0.388781778 9.49903615,0.52627088 9.63,0.75 L11.72,5 L16.4,5.68 C16.6620218,5.7198184 16.8809839,5.90036617 16.97,6.15 C17.0501948,6.40475234 16.9806436,6.68295724 16.79,6.87 L13.4,10.17 L14.2,14.83 C14.2494359,15.0949457 14.1400824,15.3644241 13.92,15.52 C13.8000884,15.6036658 13.6560994,15.6458089 13.51,15.64 Z M9,11.87 C9.11445723,11.8727459 9.22699179,11.900027 9.33,11.95 L12.58,13.66 L12,10 C11.962324,9.7731393 12.0368589,9.542081 12.2,9.38 L14.8,6.85 L11.16,6.32 C10.9315157,6.2883911 10.7332687,6.14625178 10.63,5.94 L9,2.64 L7.37,5.94 C7.2667313,6.14625178 7.06848435,6.2883911 6.84,6.32 L3.2,6.85 L5.84,9.42 C5.97666291,9.58006246 6.03526862,9.79250815 6,10 L5.38,13.62 L8.67,12 C8.76888737,11.9325209 8.88165863,11.8880959 9,11.87 Z" id="Shape"></path>
                </g>
            </g>
        </g>
    </g>
</svg>