<?xml version="1.0" encoding="UTF-8"?>
<svg width="415px" height="84px" viewBox="0 0 415 84" version="1.1" xmlns="http://www.w3.org/2000/svg" xmlns:xlink="http://www.w3.org/1999/xlink">
    <title>Group 45</title>
    <g id="Freshworks-lp" stroke="none" stroke-width="1" fill="none" fill-rule="evenodd">
        <g id="Crayons-New" transform="translate(-513.000000, -164.000000)">
            <g id="Group-45" transform="translate(513.000000, 164.000000)">
                <polygon id="Fill-1" fill-opacity="0.01" fill="#FFFFFF" points="0 84 415 84 415 0 0 0"></polygon>
                <g id="Group-44" transform="translate(4.000000, 9.000000)">
                    <path d="M177.4458,65.7847 C175.6118,65.7847 173.8458,64.7717 172.9698,63.0197 L145.1858,7.4517 C143.9508,4.9827 144.9518,1.9787 147.4228,0.7437 C149.8898,-0.4913 152.8958,0.5097 154.1308,2.9807 L181.9138,58.5477 C183.1488,61.0177 182.1478,64.0207 179.6778,65.2557 C178.9608,65.6147 178.1968,65.7847 177.4458,65.7847" id="Fill-2" fill="#6694FF" style="mix-blend-mode: multiply;"></path>
                    <path d="M121.8701,65.7847 C121.1191,65.7847 120.3561,65.6147 119.6381,65.2557 C117.1681,64.0207 116.1671,61.0177 117.4021,58.5477 L145.1861,2.9797 C146.4211,0.5107 149.4221,-0.4923 151.8941,0.7437 C154.3641,1.9787 155.3651,4.9827 154.1301,7.4527 L126.3461,63.0197 C125.4701,64.7717 123.7041,65.7847 121.8701,65.7847" id="Fill-4" fill="#FF8080" style="mix-blend-mode: multiply;"></path>
                    <path d="M169.1065,49.1133 L130.2095,49.1133 C127.4485,49.1133 125.2095,46.8743 125.2095,44.1133 C125.2095,41.3523 127.4485,39.1133 130.2095,39.1133 L169.1065,39.1133 C171.8675,39.1133 174.1065,41.3523 174.1065,44.1133 C174.1065,46.8743 171.8675,49.1133 169.1065,49.1133" id="Fill-6" fill="#FFC859" style="mix-blend-mode: multiply;"></path>
                    <path d="M85.7554,49.1133 L63.5284,49.1133 C60.7674,49.1133 58.5284,46.8743 58.5284,44.1133 C58.5284,41.3523 60.7674,39.1133 63.5284,39.1133 L85.7554,39.1133 C93.7224,39.1133 100.2044,32.6323 100.2044,24.6653 C100.2044,16.6973 93.7224,10.2163 85.7554,10.2163 L63.5284,10.2163 C60.7674,10.2163 58.5284,7.9773 58.5284,5.2163 C58.5284,2.4553 60.7674,0.2163 63.5284,0.2163 L85.7554,0.2163 C99.2364,0.2163 110.2044,11.1833 110.2044,24.6643 C110.2044,38.1453 99.2364,49.1133 85.7554,49.1133" id="Fill-8" fill="#6694FF" style="mix-blend-mode: multiply;"></path>
                    <path d="M63.5284,65.7837 C60.7674,65.7837 58.5284,63.5447 58.5284,60.7837 L58.5284,5.2167 C58.5284,2.4547 60.7674,0.2167 63.5284,0.2167 C66.2894,0.2167 68.5284,2.4547 68.5284,5.2167 L68.5284,60.7837 C68.5284,63.5447 66.2894,65.7837 63.5284,65.7837" id="Fill-10" fill="#FFC859" style="mix-blend-mode: multiply;"></path>
                    <path d="M105.2017,65.7769 C104.0507,65.7769 102.8937,65.3809 101.9507,64.5739 L82.5017,47.9099 C80.4057,46.1139 80.1617,42.9569 81.9587,40.8599 C83.7547,38.7639 86.9107,38.5189 89.0087,40.3169 L108.4577,56.9799 C110.5547,58.7769 110.7977,61.9329 109.0007,64.0299 C108.0127,65.1839 106.6117,65.7769 105.2017,65.7769" id="Fill-12" fill="#FF8080" style="mix-blend-mode: multiply;"></path>
                    <path d="M199.669,65.7837 C196.908,65.7837 194.669,63.5447 194.669,60.7837 L194.669,44.1137 C194.669,41.3517 196.908,39.1137 199.669,39.1137 C202.43,39.1137 204.669,41.3517 204.669,44.1137 L204.669,60.7837 C204.669,63.5447 202.43,65.7837 199.669,65.7837" id="Fill-14" fill="#FF8080" style="mix-blend-mode: multiply;"></path>
                    <path d="M199.6641,49.1143 C198.8231,49.1143 197.9711,48.9023 197.1881,48.4543 C194.7901,47.0843 193.9571,44.0303 195.3281,41.6333 L217.5551,2.7363 C218.9251,0.3393 221.9781,-0.4947 224.3771,0.8753 C226.7741,2.2453 227.6071,5.2993 226.2371,7.6973 L204.0101,46.5933 C203.0871,48.2093 201.4001,49.1143 199.6641,49.1143" id="Fill-16" fill="#6694FF" style="mix-blend-mode: multiply;"></path>
                    <path d="M199.6739,49.1143 C197.9379,49.1143 196.2509,48.2093 195.3279,46.5933 L173.1009,7.6973 C171.7309,5.2993 172.5639,2.2453 174.9609,0.8753 C177.3609,-0.4957 180.4139,0.3393 181.7829,2.7363 L204.0099,41.6333 C205.3809,44.0303 204.5479,47.0843 202.1499,48.4543 C201.3669,48.9013 200.5149,49.1143 199.6739,49.1143" id="Fill-18" fill="#FFC859" style="mix-blend-mode: multiply;"></path>
                    <path d="M236.3345,55.5386 C234.8835,55.5386 233.4435,54.9106 232.4555,53.6976 C227.7105,47.8736 225.0975,40.5236 225.0975,32.9996 C225.0975,14.9226 239.8035,0.2166 257.8805,0.2166 C260.6425,0.2166 262.8805,2.4556 262.8805,5.2166 C262.8805,7.9776 260.6425,10.2166 257.8805,10.2166 C245.3175,10.2166 235.0975,20.4366 235.0975,32.9996 C235.0975,38.3046 236.8645,43.2776 240.2075,47.3796 C241.9525,49.5206 241.6305,52.6696 239.4905,54.4146 C238.5625,55.1706 237.4445,55.5386 236.3345,55.5386" id="Fill-20" fill="#FF8080" style="mix-blend-mode: multiply;"></path>
                    <path d="M257.8809,65.7837 C247.9819,65.7837 238.7139,61.3787 232.4559,53.6967 C230.7109,51.5557 231.0319,48.4067 233.1729,46.6627 C235.3139,44.9177 238.4629,45.2397 240.2079,47.3807 C244.5589,52.7207 251.0009,55.7837 257.8809,55.7837 C264.7599,55.7837 271.2009,52.7207 275.5529,47.3817 C277.2969,45.2417 280.4469,44.9187 282.5879,46.6647 C284.7279,48.4087 285.0489,51.5587 283.3049,53.6997 C277.0459,61.3787 267.7789,65.7837 257.8809,65.7837" id="Fill-22" fill="#6694FF" style="mix-blend-mode: multiply;"></path>
                    <path d="M279.4258,55.5406 C278.3148,55.5406 277.1978,55.1726 276.2698,54.4166 C274.1298,52.6716 273.8078,49.5216 275.5528,47.3816 C278.8978,43.2786 280.6648,38.3056 280.6648,32.9996 C280.6648,20.4366 270.4448,10.2166 257.8808,10.2166 C255.1198,10.2166 252.8808,7.9776 252.8808,5.2166 C252.8808,2.4556 255.1198,0.2166 257.8808,0.2166 C275.9578,0.2166 290.6648,14.9226 290.6648,32.9996 C290.6648,40.5246 288.0508,47.8756 283.3048,53.6996 C282.3168,54.9126 280.8768,55.5406 279.4258,55.5406" id="Fill-24" fill="#FFC859" style="mix-blend-mode: multiply;"></path>
                    <path d="M346.7891,65.7837 C344.0281,65.7837 341.7891,63.5447 341.7891,60.7837 L341.7891,5.2167 C341.7891,2.4547 344.0281,0.2167 346.7891,0.2167 C349.5501,0.2167 351.7891,2.4547 351.7891,5.2167 L351.7891,60.7837 C351.7891,63.5447 349.5501,65.7837 346.7891,65.7837" id="Fill-26" fill="#FFC859" style="mix-blend-mode: multiply;"></path>
                    <path d="M346.792,65.7837 C345.325,65.7837 343.873,65.1417 342.885,63.9077 L298.431,8.3397 C296.706,6.1837 297.055,3.0367 299.211,1.3117 C301.367,-0.4123 304.513,-0.0633 306.239,2.0927 L350.693,57.6597 C352.418,59.8167 352.069,62.9627 349.913,64.6877 C348.991,65.4257 347.888,65.7837 346.792,65.7837" id="Fill-28" fill="#6694FF" style="mix-blend-mode: multiply;"></path>
                    <path d="M302.335,65.7837 C299.574,65.7837 297.335,63.5447 297.335,60.7837 L297.335,5.2167 C297.335,2.4547 299.574,0.2167 302.335,0.2167 C305.096,0.2167 307.335,2.4547 307.335,5.2167 L307.335,60.7837 C307.335,63.5447 305.096,65.7837 302.335,65.7837" id="Fill-30" fill="#FF8080" style="mix-blend-mode: multiply;"></path>
                    <path d="M368.5459,34.8511 C367.4309,34.8511 366.3089,34.4801 365.3789,33.7181 C362.0109,30.9571 359.6859,27.0841 358.8309,22.8131 C357.7169,17.2411 359.1439,11.5251 362.7459,7.1311 C366.3489,2.7371 371.6739,0.2161 377.3559,0.2161 L397.6409,0.2161 C400.4019,0.2161 402.6409,2.4551 402.6409,5.2161 C402.6409,7.9771 400.4019,10.2161 397.6409,10.2161 L377.3559,10.2161 C374.6819,10.2161 372.1749,11.4021 370.4799,13.4711 C368.7839,15.5391 368.1119,18.2291 368.6369,20.8521 C369.0389,22.8621 370.1329,24.6841 371.7189,25.9841 C373.8539,27.7351 374.1669,30.8851 372.4159,33.0211 C371.4269,34.2261 369.9919,34.8511 368.5459,34.8511" id="Fill-32" fill="#6694FF" style="mix-blend-mode: multiply;"></path>
                    <path d="M399.8013,44.6836 C398.1123,44.6836 396.4633,43.8276 395.5223,42.2786 C393.9203,39.6396 391.0073,37.9996 387.9193,37.9996 L377.3563,37.9996 C373.0003,37.9996 368.7473,36.4786 365.3793,33.7176 C363.2433,31.9666 362.9313,28.8166 364.6823,26.6816 C366.4333,24.5446 369.5833,24.2326 371.7183,25.9846 C373.3043,27.2846 375.3063,27.9996 377.3563,27.9996 L387.9193,27.9996 C394.4773,27.9996 400.6663,31.4826 404.0703,37.0876 C405.5033,39.4486 404.7523,42.5236 402.3913,43.9566 C401.5803,44.4496 400.6853,44.6836 399.8013,44.6836" id="Fill-34" fill="#FFC859" style="mix-blend-mode: multiply;"></path>
                    <path d="M387.9195,65.7837 L367.6345,65.7837 C364.8735,65.7837 362.6345,63.5447 362.6345,60.7837 C362.6345,58.0227 364.8735,55.7837 367.6345,55.7837 L387.9195,55.7837 C390.5935,55.7837 393.1005,54.5977 394.7955,52.5297 C396.4915,50.4607 397.1635,47.7707 396.6385,45.1477 C396.4345,44.1267 396.0595,43.1617 395.5235,42.2787 C394.0895,39.9187 394.8405,36.8427 397.2015,35.4097 C399.5615,33.9767 402.6375,34.7277 404.0695,37.0877 C405.2125,38.9687 406.0115,41.0207 406.4445,43.1867 C407.5585,48.7587 406.1315,54.4747 402.5295,58.8687 C398.9265,63.2637 393.6015,65.7837 387.9195,65.7837" id="Fill-36" fill="#FF8080" style="mix-blend-mode: multiply;"></path>
                    <path d="M18.9463,14.0123 C17.2293,14.0123 15.5583,13.1273 14.6273,11.5393 C13.2313,9.1563 14.0313,6.0933 16.4133,4.6973 C21.4163,1.7653 27.1413,0.2163 32.9673,0.2163 C38.7313,0.2163 44.4023,1.7343 49.3663,4.6063 C51.7563,5.9903 52.5733,9.0483 51.1903,11.4383 C49.8073,13.8283 46.7503,14.6463 44.3583,13.2623 C40.9143,11.2693 36.9753,10.2163 32.9673,10.2163 C28.9163,10.2163 24.9403,11.2913 21.4693,13.3253 C20.6753,13.7903 19.8043,14.0123 18.9463,14.0123" id="Fill-38" fill="#FFC859" style="mix-blend-mode: multiply;"></path>
                    <path d="M18.9366,61.9893 C18.0786,61.9893 17.2086,61.7673 16.4146,61.3023 C15.0496,60.5033 13.7286,59.5943 12.4896,58.6023 C4.6686,52.3403 0.1846,43.0083 0.1846,33.0003 C0.1846,24.4813 3.4356,16.4103 9.3396,10.2743 C11.4336,8.0973 13.8136,6.2213 16.4136,4.6973 C18.7966,3.3013 21.8596,4.1003 23.2556,6.4833 C24.6516,8.8653 23.8526,11.9283 21.4696,13.3253 C19.6606,14.3853 18.0036,15.6913 16.5456,17.2073 C12.4436,21.4713 10.1846,27.0803 10.1846,33.0003 C10.1846,39.9553 13.3026,46.4423 18.7396,50.7963 C19.6016,51.4863 20.5196,52.1183 21.4686,52.6743 C23.8516,54.0703 24.6516,57.1333 23.2556,59.5153 C22.3256,61.1043 20.6536,61.9893 18.9366,61.9893" id="Fill-40" fill="#6694FF" style="mix-blend-mode: multiply;"></path>
                    <path d="M32.9678,65.7837 C27.1408,65.7837 21.4158,64.2337 16.4128,61.3027 C14.0308,59.9057 13.2318,56.8427 14.6278,54.4597 C16.0238,52.0777 19.0858,51.2777 21.4698,52.6747 C24.9407998,54.7087 28.9168,55.7837 32.9678,55.7837 C36.9738,55.7837 40.9108,54.7307 44.3548,52.7397 C46.7458,51.3567 49.8038,52.1747 51.1858,54.5647 C52.5688,56.9547 51.7518,60.0137 49.3608,61.3957 C44.3978,64.2667 38.7288,65.7837 32.9678,65.7837" id="Fill-42" fill="#FF8080" style="mix-blend-mode: multiply;"></path>
                </g>
            </g>
        </g>
    </g>
</svg>