<?xml version="1.0" encoding="UTF-8"?>
<svg width="16px" height="16px" viewBox="0 0 16 16" version="1.1" xmlns="http://www.w3.org/2000/svg" xmlns:xlink="http://www.w3.org/1999/xlink">
    <!-- Generator: Sketch 52.6 (67491) - http://www.bohemiancoding.com/sketch -->
    <title>icon/unmute</title>
    <desc>Created with Sketch.</desc>
    <g id="Icons-✅" stroke="none" stroke-width="1" fill="none" fill-rule="evenodd">
        <g id="Icons" transform="translate(-162.000000, -936.000000)" fill="currentColor">
            <g id="icon/unmute" transform="translate(162.000000, 936.000000)">
                <g id="unmute" transform="translate(-1.000000, -1.000000)">
                    <path d="M16.79,2.2 L15.12,3.87 C16.6106198,5.6487615 17.2553421,7.98716714 16.8868875,10.2784945 C16.5184328,12.5698218 15.1731186,14.5882216 13.2,15.81 C13.0881659,15.8766217 12.9601685,15.9112156 12.83,15.91 C12.5155543,15.9097508 12.2398627,15.6998564 12.1559437,15.3968156 C12.0720248,15.0937748 12.200475,14.7719642 12.47,14.61 C14.0890897,13.6208607 15.2024061,11.9809715 15.5242618,10.1111434 C15.8461174,8.24131535 15.3451819,6.32356313 14.15,4.85 L13,6 C13.6550481,6.86235833 14.0066235,7.91708449 14,9 C13.9981814,10.4361358 13.3789213,11.8021508 12.3,12.75 C12.1717251,12.8595037 12.0086578,12.9197677 11.84,12.92 C11.6394855,12.9218457 11.4486854,12.8337841 11.32,12.68 C11.1931935,12.5404279 11.1280632,12.3555972 11.1393573,12.1673614 C11.1506515,11.9791257 11.2374147,11.8034086 11.38,11.68 C12.7704603,10.5176102 13.0398238,8.48435052 12,7 L10.51,8.48 L10.51,15.3 C10.5109099,15.5672271 10.3595959,15.8116574 10.12,15.93 C10.0237761,15.9778577 9.91745189,16.0018664 9.81,16 C9.653954,15.9993265 9.50260726,15.9465312 9.38,15.85 L5.88,13.11 L2.2,16.79 C2.06832072,16.9243397 1.88811326,17.0000269 1.7,17 C1.51614131,17.0034016 1.33896611,16.9310852 1.21,16.8 C1.07303562,16.6697469 0.995499737,16.4890108 0.995499737,16.3 C0.995499737,16.1109892 1.07303562,15.9302531 1.21,15.8 L4.66,12.35 L5.77,11.24 L9.11,7.9 L10.51,6.5 L11.13,5.88 L11.92,5.09 L13.13,3.88 L14.13,2.88 L15.79,1.2 C15.9202531,1.06303562 16.1009892,0.985499737 16.29,0.985499737 C16.4790108,0.985499737 16.6597469,1.06303562 16.79,1.2 C16.9269644,1.33025306 17.0045003,1.51098915 17.0045003,1.7 C17.0045003,1.88901085 16.9269644,2.06974694 16.79,2.2 Z M9.11,13.86 L9.11,9.88 L6.88,12.11 L9.11,13.86 Z M2.69,12.34 C1.73977461,12.2719571 1.00280132,11.4826543 1,10.53 L1,7.47 C1.00546544,6.46711434 1.81711434,5.65546544 2.82,5.65 L4.92,5.65 L9.38,2.15 C9.58990391,1.98117255 9.87886432,1.94993358 10.12,2.07 C10.3595959,2.18834256 10.5109099,2.43277293 10.51,2.7 L10.51,4.51 L9.11,5.91 L9.11,4.14 L5.59,6.9 C5.46816793,6.9979373 5.3163136,7.05090974 5.16,7.05 L2.82,7.05 C2.58804041,7.05 2.4,7.23804041 2.4,7.47 L2.4,10.58 C2.4,10.8119596 2.58804041,11 2.82,11 L4.08,11 L2.69,12.34 Z" id="Combined-Shape"></path>
                </g>
            </g>
        </g>
    </g>
</svg>