<?xml version="1.0" encoding="UTF-8"?>
<svg width="15px" height="14px" viewBox="0 0 15 14" version="1.1" xmlns="http://www.w3.org/2000/svg" xmlns:xlink="http://www.w3.org/1999/xlink">
    <!-- Generator: Sketch 52.6 (67491) - http://www.bohemiancoding.com/sketch -->
    <title>icon/present</title>
    <desc>Created with Sketch.</desc>
    <g id="Icons-✅" stroke="none" stroke-width="1" fill="none" fill-rule="evenodd">
        <g id="Icons" transform="translate(-573.000000, -1333.000000)" fill="currentColor">
            <g id="icon/present" transform="translate(573.000000, 1333.000000)">
                <g id="present" transform="translate(0.000000, -1.000000)">
                    <path d="M13.3,1 C13.4907928,0.991815564 13.6766468,1.06193618 13.8144844,1.19410917 C13.9523219,1.32628217 14.0301755,1.50903179 14.03,1.7 L14.03,3.94 C14.03,4.32659932 13.7165993,4.64 13.33,4.64 L13.17,4.64 L13.17,10.85 C13.1646237,11.2343504 12.8543504,11.5446237 12.47,11.55 L7.73,11.55 L7.73,13.55 L8.73,13.55 C9.11659932,13.55 9.43,13.8634007 9.43,14.25 C9.43,14.6365993 9.11659932,14.95 8.73,14.95 L5.3,14.95 C4.91340068,14.95 4.6,14.6365993 4.6,14.25 C4.6,13.8634007 4.91340068,13.55 5.3,13.55 L6.3,13.55 L6.3,11.55 L1.56,11.55 C1.17564964,11.5446237 0.865376315,11.2343504 0.86,10.85 L0.86,4.64 L0.7,4.64 C0.313400675,4.64 -9.32587341e-15,4.32659932 -9.76996262e-15,3.94 L-9.76996262e-15,1.7 C-9.76996262e-15,1.31340068 0.313400675,1 0.7,1 L13.3,1 Z M1.4,2.4 L1.4,3.24 L12.6,3.24 L12.6,2.4 L1.4,2.4 Z M11.74,10.15 L11.74,4.64 L2.26,4.64 L2.26,10.15 L11.74,10.15 Z M5.95,5.9 L8.55,7.4 L5.95,8.9 L5.95,5.9 Z" id="Combined-Shape"></path>
                </g>
            </g>
        </g>
    </g>
</svg>