<svg width="20" height="20" viewBox="0 0 20 20" fill="none" xmlns="http://www.w3.org/2000/svg">
  <path fill-rule="evenodd" clip-rule="evenodd" d="M19.465 12.44L17.985 11.22C18.1051 10.4111 18.1051 9.5889 17.985 8.78L19.465 7.56C19.7248 7.34004 19.7919 6.96666 19.625 6.67L17.695 3.33C17.5223 3.03661 17.1636 2.91 16.845 3.03L15.045 3.7C14.4081 3.18795 13.6965 2.77651 12.935 2.48L12.615 0.58C12.553 0.246737 12.264 0.00382225 11.925 0H8.075C7.73603 0.00382225 7.44705 0.246737 7.385 0.58L7.075 2.48C6.30814 2.77173 5.59254 3.18354 4.955 3.7L3.155 3C2.83641 2.88 2.47769 3.00661 2.305 3.3L0.375 6.67C0.208092 6.96666 0.275217 7.34004 0.535 7.56L2.015 8.77C1.895 9.58561 1.895 10.4144 2.015 11.23L0.545 12.44C0.278075 12.655 0.206123 13.0317 0.375 13.33L2.285 16.67C2.45769 16.9634 2.81641 17.09 3.135 16.97L4.935 16.3C5.57254 16.8165 6.28814 17.2283 7.055 17.52L7.365 19.42C7.42705 19.7533 7.71603 19.9962 8.055 20H11.905C12.2454 20.0002 12.5366 19.7554 12.595 19.42L12.915 17.52C13.675 17.2203 14.3861 16.8091 15.025 16.3L16.825 16.97C17.1465 17.0871 17.506 16.9617 17.685 16.67L19.605 13.33C19.7766 13.0379 19.718 12.6653 19.465 12.44ZM5.74501 10.0067C5.74133 7.6497 7.64806 5.73552 10.005 5.73C11.1392 5.72734 12.2279 6.17604 13.0308 6.97711C13.8338 7.77818 14.285 8.86579 14.285 10C14.285 12.357 12.3753 14.2682 10.0183 14.27C7.66138 14.2718 5.74869 12.3636 5.74501 10.0067ZM7.34635 11.1052C7.79372 12.1774 8.84329 12.874 10.005 12.87C11.5839 12.859 12.8596 11.5789 12.865 10C12.865 8.83828 12.1647 7.79115 11.091 7.34752C10.0173 6.90389 8.78209 7.15128 7.96207 7.97416C7.14204 8.79705 6.89897 10.0331 7.34635 11.1052ZM15.155 14.83L16.785 15.44L18.115 13.15L16.775 12.04C16.5735 11.8765 16.4808 11.6138 16.535 11.36C16.6259 10.9123 16.6728 10.4568 16.675 10C16.6709 9.55652 16.624 9.11448 16.535 8.68C16.4808 8.42624 16.5735 8.1635 16.775 8L18.115 6.83L16.785 4.53L15.155 5.14C14.9078 5.23287 14.6294 5.17873 14.435 5C13.7521 4.40183 12.9565 3.94623 12.095 3.66C11.8458 3.57926 11.6613 3.36784 11.615 3.11L11.335 1.4H8.665L8.385 3.11C8.34256 3.36636 8.16161 3.57811 7.915 3.66C7.04939 3.94377 6.25005 4.39956 5.565 5C5.37799 5.18396 5.10284 5.24597 4.855 5.16L3.215 4.55L1.885 6.85L3.225 8C3.40762 8.15934 3.49782 8.39987 3.465 8.64C3.27846 9.53707 3.27846 10.4629 3.465 11.36C3.51629 11.6165 3.42441 11.8807 3.225 12.05L1.885 13.15L3.225 15.47L4.855 14.86C5.09912 14.7689 5.37376 14.823 5.565 15C6.25005 15.6004 7.04939 16.0562 7.915 16.34C8.16161 16.4219 8.34256 16.6336 8.385 16.89L8.675 18.59H11.335L11.625 16.88C11.6631 16.6216 11.8457 16.4079 12.095 16.33C12.9581 16.0378 13.7539 15.5753 14.435 14.97C14.6294 14.7913 14.9078 14.7371 15.155 14.83Z" fill="#264966"/>
</svg>
