<?xml version="1.0" encoding="UTF-8"?>
<svg width="16px" height="12px" viewBox="0 0 16 12" version="1.1" xmlns="http://www.w3.org/2000/svg" xmlns:xlink="http://www.w3.org/1999/xlink">
    <!-- Generator: Sketch 52.6 (67491) - http://www.bohemiancoding.com/sketch -->
    <title>icon/views</title>
    <desc>Created with Sketch.</desc>
    <g id="Icons-✅" stroke="none" stroke-width="1" fill="none" fill-rule="evenodd">
        <g id="Icons" transform="translate(-326.000000, -806.000000)" fill="currentColor">
            <g id="icon/views" transform="translate(326.000000, 806.000000)">
                <g id="views">
                    <path d="M0.7,1.4 C0.313400675,1.4 2.6171905e-15,1.08659932 2.66453526e-15,0.7 C2.71188002e-15,0.313400675 0.313400675,4.48530102e-14 0.7,4.48530102e-14 L15.3,4.48530102e-14 C15.6865993,8.14701684e-09 16,0.313400681 16,0.7 C16,1.08659932 15.6865993,1.39999999 15.3,1.4 L0.7,1.4 Z M15.3,5.3 C15.6865993,5.3 16,5.61340068 16,6 C16,6.38659932 15.6865993,6.7 15.3,6.7 L0.7,6.7 C0.44991408,6.70000001 0.218825156,6.56658077 0.0937821928,6.35000001 C-0.0312607703,6.13341925 -0.0312607703,5.86658075 0.0937821928,5.64999999 C0.218825156,5.43341923 0.44991408,5.29999999 0.7,5.3 L15.3,5.3 Z M11.3,10.6 C11.6865993,10.6 12,10.9134007 12,11.3 C12,11.6865993 11.6865993,12 11.3,12 L0.7,12 C0.313400675,12 6.16990418e-15,11.6865993 6.21724894e-15,11.3 C6.2645937e-15,10.9134007 0.313400675,10.6 0.7,10.6 L11.3,10.6 Z" id="Combined-Shape"></path>
                </g>
            </g>
        </g>
    </g>
</svg>