<?xml version="1.0" encoding="UTF-8"?>
<svg width="14px" height="14px" viewBox="0 0 14 14" version="1.1" xmlns="http://www.w3.org/2000/svg" xmlns:xlink="http://www.w3.org/1999/xlink">
    <!-- Generator: Sketch 52.6 (67491) - http://www.bohemiancoding.com/sketch -->
    <title>icon/edit</title>
    <desc>Created with Sketch.</desc>
    <g id="Icons-✅" stroke="none" stroke-width="1" fill="none" fill-rule="evenodd">
        <g id="Icons" transform="translate(-656.000000, -2126.000000)" fill="currentColor">
            <g id="icon/edit" transform="translate(656.000000, 2126.000000)">
                <g id="edit" transform="translate(-1.000000, -1.000000)">
                    <path d="M14.39,2.58 L13.39,1.58 C12.5657949,0.788858761 11.2642051,0.788858761 10.44,1.58 L1.69,10.39 C1.58472503,10.5002572 1.51504078,10.6396257 1.49,10.79 L1,14.2 C0.967360866,14.417435 1.04186868,14.637233 1.2,14.79 C1.32962288,14.9273376 1.51118584,15.003594 1.7,15 L1.8,15 L5.21,14.51 C5.35941772,14.4883703 5.49882932,14.4221498 5.61,14.32 L13.12,6.8 L14.38,5.54 C14.7745937,5.14920591 14.9974255,4.61743169 14.9993017,4.06207534 C15.0011779,3.506719 14.7819442,2.97345131 14.39,2.58 Z M4.79,13.15 L2.53,13.48 L2.85,11.22 L9.7,4.36 L11.64,6.3 L4.79,13.15 Z M13.4,4.54 L12.63,5.31 L10.69,3.37 L11.46,2.6 C11.5902531,2.46303562 11.7709892,2.38549974 11.96,2.38549974 C12.1490108,2.38549974 12.3297469,2.46303562 12.46,2.6 L13.46,3.6 C13.695378,3.87870288 13.6689026,4.29348525 13.4,4.54 Z" id="Shape"></path>
                </g>
            </g>
        </g>
    </g>
</svg>