<?xml version="1.0" encoding="UTF-8"?>
<svg width="14px" height="15px" viewBox="0 0 14 15" version="1.1" xmlns="http://www.w3.org/2000/svg" xmlns:xlink="http://www.w3.org/1999/xlink">
    <!-- Generator: Sketch 52.6 (67491) - http://www.bohemiancoding.com/sketch -->
    <title>icon/article-expand</title>
    <desc>Created with Sketch.</desc>
    <g id="Icons-✅" stroke="none" stroke-width="1" fill="none" fill-rule="evenodd">
        <g id="Icons" transform="translate(-82.000000, -2785.000000)" fill="currentColor">
            <g id="icon/article-expand" transform="translate(82.000000, 2785.000000)">
                <g id="article-expand" transform="translate(-1.000000, -1.000000)">
                    <path d="M14.3,1 C14.6865993,1 15,1.31340068 15,1.7 L15,5.15 C15,5.53659932 14.6865993,5.85 14.3,5.85 C13.9134007,5.85 13.6,5.53659932 13.6,5.15 L13.6,3.39 L10,7 C9.86934812,7.13472156 9.68752141,7.20745225 9.5,7.2 C9.31312377,7.203808 9.13269796,7.13163767 9,7 C8.72544444,6.72320224 8.72544444,6.27679776 9,6 L12.61,2.4 L10.85,2.4 C10.4634007,2.39999999 10.15,2.08659932 10.15,1.7 C10.15,1.31340068 10.4634007,1.00000001 10.85,1 L14.3,1 Z M6,9 C6.17863279,8.82136719 6.43899577,8.75160314 6.68301271,8.81698728 C6.92702966,8.88237142 7.11762858,9.07297034 7.18301272,9.31698729 C7.24839686,9.56100423 7.17863281,9.82136721 7,10 L3.39,13.55 L5.15,13.55 C5.53659932,13.55 5.85,13.8634007 5.85,14.25 C5.85,14.6365993 5.53659932,14.95 5.15,14.95 L1.65,14.95 C1.59681523,14.9556297 1.54318477,14.9556297 1.49,14.95 L1.39,14.95 C1.21074812,14.8809237 1.06907633,14.7392519 1,14.56 C1,14.53 1,14.46 1,14.46 C0.995249858,14.4067724 0.995249858,14.3532276 1,14.3 L1,10.85 C1.00000001,10.4634007 1.31340068,10.15 1.7,10.15 C2.08659932,10.15 2.39999999,10.4634007 2.4,10.85 L2.4,12.61 L6,9 Z M14.3,10.15 C14.6865993,10.15 15,10.4634007 15,10.85 L15,14.34 C15,14.7265993 14.6865993,15.04 14.3,15.04 L10.85,15.04 C10.4634007,15.04 10.15,14.7265993 10.15,14.34 C10.15,13.9534007 10.4634007,13.64 10.85,13.64 L12.64,13.64 L9,10 C8.82136719,9.82136721 8.75160314,9.56100423 8.81698728,9.31698729 C8.88237142,9.07297034 9.07297034,8.88237142 9.31698729,8.81698728 C9.56100423,8.75160314 9.82136721,8.82136719 10,9 L13.6,12.61 L13.6,10.85 C13.6,10.4634007 13.9134007,10.15 14.3,10.15 Z M3.39,2.4 L7,6 C7.27455556,6.27679776 7.27455556,6.72320224 7,7 C6.86184438,7.12945344 6.67932541,7.20102951 6.49,7.2 C6.30678721,7.20002671 6.13086628,7.12822225 6,7 L2.4,3.39 L2.4,5.15 C2.39999999,5.53659932 2.08659932,5.84999999 1.7,5.84999999 C1.31340068,5.84999999 1.00000001,5.53659932 1,5.15 L1,1.7 C1.00658973,1.62797752 1.02342619,1.55726437 1.05,1.49 C1.05,1.46 1.05,1.39 1.05,1.39 C1.11907633,1.21074812 1.26074812,1.06907633 1.44,1 L1.54,1 C1.59318477,0.994370327 1.64681523,0.994370327 1.7,1 L5.15,1 C5.53659932,1.00000001 5.84999999,1.31340068 5.84999999,1.7 C5.84999999,2.08659932 5.53659932,2.39999999 5.15,2.4 L3.39,2.4 Z" id="Combined-Shape"></path>
                </g>
            </g>
        </g>
    </g>
</svg>