<svg viewBox="0 0 14 15"><path d="M13.3 0a.7.7 0 0 1 .7.7v3.45a.7.7 0 0 1-1.4 0V2.39L9 6a.66.66 0 0 1-.5.2A.69.69 0 0 1 8 6a.71.71 0 0 1 0-1l3.61-3.6H9.85a.7.7 0 0 1 0-1.4h3.45zM5 8a.707.707 0 1 1 1 1l-3.61 3.55h1.76a.7.7 0 0 1 0 1.4H.65a.76.76 0 0 1-.16 0h-.1a.68.68 0 0 1-.39-.39v-.1a.9.9 0 0 1 0-.16V9.85a.7.7 0 0 1 1.4 0v1.76L5 8zm8.3 1.15a.7.7 0 0 1 .7.7v3.49a.7.7 0 0 1-.7.7H9.85a.7.7 0 0 1 0-1.4h1.79L8 9a.707.707 0 1 1 1-1l3.6 3.61V9.85a.7.7 0 0 1 .7-.7zM2.39 1.4L6 5a.71.71 0 0 1 0 1 .74.74 0 0 1-.51.2A.7.7 0 0 1 5 6L1.4 2.39v1.76a.7.7 0 0 1-1.4 0V.7A.76.76 0 0 1 .05.49v-.1A.68.68 0 0 1 .44 0h.1A.76.76 0 0 1 .7 0h3.45a.7.7 0 0 1 0 1.4H2.39z" fill="currentColor" fill-rule="evenodd"/></svg>