<svg viewBox="0 0 14 14"><path d="M7 14a.7.7 0 0 1-.5-.21L5.05 12.3H2.4A2.41 2.41 0 0 1 0 9.89V2.4A2.41 2.41 0 0 1 2.4 0h9.2A2.41 2.41 0 0 1 14 2.4v7.49a2.41 2.41 0 0 1-2.4 2.41H9l-1.46 1.49A.7.7 0 0 1 7 14zM2.4 1.4a1 1 0 0 0-1 1v7.49a1 1 0 0 0 1 1h2.94a.7.7 0 0 1 .49.2L7 12.31l1.25-1.21a.7.7 0 0 1 .49-.2h2.86a1 1 0 0 0 1-1V2.4a1 1 0 0 0-1-1H2.4zm6.49 8.36a.61.61 0 0 1-.32-.08L7 8.86l-1.57.82a.69.69 0 0 1-.74 0A.69.69 0 0 1 4.42 9l.3-1.75L3.45 6a.71.71 0 0 1-.18-.72.7.7 0 0 1 .56-.47l1.76-.26.78-1.59a.74.74 0 0 1 1.26 0l.78 1.59 1.76.26a.7.7 0 0 1 .56.47.71.71 0 0 1-.18.72L9.28 7.2l.3 1.75a.69.69 0 0 1-.27.68.72.72 0 0 1-.42.13zM7 7.37a.67.67 0 0 1 .33.08l.67.33-.12-.71A.72.72 0 0 1 8 6.45L8.56 6l-.71-.1a.71.71 0 0 1-.53-.39L7 4.82l-.32.64a.71.71 0 0 1-.53.39L5.44 6l.52.5a.72.72 0 0 1 .2.62L6 7.78l.63-.33A.67.67 0 0 1 7 7.37z" fill="currentColor" fill-rule="evenodd"/></svg>