<?xml version="1.0" encoding="UTF-8"?>
<svg width="16px" height="16px" viewBox="0 0 16 16" version="1.1" xmlns="http://www.w3.org/2000/svg" xmlns:xlink="http://www.w3.org/1999/xlink">
    <!-- Generator: Sketch 52.6 (67491) - http://www.bohemiancoding.com/sketch -->
    <title>icon/chat-online</title>
    <desc>Created with Sketch.</desc>
    <g id="Icons-✅" stroke="none" stroke-width="1" fill="none" fill-rule="evenodd">
        <g id="Icons" transform="translate(-655.000000, -2520.000000)" fill="currentColor">
            <g id="icon/chat-online" transform="translate(655.000000, 2520.000000)">
                <g id="chat-online" transform="translate(-1.000000, 0.000000)">
                    <path d="M14.33,8.8817842e-15 C15.8023229,0.00548356883 16.9945164,1.19767707 17,2.67 L17,15.3 C16.9971282,15.5859759 16.8181382,15.8405395 16.55,15.94 C16.4620812,15.9799446 16.3665666,16.000412 16.27,16 C16.0962584,16.0013145 15.9284164,15.9370346 15.8,15.82 L12,12.4 L3.67,12.4 C2.1160237,12.2287009 0.95410804,10.8927155 1,9.33 L1,2.67 C1.00548357,1.19767707 2.19767707,0.00548356883 3.67,8.8817842e-15 L14.33,8.8817842e-15 Z M15.6,13.73 L15.6,2.67 C15.6,1.96859837 15.0314016,1.4 14.33,1.4 L3.67,1.4 C2.96859837,1.4 2.4,1.96859837 2.4,2.67 L2.4,9.33 C2.4,10.06 3,11 3.67,11 L12.3,11 C12.4737416,10.9986855 12.6415836,11.0629654 12.77,11.18 L15.6,13.73 Z M13,4 C13.3865993,4 13.7,4.31340068 13.7,4.7 C13.7,5.08659932 13.3865993,5.4 13,5.4 L5,5.4 C4.61340068,5.4 4.3,5.08659932 4.3,4.7 C4.3,4.31340068 4.61340068,4 5,4 L13,4 Z M10,7 C10.3865993,7 10.7,7.31340068 10.7,7.7 C10.7,8.08659932 10.3865993,8.4 10,8.4 L5,8.4 C4.61340068,8.4 4.3,8.08659932 4.3,7.7 C4.3,7.31340068 4.61340068,7 5,7 L10,7 Z" id="Combined-Shape"></path>
                </g>
            </g>
        </g>
    </g>
</svg>