<svg viewBox="0 0 16 16"><path d="M15.79.21a.69.69 0 0 1 0 .99L14 3v2.65a.7.7 0 0 1-.7.7h-2.66l-.47.47v6.48a.7.7 0 0 1-.7.7H6.53a.7.7 0 0 1-.7-.7v-2.14L1.2 15.79a.7.7 0 0 1-.5.21.67.67 0 0 1-.49-.2.69.69 0 0 1 0-1l5.62-5.62 1.4-1.4 1.54-1.55L10.06 5l1.54-1.6L13 2 14.79.21a.69.69 0 0 1 1 0zm-7 12.39l-.02-4.38-1.54 1.54v2.84h1.56zM12.6 5l-.04-.56L12 5h.6zM2.7 6.35A.7.7 0 0 1 2 5.7v-3a.7.7 0 0 1 .7-.7H11L9.63 3.4H3.4v1.55h3.13a.71.71 0 0 1 .7.7v.15l-1.4 1.4v-.85H2.7z" fill="currentColor" fill-rule="evenodd"/></svg>