<svg viewBox="0 0 16 15"><path d="M13.69 4.54L9.06 7.75a1.68 1.68 0 0 1-1 .3 1.74 1.74 0 0 1-1-.29L2.31 4.54a.7.7 0 1 1 .78-1.16L7.85 6.6c.1.069.23.069.33 0l4.73-3.22a.7.7 0 1 1 .78 1.16zM14.3.66a1.7 1.7 0 0 1 1.7 1.7v7.9l-1.4-1.4v-6.5a.3.3 0 0 0-.3-.3H1.7a.3.3 0 0 0-.3.3V11a.29.29 0 0 0 .3.3h5.45A1.83 1.83 0 0 0 7 12c0 .242.055.481.16.7H1.7A1.7 1.7 0 0 1 0 11V2.36A1.7 1.7 0 0 1 1.7.66h12.6zM16 12a1 1 0 0 1-.02.24.73.73 0 0 1-.16.23l-2 2a.67.67 0 0 1-.49.21.71.71 0 0 1-.5-1.2l.78-.78H8.7a.7.7 0 0 1 0-1.4h4.88l-.78-.77a.71.71 0 0 1 0-1 .69.69 0 0 1 1 0l2 2a.6.6 0 0 1 .2.47z" fill="currentColor" fill-rule="evenodd"/></svg>