<svg viewBox="0 0 16 16"><path d="M13.33 16H9.2a.7.7 0 0 1-.7-.7v-4.23a.7.7 0 0 1 .7-.7h1.35l.11-1H9.2a.7.7 0 0 1-.7-.7V6.9A1.5 1.5 0 0 1 10 5.4h.75v-1H10a2.5 2.5 0 0 0-2.5 2.5v1.77a.7.7 0 0 1-.7.7H5.25v1H6.8a.7.7 0 0 1 .7.7v4.23a.7.7 0 0 1-.7.7H2.67A2.68 2.68 0 0 1 0 13.33V2.67A2.68 2.68 0 0 1 2.67 0h10.66A2.68 2.68 0 0 1 16 2.67v10.66A2.68 2.68 0 0 1 13.33 16zM9.9 14.6h3.43a1.27 1.27 0 0 0 1.27-1.27V2.67a1.27 1.27 0 0 0-1.27-1.27H2.67A1.27 1.27 0 0 0 1.4 2.67v10.66c0 .701.569 1.27 1.27 1.27H6.1v-2.83H4.55a.7.7 0 0 1-.7-.7v-2.4a.7.7 0 0 1 .7-.7H6.1V6.9A3.91 3.91 0 0 1 10 3h1.45a.7.7 0 0 1 .7.7v2.4a.7.7 0 0 1-.7.7H10a.09.09 0 0 0-.1.1V8h1.55a.72.72 0 0 1 .55.2.69.69 0 0 1 .17.55l-.28 2.4a.7.7 0 0 1-.69.62H9.9v2.83z" fill="currentColor" fill-rule="evenodd"/></svg>