<svg viewBox="0 0 16 14"><path d="M15.86 5a.7.7 0 0 0-.56-.29h-1.76V4a2.34 2.34 0 0 0-2.34-2.36H6.73L5.3.21A.69.69 0 0 0 4.8 0H2.34A2.34 2.34 0 0 0 0 2.34v9.32c0 .431.121.854.35 1.22a2.33 2.33 0 0 0 2 1.12h9A2.69 2.69 0 0 0 14 12.11l2-6.47a.69.69 0 0 0-.14-.64zM2.34 1.4h2.17L6 2.83a.71.71 0 0 0 .44.17h4.76c.52 0 .94.42.94.94v.75h-9a.71.71 0 0 0-.67.49L1.4 8.72V2.34c0-.52.42-.94.94-.94zm10.27 10.29a1.3 1.3 0 0 1-1.24.91h-9a.93.93 0 0 1-.62-.23l2-6.24h10.6l-1.74 5.56z" fill="currentColor" fill-rule="evenodd"/></svg>