<?xml version="1.0" encoding="UTF-8"?>
<svg width="16px" height="16px" viewBox="0 0 16 16" version="1.1" xmlns="http://www.w3.org/2000/svg" xmlns:xlink="http://www.w3.org/1999/xlink">
    <!-- Generator: Sketch 52.6 (67491) - http://www.bohemiancoding.com/sketch -->
    <title>icon/image-resize</title>
    <desc>Created with Sketch.</desc>
    <g id="Icons-✅" stroke="none" stroke-width="1" fill="none" fill-rule="evenodd">
        <g id="Icons" transform="translate(-326.000000, -1861.000000)" fill="currentColor">
            <g id="icon/image-resize" transform="translate(326.000000, 1861.000000)">
                <g id="image-resize" transform="translate(-1.000000, -1.000000)">
                    <path d="M16,14.68 C16.3036801,14.5300057 16.6713287,14.6226061 16.8677254,14.8985558 C17.064122,15.1745055 17.0311904,15.5522037 16.79,15.79 L15.79,16.79 C15.6627456,16.9247643 15.4853496,17.0007911 15.3,17 C15.1118867,17.0000269 14.9316793,16.9243397 14.8,16.79 L13.8,15.79 C13.5660889,15.5471078 13.5385956,15.1719677 13.7345953,14.8975681 C13.930595,14.6231685 14.294374,14.5275086 14.6,14.67 L14.6,8.31 C14.294374,8.45249139 13.930595,8.35683154 13.7345953,8.08243193 C13.5385956,7.80803232 13.5660889,7.43289223 13.8,7.19 L14.8,6.19 C14.8651102,6.12419192 14.9435264,6.07305094 15.03,6.04 C15.2031835,5.96994382 15.3968165,5.96994382 15.57,6.04 C15.6547043,6.07085264 15.7303369,6.12242029 15.79,6.19 L16.79,7.19 C16.9269644,7.32025306 17.0045003,7.50098915 17.0045003,7.69 C17.0045003,7.87901085 16.9269644,8.05974694 16.79,8.19 C16.6617181,8.32210239 16.4840816,8.39460708 16.3,8.39 C16.1964757,8.38582894 16.0946797,8.36207653 16,8.32 L16,14.68 Z M2.21,4.2 L1.2,3.21 C1.06303562,3.07974694 0.985499737,2.89901085 0.985499737,2.71 C0.985499737,2.52098915 1.06303562,2.34025306 1.2,2.21 L2.2,1.21 C2.33025306,1.07303562 2.51098915,0.995499737 2.7,0.995499737 C2.88901085,0.995499737 3.06974694,1.07303562 3.2,1.21 C3.40451313,1.42011653 3.45640006,1.7354294 3.33,2 L9.69,2 C9.57608801,1.73843894 9.64029996,1.43343221 9.85,1.24 C9.98025306,1.10303562 10.1609892,1.02549974 10.35,1.02549974 C10.5390108,1.02549974 10.7197469,1.10303562 10.85,1.24 L11.85,2.24 C11.9111183,2.30510125 11.9617247,2.37932402 12,2.46 C12.0700562,2.63318352 12.0700562,2.82681648 12,3 C11.9449961,3.07411197 11.8811957,3.14127021 11.81,3.2 L10.81,4.2 C10.6743667,4.32709666 10.4958701,4.39849533 10.31,4.4 C10.1267872,4.40002671 9.95086628,4.32822225 9.82,4.2 C9.60811351,3.98956218 9.55564865,3.66670147 9.69,3.4 L3.33,3.4 C3.45512417,3.66805183 3.40356166,3.98535961 3.2,4.2 C3.06436674,4.32709666 2.88587006,4.39849533 2.7,4.4 C2.51678721,4.40002671 2.34086628,4.32822225 2.21,4.2 Z M11.31,6 C11.6965993,6 12.01,6.31340068 12.01,6.7 L12.01,7.7 C12.01,8.08659932 11.6965993,8.4 11.31,8.4 C10.9234007,8.4 10.61,8.08659932 10.61,7.7 L10.61,7.4 L10.31,7.4 C9.92340068,7.4 9.61,7.08659932 9.61,6.7 C9.61,6.31340068 9.92340068,6 10.31,6 L11.31,6 Z M7.27,6 C7.65659932,6 7.97,6.31340068 7.97,6.7 C7.97,7.08659932 7.65659932,7.4 7.27,7.4 L5.75,7.4 C5.36340068,7.4 5.05,7.08659932 5.05,6.7 C5.05,6.31340068 5.36340068,6 5.75,6 L7.27,6 Z M2.71,6 C2.96008592,5.99999999 3.19117484,6.13341924 3.3162178,6.34999999 C3.44126076,6.56658075 3.44126076,6.83341925 3.3162178,7.05000001 C3.19117484,7.26658076 2.96008592,7.40000001 2.71,7.4 L2.41,7.4 L2.41,7.7 C2.40999999,8.08659932 2.09659932,8.39999999 1.71,8.39999999 C1.32340068,8.39999999 1.01000001,8.08659932 1.01,7.7 L1.01,6.7 C1.01537631,6.31564964 1.32564964,6.00537631 1.71,6 L2.71,6 Z M1.71,13 C1.50961845,13.0013134 1.31828188,12.9166875 1.18444222,12.7675519 C1.05060255,12.6184162 0.987094455,12.4190724 1.01,12.22 L1.01,10.7 C1.01537631,10.3156496 1.32564964,10.0053763 1.71,10 C1.90096821,9.99982454 2.08371783,10.0776781 2.21589083,10.2155156 C2.34806382,10.3533532 2.41818444,10.5392072 2.41,10.73 L2.41,12.3 C2.41,12.6865993 2.09659932,13 1.71,13 Z M2.71,15.59 C3.09659932,15.59 3.41,15.9034007 3.41,16.29 C3.41,16.6765993 3.09659932,16.99 2.71,16.99 L1.71,16.99 C1.32340068,16.99 1.01,16.6765993 1.01,16.29 L1.01,15.29 C1.01537631,14.9056496 1.32564964,14.5953763 1.71,14.59 C2.09659932,14.59 2.41,14.9034007 2.41,15.29 L2.41,15.59 L2.71,15.59 Z M7.27,15.59 C7.65659932,15.59 7.97,15.9034007 7.97,16.29 C7.97,16.6765993 7.65659932,16.99 7.27,16.99 L5.75,16.99 C5.36340068,16.99 5.05,16.6765993 5.05,16.29 C5.05,15.9034007 5.36340068,15.59 5.75,15.59 L7.27,15.59 Z M11.31,14.59 C11.6965993,14.59 12.01,14.9034007 12.01,15.29 L12.01,16.29 C12.01,16.6765993 11.6965993,16.99 11.31,16.99 L10.31,16.99 C9.92340068,16.99 9.61,16.6765993 9.61,16.29 C9.61,15.9034007 9.92340068,15.59 10.31,15.59 L10.61,15.59 L10.61,15.29 C10.61,14.9034007 10.9234007,14.59 11.31,14.59 Z M11.31,10 C11.5009682,9.99982454 11.6837178,10.0776781 11.8158908,10.2155156 C11.9480638,10.3533532 12.0181844,10.5392072 12.01,10.73 L12.01,12.22 C12.01,12.6065993 11.6965993,12.92 11.31,12.92 C10.9234007,12.92 10.61,12.6065993 10.61,12.22 L10.61,10.7 C10.61,10.3134007 10.9234007,10 11.31,10 Z" id="Combined-Shape"></path>
                </g>
            </g>
        </g>
    </g>
</svg>