<svg viewBox="0 0 15 12"><path d="M.6 2.76V1l-.25.18L.02.59.78.08l.43-.02h.1v2.7H.6zM.17 7.39v-.5l.71-.81c.22-.25.29-.36.29-.57 0-.21-.1-.17-.14-.17-.04 0-.15 0-.16.25v.1h-.7v-.13A.79.79 0 0 1 1 4.69a.76.76 0 0 1 .86.8 1.4 1.4 0 0 1-.47 1l-.25.26h.73v.65l-1.7-.01zM1 12a.81.81 0 0 1-.9-.84h.7c0 .2.12.23.2.23.08 0 .19 0 .19-.23s0-.2-.22-.2h-.4v-.63h.35a.17.17 0 0 0 .18-.18C1.1 10 1 10 1 10s-.16 0-.17.21H.14A.78.78 0 0 1 1 9.34a.77.77 0 0 1 .85.81.66.66 0 0 1-.19.49.69.69 0 0 1 .24.54.83.83 0 0 1-.9.82zm12.8-5.3H3.47a.7.7 0 0 1 0-1.4H13.8a.7.7 0 0 1 0 1.4zm0-4.6H3.47a.7.7 0 0 1 0-1.4H13.8a.7.7 0 0 1 0 1.4zm0 9.2H3.47a.7.7 0 0 1 0-1.4H13.8a.7.7 0 0 1 0 1.4z" fill="currentColor" fill-rule="evenodd"/></svg>