<?xml version="1.0" encoding="UTF-8"?>
<svg width="16px" height="4px" viewBox="0 0 16 4" version="1.1" xmlns="http://www.w3.org/2000/svg" xmlns:xlink="http://www.w3.org/1999/xlink">
    <!-- Generator: Sketch 52.6 (67491) - http://www.bohemiancoding.com/sketch -->
    <title>icon/more-horizontal</title>
    <desc>Created with Sketch.</desc>
    <g id="Icons-✅" stroke="none" stroke-width="1" fill="none" fill-rule="evenodd">
        <g id="Icons" transform="translate(-490.000000, -1602.000000)" fill="currentColor">
            <g id="icon/more-horizontal" transform="translate(490.000000, 1602.000000)">
                <g id="more-horizontal">
                    <path d="M12.91,2 C12.9100131,1.37217632 13.2887496,0.806367712 13.8691735,0.567054909 C14.4495975,0.327742105 15.1170574,0.462196703 15.5595567,0.907569444 C16.0020561,1.35294218 16.1321878,2.02125834 15.8891233,2.60012119 C15.6460587,3.17898404 15.0778106,3.55405048 14.45,3.55 C13.5978665,3.54450225 12.9099823,2.85215128 12.91,2 Z M-4.5519144e-14,2 C-4.56239788e-14,1.14395864 0.693958638,0.45 1.55,0.45 C2.40604136,0.45 3.1,1.14395864 3.1,2 C3.1,2.85604136 2.40604136,3.55 1.55,3.55 C1.13891444,3.55 0.744665876,3.3866969 0.453984489,3.09601551 C0.163303103,2.80533412 -4.54688005e-14,2.41108556 -4.5519144e-14,2 Z M6.45,2 C6.45,1.14395864 7.14395864,0.45 8,0.45 C8.85604136,0.45 9.55,1.14395864 9.55,2 C9.55,2.85604136 8.85604136,3.55 8,3.55 C7.14622862,3.54454443 6.45545557,2.85377138 6.45,2 Z" id="Combined-Shape"></path>
                </g>
            </g>
        </g>
    </g>
</svg>