<?xml version="1.0" encoding="UTF-8"?>
<svg width="16px" height="16px" viewBox="0 0 16 16" version="1.1" xmlns="http://www.w3.org/2000/svg" xmlns:xlink="http://www.w3.org/1999/xlink">
    <!-- Generator: Sketch 52.6 (67491) - http://www.bohemiancoding.com/sketch -->
    <title>icon/multilingual</title>
    <desc>Created with Sketch.</desc>
    <g id="Icons-✅" stroke="none" stroke-width="1" fill="none" fill-rule="evenodd">
        <g id="Icons" transform="translate(-326.000000, -1596.000000)" fill="currentColor">
            <g id="icon/multilingual" transform="translate(326.000000, 1596.000000)">
                <g id="multilingual">
                    <path d="M15.93,15 L11.63,6.4 C11.5145054,6.15651177 11.2694896,6.00094614 11,6 C10.7349936,5.99807842 10.4930134,6.15029175 10.38,6.39 L9,9.15 C8.08876894,8.84274275 7.23160448,8.39391254 6.46,7.82 C7.87524479,6.42928895 8.86399782,4.66341075 9.31,2.73 L10.05,2.73 C10.4365993,2.73 10.75,2.41659932 10.75,2.03 C10.75,1.64340068 10.4365993,1.33 10.05,1.33 L6.05,1.33 L6.05,0.7 C5.97277596,0.381563688 5.68766635,0.157332005 5.36,0.157332005 C5.03233365,0.157332005 4.74722404,0.381563688 4.67,0.7 L4.67,1.33 L0.7,1.33 C0.313400679,1.33000001 1.04308136e-08,1.64340068 1.04308135e-08,2.03 C1.04308135e-08,2.41659932 0.313400679,2.72999999 0.7,2.73 L7.86,2.73 C7.422184,4.31951814 6.5616678,5.76062358 5.37,6.9 C4.49173487,6.04176251 3.78571857,5.02346977 3.29,3.9 C3.12431458,3.54377634 2.70122366,3.38931458 2.345,3.555 C1.98877634,3.72068542 1.83431458,4.14377634 2,4.5 C2.55518738,5.73913609 3.33499606,6.86477297 4.3,7.82 C3.45259976,8.45481378 2.50197593,8.9385832 1.49,9.25 C1.15833672,9.35034664 0.95000092,9.67824645 1.00005592,10.0211232 C1.05011093,10.364 1.34349145,10.6186565 1.69,10.62 L1.89,10.62 C3.15883004,10.2389686 4.34569256,9.62519112 5.39,8.81 C6.2982597,9.50740802 7.31065364,10.0574754 8.39,10.44 L6.07,15 C5.90338873,15.348224 6.04552913,15.7657614 6.39,15.94 C6.48707766,15.9844112 6.59336228,16.0049824 6.7,16 C6.96722707,16.0009099 7.21165744,15.8495959 7.33,15.61 L8.89,12.5 L13.12,12.5 L14.67,15.61 C14.7770575,15.8382941 14.9986233,15.9913689 15.2500288,16.0107286 C15.5014343,16.0300882 15.7438242,15.9127407 15.8845721,15.703529 C16.02532,15.4943173 16.0426731,15.2255755 15.93,15 Z M9.59,11.1 L11,8.27 L12.42,11.1 L9.59,11.1 Z" id="Shape"></path>
                </g>
            </g>
        </g>
    </g>
</svg>