<svg viewBox="0 0 16 16"><path d="M9.134 7.867l-2.254 2.25V12.3a.7.7 0 0 1-.71.7.7.7 0 0 1-.7-.7v-.774L3.423 13.57A1.27 1.27 0 0 0 4.66 14.6h6.68a1.27 1.27 0 0 0 1.26-1.27V4.406l-2.07 2.067V12.3a.71.71 0 0 1-1.41 0l.014-4.433zm.006-2V5.85L10 5l.005.001L11.608 3.4H11.6L13 2h.009L14.8.21a.69.69 0 0 1 1 0 .69.69 0 0 1 0 1l-1 1a.7.7 0 0 1-.5 1.19H14v9.93A2.67 2.67 0 0 1 11.34 16H4.66a2.67 2.67 0 0 1-2.314-1.355L1.2 15.79a.7.7 0 0 1-.5.21.67.67 0 0 1-.49-.21.69.69 0 0 1 0-1L2 13.001V13l.19-.189 3.28-3.277V9.53l.563-.559L9.14 5.866zM1.7 3.4a.7.7 0 0 1 0-1.4h3.6v-.3A1.7 1.7 0 0 1 7 0h2a1.7 1.7 0 0 1 1.64 1.7V2H11L9.63 3.4H3.4v6.2L2 11V3.4h-.3zm5-1.7l.03.3H9.3v-.3a.29.29 0 0 0-.3-.3H7a.29.29 0 0 0-.3.3zM6.17 5a.7.7 0 0 1 .71.7v.45l-1.41 1.4V5.7a.7.7 0 0 1 .7-.7z" fill="currentColor" fill-rule="evenodd"/></svg>