<?xml version="1.0" encoding="UTF-8"?>
<svg width="18px" height="18px" viewBox="0 0 18 18" version="1.1" xmlns="http://www.w3.org/2000/svg" xmlns:xlink="http://www.w3.org/1999/xlink">
    <!-- Generator: Sketch 52.6 (67491) - http://www.bohemiancoding.com/sketch -->
    <title>icon/notifications</title>
    <desc>Created with Sketch.</desc>
    <g id="Icons-✅" stroke="none" stroke-width="1" fill="none" fill-rule="evenodd">
        <g id="Icons" transform="translate(-571.000000, -1463.000000)" fill="currentColor">
            <g id="icon/notifications" transform="translate(571.000000, 1463.000000)">
                <g id="notifications" transform="translate(0.000000, -1.000000)">
                    <path d="M17.36,13.89 L16.73,13.26 C16.0970035,12.6369965 15.7373118,11.7881241 15.73,10.9 L15.73,9.8 C15.7738756,6.32901609 13.2673856,3.35016555 9.84,2.8 C9.84470926,2.76348454 9.84470926,2.72651546 9.84,2.69 L9.84,1.69 C9.84,1.30340068 9.52659932,0.99 9.14,0.99 C8.75340068,0.99 8.44,1.30340068 8.44,1.69 L8.44,2.69 C8.43566466,2.71313196 8.43566466,2.73686804 8.44,2.76 C4.91297373,3.04819379 2.20727486,6.01137046 2.24,9.55 L2.24,10.9 C2.2382651,11.7892717 1.87770012,12.6402051 1.24,13.26 L0.61,13.89 C0.201271756,14.2915341 0.0784672366,14.9015952 0.3,15.43 C0.520625815,15.9595416 1.03635037,16.3059825 1.61,16.31 L5.61,16.31 C5.93510171,17.8848785 7.32191623,19.0146534 8.93,19.0146534 C10.5380838,19.0146534 11.9248983,17.8848785 12.25,16.31 L16.25,16.31 C16.8236496,16.3059825 17.3393742,15.9595416 17.56,15.43 C17.8102376,14.923346 17.7313521,14.3159281 17.36,13.89 Z M9,17.6 C8.16924437,17.6001111 7.42491825,17.0866455 7.13,16.31 L10.87,16.31 C10.5750818,17.0866455 9.83075563,17.6001111 9,17.6 Z M16.36,14.9 L2.94,14.9 L1.63,14.9 L2.26,14.27 C3.15417665,13.3777567 3.65155777,12.1631376 3.64,10.9 L3.64,9.55 C3.64,6.58975374 6.03975374,4.19 9,4.19 L9.17,4.19 C12.1193953,4.37638922 14.4032247,6.84503723 14.36,9.8 L14.36,10.9 C14.360421,12.1549192 14.85639,13.3589019 15.74,14.25 L16.37,14.9 L16.36,14.9 Z" id="Shape"></path>
                </g>
            </g>
        </g>
    </g>
</svg>