<?xml version="1.0" encoding="UTF-8"?>
<svg width="14px" height="15px" viewBox="0 0 14 15" version="1.1" xmlns="http://www.w3.org/2000/svg" xmlns:xlink="http://www.w3.org/1999/xlink">
    <!-- Generator: Sketch 52.6 (67491) - http://www.bohemiancoding.com/sketch -->
    <title>icon/paragraph</title>
    <desc>Created with Sketch.</desc>
    <g id="Icons-✅" stroke="none" stroke-width="1" fill="none" fill-rule="evenodd">
        <g id="Icons" transform="translate(-327.000000, -1464.000000)" fill="currentColor">
            <g id="icon/paragraph" transform="translate(327.000000, 1464.000000)">
                <g id="paragraph">
                    <path d="M13.3,2.22044605e-16 L4.67,2.22044605e-16 C2.17207098,0.115559426 0.206275288,2.1743994 0.206275288,4.675 C0.206275288,7.1756006 2.17207098,9.23444057 4.67,9.35 L7.53,9.35 L7.53,13.35 C7.53,13.7365993 7.84340068,14.05 8.23,14.05 C8.61659932,14.05 8.93,13.7365993 8.93,13.35 L8.93,1.4 L10.4,1.4 L10.4,13.3 C10.4,13.6865993 10.7134007,14 11.1,14 C11.4865993,14 11.8,13.6865993 11.8,13.3 L11.8,1.4 L13.3,1.4 C13.5500859,1.4 13.7811748,1.26658076 13.9062178,1.05 C14.0312608,0.833419248 14.0312608,0.566580752 13.9062178,0.349999997 C13.7811748,0.133419242 13.5500859,-3.7265705e-09 13.3,2.22044605e-16 Z M4.67,8 C2.93149841,7.9038974 1.57103867,6.46615579 1.57103867,4.725 C1.57103867,2.98384421 2.93149841,1.5461026 4.67,1.45 L7.53,1.45 L7.53,8 L4.67,8 Z" id="Shape"></path>
                </g>
            </g>
        </g>
    </g>
</svg>