<svg viewBox="0 0 16 16"><path d="M15 2.72l-1-1.14A4.41 4.41 0 0 0 7.83 1a4.34 4.34 0 0 0-1.56 3 4.37 4.37 0 0 0 1 3.22l-7 5.87a.72.72 0 0 0-.09 1 .72.72 0 0 0 .54.25.75.75 0 0 0 .45-.16l.2-.18 1.45 1.74a.7.7 0 0 0 .98.09.7.7 0 0 0 .09-1l-1.45-1.71 1.2-1 .82 1a.7.7 0 0 0 .54.26.72.72 0 0 0 .701-.653.7.7 0 0 0-.171-.517l-.81-1 3.47-2.9a4.41 4.41 0 0 0 6.2.56A4.41 4.41 0 0 0 15 2.72zm-1.48 5.12a3 3 0 0 1-4.23-.38l-.47-.57-.48-.57a3 3 0 0 1-.68-2.19 2.94 2.94 0 0 1 1.07-2 3 3 0 0 1 1.92-.7A3 3 0 0 1 13 2.48l.94 1.14a3 3 0 0 1-.38 4.22h-.04z" fill="currentColor" fill-rule="evenodd"/></svg>