<svg viewBox="0 0 16 16"><path d="M15.51 10.71a7.78 7.78 0 0 0 0-5.38A8 8 0 0 0 8 0 8 8 0 0 0 .48 5.29a7.93 7.93 0 0 0 0 5.38A8 8 0 0 0 8 16a8 8 0 0 0 7.51-5.29zm-9.43.42h3.84A9.37 9.37 0 0 1 8 14.31a9.37 9.37 0 0 1-1.92-3.18zm-.38-1.4A9 9 0 0 1 5.54 8a9 9 0 0 1 .16-1.73h4.6A9 9 0 0 1 10.46 8a9 9 0 0 1-.16 1.73H5.7zM1.4 8a6.57 6.57 0 0 1 .24-1.73h2.65A10.91 10.91 0 0 0 4.14 8c.004.58.054 1.158.15 1.73H1.64A6.57 6.57 0 0 1 1.4 8zM8 1.69a9.37 9.37 0 0 1 1.92 3.18H6.08A9.37 9.37 0 0 1 8 1.69zm3.71 4.58h2.65a6.36 6.36 0 0 1 0 3.46h-2.65c.096-.572.146-1.15.15-1.73a10.91 10.91 0 0 0-.15-1.73zm2.09-1.4h-2.4a10.66 10.66 0 0 0-1.64-3.22 6.59 6.59 0 0 1 4.04 3.22zM6.24 1.65A10.66 10.66 0 0 0 4.6 4.87H2.19a6.61 6.61 0 0 1 4.05-3.22zm-4.05 9.48H4.6a10.66 10.66 0 0 0 1.64 3.22 6.61 6.61 0 0 1-4.05-3.22zm7.57 3.22a10.66 10.66 0 0 0 1.64-3.22h2.4a6.59 6.59 0 0 1-4.04 3.22z" fill="currentColor" fill-rule="evenodd"/></svg>