<svg viewBox="0 0 16 16"><path d="M14.3 3A1.7 1.7 0 0 1 16 4.7v6.6a1.7 1.7 0 0 1-1.7 1.7h-.8v2.3a.7.7 0 0 1-.7.7H3.2a.7.7 0 0 1-.7-.7V13h-.8A1.7 1.7 0 0 1 0 11.3V4.7A1.7 1.7 0 0 1 1.7 3h.8V.7a.7.7 0 0 1 .7-.7h8.6a.65.65 0 0 1 .49.21l1 1a.65.65 0 0 1 .21.49V3h.8zM3.9 1.4V3h8.2V2l-.59-.6H3.9zm8.2 13.2V9.4H3.9v5.2h8.2zm2.5-3.3V4.7a.3.3 0 0 0-.3-.3H1.7a.3.3 0 0 0-.3.3v6.6a.3.3 0 0 0 .3.3h.8V8.7a.7.7 0 0 1 .7-.7h9.6a.7.7 0 0 1 .7.7v2.9h.8a.3.3 0 0 0 .3-.3zM3.35 5a1.06 1.06 0 0 1 1.06 1 1.05 1.05 0 1 1-1.06-1zm6.45 6.3a.7.7 0 0 1 0 1.4H6.2a.7.7 0 0 1 0-1.4h3.6z" fill="currentColor" fill-rule="evenodd"/></svg>