<svg viewBox="0 0 16 16"><path d="M14.57 3.11c.79 0 1.43.64 1.43 1.43V6.3a3.13 3.13 0 0 1-2.95 3.11A5.61 5.61 0 0 1 8.7 12.6v2h1.73a.7.7 0 0 1 0 1.4H5.57a.7.7 0 0 1 0-1.4H7.3v-2A5.61 5.61 0 0 1 3 9.41 3.13 3.13 0 0 1 0 6.3V4.54c0-.79.64-1.43 1.43-1.43h1V1.4A1.4 1.4 0 0 1 3.83 0h8.34a1.4 1.4 0 0 1 1.4 1.4v1.71h1zM1.4 6.3a1.72 1.72 0 0 0 1.07 1.6 5.55 5.55 0 0 1-.07-.82V4.51h-1V6.3zM8 11.24a4.17 4.17 0 0 0 4.17-4.16V1.4H3.83v5.68A4.17 4.17 0 0 0 8 11.24zm6.6-4.94l-.03-1.78h-1v2.56a5.54 5.54 0 0 1-.07.81 1.76 1.76 0 0 0 1.1-1.59zM9.48 4.94a.69.69 0 0 1 .57.52.71.71 0 0 1-.18.72l-.43.42.1.58a.7.7 0 0 1-.27.69.72.72 0 0 1-.74 0L8 7.59l-.48.23a.73.73 0 0 1-.74 0 .7.7 0 0 1-.27-.69l.1-.58-.43-.42A.71.71 0 0 1 6 5.41a.69.69 0 0 1 .52-.47l.59-.09.26-.53a.73.73 0 0 1 1.26 0l.26.53.59.09z" fill="currentColor" fill-rule="evenodd"/></svg>