<?xml version="1.0" encoding="UTF-8"?>
<svg width="16px" height="17px" viewBox="0 0 16 17" version="1.1" xmlns="http://www.w3.org/2000/svg" xmlns:xlink="http://www.w3.org/1999/xlink">
    <!-- Generator: Sketch 52.6 (67491) - http://www.bohemiancoding.com/sketch -->
    <title>icon/show-activities</title>
    <desc>Created with Sketch.</desc>
    <g id="Icons-✅" stroke="none" stroke-width="1" fill="none" fill-rule="evenodd">
        <g id="Icons" transform="translate(-572.000000, -1200.000000)" fill="currentColor">
            <g id="icon/show-activities" transform="translate(572.000000, 1200.000000)">
                <g id="show-activities" transform="translate(0.000000, -1.000000)">
                    <path d="M15.72,6.89 C15.9262209,7.67920395 16.0105289,8.49530536 15.97,9.31 C15.9591737,9.68876697 15.6489216,9.99015469 15.27,9.99 C14.8841608,9.96857746 14.5840386,9.64638744 14.59,9.26 C14.6209194,8.58595548 14.546697,7.91120671 14.37,7.26 C14.2988651,7.01720058 14.3642841,6.75491144 14.5411099,6.57395735 C14.7179357,6.39300325 14.9786455,6.32154946 15.2230216,6.38706302 C15.4673978,6.45257658 15.6574035,6.64486041 15.72,6.89 Z M12.6,4.28 C12.3408518,4.00304827 12.0525083,3.75493872 11.74,3.54 C11.4436136,3.31593312 11.3739248,2.89934247 11.5812499,2.59101284 C11.788575,2.28268321 12.2006717,2.19005185 12.52,2.38 C12.8995931,2.63269287 13.254499,2.9206354 13.58,3.24 C13.8281366,3.47625499 14.058746,3.73025953 14.27,4 C14.3910296,4.14598173 14.447655,4.3348201 14.426921,4.5233113 C14.4061869,4.7118025 14.3098677,4.88381698 14.16,5 C14.0407842,5.11257241 13.8839339,5.17673846 13.72,5.18 C13.5059417,5.17501555 13.3048646,5.07630494 13.17,4.91 C12.9962565,4.68584471 12.8057063,4.4752366 12.6,4.28 Z M7.37,2.43 C7.18361093,2.45236454 6.99615545,2.39781979 6.85086352,2.27894458 C6.7055716,2.16006937 6.61498705,1.98712682 6.6,1.8 C6.57470469,1.60829994 6.6286895,1.41457547 6.74948163,1.26358531 C6.87027376,1.11259515 7.04742292,1.01740215 7.24,1 C8.09522805,0.931361394 8.95593047,0.998867467 9.79,1.2 C10.1567913,1.27526702 10.3937195,1.63289454 10.32,2 C10.2574817,2.32589585 9.97183634,2.56113318 9.64,2.56 L9.49,2.56 C8.79366599,2.41195262 8.0792056,2.36814137 7.37,2.43 Z M14.67,12 C14.8719926,12.0851464 15.0215101,12.2612056 15.0728159,12.4743221 C15.1241217,12.6874386 15.0711112,12.9122545 14.93,13.08 C14.5566429,13.7470793 14.0846506,14.3539267 13.53,14.88 C10.5755858,17.6338395 6.03189234,17.7536266 2.93648187,15.1592809 C-0.158928595,12.5649353 -0.835101538,8.07023961 1.36,4.68 C1.61234399,4.31862166 1.90046656,3.98359542 2.22,3.68 L0.92,3.68 C0.669914085,3.68 0.438825167,3.54658076 0.313782209,3.33 C0.18873925,3.11341925 0.18873925,2.84658075 0.313782209,2.63 C0.438825167,2.41341924 0.669914085,2.28 0.92,2.28 L4.23,2.28 C4.27649548,2.27434716 4.32350452,2.27434716 4.37,2.28 L4.5,2.28 L4.6,2.35 L4.71,2.44 C4.71538776,2.46639453 4.71538776,2.49360547 4.71,2.52 C4.73699571,2.55774815 4.76042955,2.59792045 4.78,2.64 C4.78367611,2.68659427 4.78367611,2.73340573 4.78,2.78 C4.78,2.81 4.78,2.87 4.78,2.87 L4.78,6.07 C4.77999999,6.45659932 4.46659932,6.76999998 4.08,6.76999998 C3.69340068,6.76999998 3.38000001,6.45659932 3.38,6.07 L3.38,4.35 C3.04216104,4.6472285 2.7401226,4.98282677 2.48,5.35 C0.700520033,7.99366805 1.0712576,11.5325267 3.36,13.75 C5.940417,16.1533071 9.939583,16.1533071 12.52,13.75 C12.975556,13.3135183 13.363187,12.8112834 13.67,12.26 C13.7618467,12.0862503 13.9225037,11.9591144 14.1127117,11.9096603 C14.3029197,11.8602063 14.5051558,11.8929899 14.67,12 Z M8.7,5.7 L8.7,8.3 L11.3,8.3 C11.6865993,8.3 12,8.61340068 12,9 C12,9.38659932 11.6865993,9.7 11.3,9.7 L8,9.7 C7.61340068,9.7 7.3,9.38659932 7.3,9 L7.3,5.7 C7.3,5.31340068 7.61340068,5 8,5 C8.38659932,5 8.7,5.31340068 8.7,5.7 Z" id="Combined-Shape"></path>
                </g>
            </g>
        </g>
    </g>
</svg>