<svg viewBox="0 0 16 16"><path d="M8 4.44a1.4 1.4 0 0 1 .7 2.61v8.25a.7.7 0 0 1-1.4 0V7.05A1.4 1.4 0 0 1 8 4.44zm3.59-2.18l-.01.02a5 5 0 0 1 0 7.16.67.67 0 0 1-.49.2.69.69 0 0 1-.5-.2.71.71 0 0 1 0-1 3.65 3.65 0 0 0 0-5.18.707.707 0 1 1 1-1zm-6.19 0a.71.71 0 0 1-.01.98 3.65 3.65 0 0 0 0 5.18.71.71 0 0 1 0 1 .69.69 0 0 1-.5.2.67.67 0 0 1-.49-.2 5 5 0 0 1 0-7.16.71.71 0 0 1 1 0zM13.66.21l-.01.02a8 8 0 0 1 0 11.27.74.74 0 0 1-.5.2.67.67 0 0 1-.49-.21.69.69 0 0 1 0-1 6.54 6.54 0 0 0 0-9.28.69.69 0 0 1 0-1 .69.69 0 0 1 1 0zM1.4 5.84a6.53 6.53 0 0 0 1.92 4.62.69.69 0 0 1 0 1 .67.67 0 0 1-.49.21.74.74 0 0 1-.5-.2A8 8 0 0 1 2.33.2a.69.69 0 0 1 1 0 .69.69 0 0 1 0 1A6.53 6.53 0 0 0 1.4 5.84z" fill="currentColor" fill-rule="evenodd"/></svg>