<?xml version="1.0" encoding="UTF-8"?>
<svg width="16px" height="16px" viewBox="0 0 16 16" version="1.1" xmlns="http://www.w3.org/2000/svg" xmlns:xlink="http://www.w3.org/1999/xlink">
    <!-- Generator: Sketch 52.6 (67491) - http://www.bohemiancoding.com/sketch -->
    <title>icon/survery-sad</title>
    <desc>Created with Sketch.</desc>
    <g id="Icons-✅" stroke="none" stroke-width="1" fill="none" fill-rule="evenodd">
        <g id="Icons" transform="translate(-818.000000, -1068.000000)" fill="currentColor">
            <g id="icon/survery-sad" transform="translate(818.000000, 1068.000000)">
                <g id="survery-sad">
                    <path d="M8,0 C10.1217319,1.2991861e-16 12.1565632,0.842854723 13.6568542,2.34314575 C15.1571453,3.84343678 16,5.87826808 16,8 C16,12.418278 12.418278,16 8,16 C3.581722,16 -5.41083001e-16,12.418278 0,8 C5.41083001e-16,3.581722 3.581722,-2.705415e-16 8,0 Z M8,14.6 C11.6427959,14.5944931 14.5944931,11.6427959 14.6,8 C14.6,4.35492065 11.6450793,1.4 8,1.4 C4.35492065,1.4 1.4,4.35492065 1.4,8 C1.4,11.6450793 4.35492065,14.6 8,14.6 Z M8,8.77 C9.17035509,8.7675995 10.229074,9.46422865 10.69,10.54 C10.8437882,10.8934786 10.6828479,11.3047703 10.33,11.46 C10.2417104,11.4988093 10.1464397,11.5192245 10.05,11.52 C9.77223113,11.5193804 9.52110713,11.3545803 9.41,11.1 C9.17105734,10.5327839 8.61548977,10.1639697 8,10.1639697 C7.38451023,10.1639697 6.82894266,10.5327839 6.59,11.1 C6.50095322,11.3451013 6.28304277,11.5203848 6.02455281,11.5548362 C5.76606284,11.5892877 5.50985101,11.477195 5.35971888,11.2639714 C5.20958674,11.0507478 5.19042622,10.7717457 5.31,10.54 C5.77092603,9.46422865 6.82964491,8.7675995 8,8.77 Z M6.75,5.62 C6.75,6.17228475 6.30228475,6.62 5.75,6.62 C5.19771525,6.62 4.75,6.17228475 4.75,5.62 C4.75,5.06771525 5.19771525,4.62 5.75,4.62 C6.30228475,4.62 6.75,5.06771525 6.75,5.62 Z M10.3,4.57 C10.8522847,4.57 11.3,5.01771525 11.3,5.57 C11.3,6.12228475 10.8522847,6.57 10.3,6.57 C9.74771525,6.57 9.3,6.12228475 9.3,5.57 C9.3,5.01771525 9.74771525,4.57 10.3,4.57 Z" id="Combined-Shape"></path>
                </g>
            </g>
        </g>
    </g>
</svg>