<svg viewBox="0 0 16 16"><path d="M12.87 1.65a8.05 8.05 0 0 1 2.94 7.97.7.7 0 0 1-.68.56h-.15a.71.71 0 0 1-.54-.83A6.65 6.65 0 0 0 12 2.76a6.61 6.61 0 0 0-8.13.05h.95a.7.7 0 0 1 0 1.4H2.13a.61.61 0 0 1-.13 0 .84.84 0 0 1-.18-.1h-.07L1.66 4l-.19-.14a.56.56 0 0 1 0-.12.35.35 0 0 1 0-.14V1a.7.7 0 1 1 1.4 0v.84a8 8 0 0 1 10-.19zm1.58 10.61a.35.35 0 0 1 0 .14V15a.7.7 0 0 1-1.4 0v-.84A8 8 0 0 1 8 16a7.94 7.94 0 0 1-4.83-1.63 8.05 8.05 0 0 1-3-8 .7.7 0 1 1 1.37.28 6.65 6.65 0 0 0 2.47 6.68 6.61 6.61 0 0 0 8.15-.1h-.94a.7.7 0 0 1 0-1.4h2.69a.61.61 0 0 1 .13 0 .84.84 0 0 1 .14.06h.07l.09.11.11.14a.56.56 0 0 1 0 .12z" fill="currentColor" fill-rule="evenodd"/></svg>