<svg viewBox="0 0 8 8"><path d="M.7 8a.69.69 0 0 1-.48-.2.67.67 0 0 1 0-1L6.82.2a.707.707 0 1 1 1 1l-6.6 6.6A.69.69 0 0 1 .7 8zm3.49 0a.69.69 0 0 1-.48-.2.67.67 0 0 1 0-1l3.11-3.11a.67.67 0 0 1 1 0 .69.69 0 0 1 0 1L4.67 7.78a.69.69 0 0 1-.48.22zM7.3 8a.75.75 0 0 1-.26-.05.86.86 0 0 1-.22-.15.62.62 0 0 1-.15-.22.75.75 0 0 1-.05-.26.66.66 0 0 1 .2-.48.86.86 0 0 1 .22-.15.67.67 0 0 1 .52 0c.08.04.153.091.22.15.13.126.202.3.2.48a.75.75 0 0 1-.05.26 1.07 1.07 0 0 1-.15.22.67.67 0 0 1-.48.2z" fill="currentColor" fill-rule="evenodd"/></svg>