<svg viewBox="0 0 14 14"><path d="M10.85 10a.64.64 0 0 1-.57.93.65.65 0 0 1-.58-.36L8.55 8.25h-3.1L4.3 10.57a.65.65 0 0 1-.87.29.64.64 0 0 1-.28-.86l3.28-6.57A.63.63 0 0 1 7 3.07a.66.66 0 0 1 .58.36L10.85 10zM6.1 7h1.8L7 5.16 6.1 7zm7.2 3.9a.7.7 0 0 1 .7.7 2.41 2.41 0 0 1-2.4 2.4.7.7 0 0 1 0-1.4 1 1 0 0 0 1-1 .7.7 0 0 1 .7-.7zm0-6.27a.7.7 0 0 1 .7.7v3.44a.7.7 0 0 1-1.4 0V5.33a.7.7 0 0 1 .7-.7zM11.6 1.4a.7.7 0 0 1 0-1.4A2.41 2.41 0 0 1 14 2.4a.7.7 0 0 1-1.4 0 1 1 0 0 0-1-1zM2.4 12.6a.7.7 0 0 1 0 1.4A2.41 2.41 0 0 1 0 11.6a.7.7 0 0 1 1.4 0 1 1 0 0 0 1 1zM.7 9.47a.7.7 0 0 1-.7-.7V5.33a.7.7 0 0 1 1.4 0v3.44a.7.7 0 0 1-.7.7zm0-6.37a.7.7 0 0 1-.7-.7A2.41 2.41 0 0 1 2.4 0a.7.7 0 0 1 0 1.4 1 1 0 0 0-1 1 .7.7 0 0 1-.7.7zm4.6-1.7a.7.7 0 0 1 0-1.4h3.4a.7.7 0 0 1 0 1.4H5.3zm3.4 11.2a.7.7 0 0 1 0 1.4H5.3a.7.7 0 0 1 0-1.4h3.4z" fill="currentColor" fill-rule="evenodd"/></svg>