<?xml version="1.0" encoding="UTF-8"?>
<svg width="14px" height="14px" viewBox="0 0 14 14" version="1.1" xmlns="http://www.w3.org/2000/svg" xmlns:xlink="http://www.w3.org/1999/xlink">
    <!-- Generator: Sketch 52.6 (67491) - http://www.bohemiancoding.com/sketch -->
    <title>icon/image</title>
    <desc>Created with Sketch.</desc>
    <g id="Icons-✅" stroke="none" stroke-width="1" fill="none" fill-rule="evenodd">
        <g id="Icons" transform="translate(-245.000000, -1861.000000)" fill="currentColor">
            <g id="icon/image" transform="translate(245.000000, 1861.000000)">
                <g id="image">
                    <path d="M11.6,5.24025268e-14 C12.9232072,0.0054791892 13.9945208,1.0767928 14,2.4 L14,11.6 C14.0080497,12.2247413 13.7711355,12.8277957 13.34,13.28 L13.02,13.57 L12.97,13.57 C12.8481783,13.6597577 12.7174988,13.7368251 12.58,13.8 C12.4370897,13.8604067 12.2900493,13.9105341 12.14,13.95 C11.9752249,13.9820025 11.8078494,13.99874 11.64,14 L2.44,14 C2.29349968,14.0098787 2.14650032,14.0098787 2,14 L1.66,13.84 L1.49,13.79 L1.21,13.66 L1.11,13.6 C1.0160805,13.5424281 0.925900131,13.4789678 0.84,13.41 C0.311647194,12.9563631 0.00534649628,12.296358 0,11.6 L0,2.4 C0.0054791892,1.0767928 1.0767928,0.0054791892 2.4,5.24025268e-14 L11.6,5.24025268e-14 Z M11.6,12.6 C11.6882567,12.5930565 11.775463,12.5762861 11.86,12.55 L8.7,8.34 L6.05,11.93 C5.91780193,12.1062641 5.71033011,12.21 5.49,12.21 C5.26966989,12.21 5.06219807,12.1062641 4.93,11.93 L3.93,10.6 L2.4,12.6 L11.6,12.6 Z M12.6,11.2 L12.57,2.4 C12.57,1.84771525 12.1222847,1.4 11.57,1.4 L2.37,1.4 C1.81771525,1.4 1.37,1.84771525 1.37,2.4 L1.37,11.64 L3.37,9 C3.50869977,8.83413893 3.71378825,8.73829478 3.93,8.73829478 C4.14621175,8.73829478 4.35130023,8.83413893 4.49,9 L5.49,10.29 L8.14,6.75 C8.27869977,6.58413893 8.48378825,6.48829478 8.7,6.48829478 C8.91621175,6.48829478 9.12130023,6.58413893 9.26,6.75 L12.6,11.2 Z M5,2.55 C6.32715275,2.57735258 7.38231395,3.67275297 7.36,5 C7.34360056,5.97544883 6.74073383,6.84478967 5.83292131,7.20206521 C4.9251088,7.55934076 3.89144884,7.3340657 3.21463103,6.63143705 C2.53781322,5.92880839 2.35136398,4.88744464 2.74234975,3.99363287 C3.13333552,3.09982109 4.02462045,2.52989746 5,2.55 Z M5,6 C5.55228475,6 6,5.55228475 6,5 C6,4.44771525 5.55228475,4 5,4 C4.44771525,4 4,4.44771525 4,5 C4,5.55228475 4.44771525,6 5,6 Z" id="Combined-Shape"></path>
                </g>
            </g>
        </g>
    </g>
</svg>