<?xml version="1.0" encoding="UTF-8"?>
<svg width="14px" height="14px" viewBox="0 0 14 14" version="1.1" xmlns="http://www.w3.org/2000/svg" xmlns:xlink="http://www.w3.org/1999/xlink">
    <!-- Generator: Sketch 52.6 (67491) - http://www.bohemiancoding.com/sketch -->
    <title>icon/shrink</title>
    <desc>Created with Sketch.</desc>
    <g id="Icons-✅" stroke="none" stroke-width="1" fill="none" fill-rule="evenodd">
        <g id="Icons" transform="translate(-491.000000, -1201.000000)" fill="currentColor">
            <g id="icon/shrink" transform="translate(491.000000, 1201.000000)">
                <g id="shrink" transform="translate(-1.000000, -1.000000)">
                    <path d="M7.18,9.2 C7.19,9.24 7.23,9.3 7.23,9.3 C7.2348254,9.35656394 7.2348254,9.41343606 7.23,9.47 L7.23,12.92 C7.23,13.3065993 6.91659932,13.62 6.53,13.62 C6.14340068,13.62 5.83,13.3065993 5.83,12.92 L5.83,11.16 L2.2,14.79 C2.06832072,14.9243397 1.88811326,15.0000269 1.7,15 C1.51614131,15.0034016 1.33896611,14.9310852 1.21,14.8 C1.07303562,14.6697469 0.995499737,14.4890108 0.995499737,14.3 C0.995499737,14.1109892 1.07303562,13.9302531 1.21,13.8 L4.84,10.22 L3.08,10.22 C2.69340068,10.22 2.38,9.90659932 2.38,9.52 C2.38,9.13340068 2.69340068,8.82 3.08,8.82 L6.53,8.82 C6.58656394,8.8151746 6.64343606,8.8151746 6.7,8.82 L6.8,8.82 C6.97156286,8.89198524 7.10801476,9.02843714 7.18,9.2 Z M14.8,1.2 C15.0680079,1.47558469 15.0680079,1.91441531 14.8,2.19 L11.16,5.83 L12.92,5.83 C13.3065993,5.83000002 13.62,6.14340069 13.62,6.53 C13.62,6.91659931 13.3065993,7.22999998 12.92,7.23 L9.47,7.23 C9.08340068,7.23 8.77,6.91659932 8.77,6.53 L8.77,3.08 C8.77,2.69340068 9.08340068,2.38 9.47,2.38 C9.85659932,2.38 10.17,2.69340068 10.17,3.08 L10.17,4.84 L13.8,1.2 C14.0767978,0.925444435 14.5232022,0.925444435 14.8,1.2 Z" id="Combined-Shape"></path>
                </g>
            </g>
        </g>
    </g>
</svg>