<?xml version="1.0" encoding="UTF-8"?>
<svg width="16px" height="16px" viewBox="0 0 16 16" version="1.1" xmlns="http://www.w3.org/2000/svg" xmlns:xlink="http://www.w3.org/1999/xlink">
    <!-- Generator: Sketch 52.6 (67491) - http://www.bohemiancoding.com/sketch -->
    <title>icon/annotate</title>
    <desc>Created with Sketch.</desc>
    <g id="Icons-✅" stroke="none" stroke-width="1" fill="none" fill-rule="evenodd">
        <g id="Icons" transform="translate(-491.000000, -2784.000000)" fill="currentColor">
            <g id="icon/annotate" transform="translate(491.000000, 2784.000000)">
                <g id="annotate" transform="translate(-1.000000, 0.000000)">
                    <path d="M16,1 C16.96393,1.59479392 17.2824774,2.84686216 16.72,3.83 L12.53,11.12 C12.4568531,11.2542543 12.3405974,11.3599413 12.2,11.42 L9,12.79 C8.90292234,12.8344112 8.79663772,12.8549824 8.69,12.85 C8.56611345,12.8512463 8.4445283,12.8165076 8.34,12.75 C8.14706845,12.6441827 8.01956263,12.4491739 8,12.23 L7.6,8.78 C7.59000996,8.62791698 7.62109505,8.47594541 7.69,8.34 L11.89,1.07 C12.1646542,0.582023757 12.6212135,0.222528222 13.16,0.07 C13.693658,-0.0725731349 14.2621106,0.00298068404 14.74,0.28 L16,1 Z M13.57,1.45 L13.52,1.42 C13.348492,1.4603636 13.1985135,1.56392018 13.1,1.71 L12.55,2.71 L15.01,4.16 L15.56,3.16 C15.747562,2.82860266 15.6312002,2.40790993 15.3,2.22 L14.1,1.52 C13.9376408,1.43325034 13.7493141,1.408377 13.57,1.45 Z M11.48,10.25 L14.26,5.3 L11.83,3.92 L9,8.84 L9.35,11.17 L11.48,10.25 Z M7.29,13.69 C7.40566178,13.5452481 7.57468035,13.4530956 7.75900883,13.4342866 C7.94333732,13.4154776 8.12748523,13.4715926 8.27,13.59 C8.41690909,13.7091162 8.5093657,13.8826105 8.52631907,14.0709813 C8.54327244,14.259352 8.48327964,14.4465668 8.36,14.59 C7.71480176,15.4385319 6.72503468,15.9554102 5.66,16 C5.35848612,16.0016381 5.05844809,15.9578123 4.77,15.87 C3.30492863,15.3479491 2.28555803,14.0110054 2.17,12.46 C1.92,10 3.34,8.64 4.74,7.35 L5.22,6.89 C6.09763653,6.05379656 6.15081548,4.6711439 5.34,3.77 C4.58094015,2.7523283 3.1428682,2.53795733 2.12,3.29 C1.9617917,3.39911537 1.76610696,3.43943298 1.57765162,3.40174191 C1.38919628,3.36405084 1.22407098,3.25157123 1.12,3.09 C1.00412919,2.93494042 0.958719549,2.73834013 0.994851532,2.54817179 C1.03098352,2.35800346 1.14533394,2.19175757 1.31,2.09 C2.93518793,0.942616083 5.17482615,1.27262171 6.4,2.84 C7.66833074,4.30154275 7.56715251,6.50106948 6.17,7.84 L5.68,8.32 C4.35,9.61 3.38,10.54 3.56,12.32 C3.62711031,13.3079894 4.25801161,14.1686634 5.18,14.53 C5.98951663,14.7152071 6.8292652,14.3808996 7.29,13.69 Z" id="Combined-Shape"></path>
                </g>
            </g>
        </g>
    </g>
</svg>