<?xml version="1.0" encoding="UTF-8"?>
<svg width="14px" height="14px" viewBox="0 0 14 14" version="1.1" xmlns="http://www.w3.org/2000/svg" xmlns:xlink="http://www.w3.org/1999/xlink">
    <!-- Generator: Sketch 52.6 (67491) - http://www.bohemiancoding.com/sketch -->
    <title>icon/canned-responses</title>
    <desc>Created with Sketch.</desc>
    <g id="Icons-✅" stroke="none" stroke-width="1" fill="none" fill-rule="evenodd">
        <g id="Icons" transform="translate(-81.000000, -2653.000000)" fill="currentColor">
            <g id="icon/canned-responses" transform="translate(81.000000, 2653.000000)">
                <g id="canned-responses">
                    <path d="M7,14 C6.81188674,14.0000269 6.63167928,13.9243397 6.5,13.79 L5.05,12.3 L2.4,12.3 C1.07290066,12.2944933 -1.14247039e-05,11.2171108 8.8817842e-16,9.89 L8.8817842e-16,2.4 C0.0054791892,1.0767928 1.0767928,0.0054791892 2.4,-1.24344979e-14 L11.6,-1.24344979e-14 C12.9232072,0.0054791892 13.9945208,1.0767928 14,2.4 L14,9.89 C14.0000114,11.2171108 12.9270993,12.2944933 11.6,12.3 L9,12.3 L7.54,13.79 C7.39877726,13.9347047 7.20188161,14.0112752 7,14 Z M2.4,1.4 C1.84771525,1.4 1.4,1.84771525 1.4,2.4 L1.4,9.89 C1.4,10.4422847 1.84771525,10.89 2.4,10.89 L5.34,10.89 C5.52321279,10.8899733 5.69913372,10.9617778 5.83,11.09 L7,12.31 L8.25,11.1 C8.38086628,10.9717778 8.55678721,10.8999733 8.74,10.9 L11.6,10.9 C12.1522847,10.9 12.6,10.4522847 12.6,9.9 L12.6,2.4 C12.6,1.84771525 12.1522847,1.4 11.6,1.4 L2.4,1.4 Z M8.89,9.76 C8.7780107,9.76322575 8.66729609,9.7355471 8.57,9.68 L7,8.86 L5.43,9.68 C5.20419075,9.82345495 4.91580925,9.82345495 4.69,9.68 C4.47734317,9.52363536 4.37252617,9.25965181 4.42,9 L4.72,7.25 L3.45,6 C3.25935644,5.81295724 3.18980522,5.53475234 3.27,5.28 C3.35352623,5.0305557 3.56984965,4.84899854 3.83,4.81 L5.59,4.55 L6.37,2.96 C6.50472606,2.74135702 6.74318127,2.60820098 7,2.60820098 C7.25681873,2.60820098 7.49527394,2.74135702 7.63,2.96 L8.41,4.55 L10.17,4.81 C10.4301504,4.84899854 10.6464738,5.0305557 10.73,5.28 C10.8101948,5.53475234 10.7406436,5.81295724 10.55,6 L9.28,7.2 L9.58,8.95 C9.62747383,9.20965181 9.52265683,9.47363536 9.31,9.63 C9.18697832,9.71606356 9.04012984,9.76151665 8.89,9.76 Z M7,7.37 C7.11504457,7.36788761 7.22869441,7.39543909 7.33,7.45 L8,7.78 L7.88,7.07 C7.82239825,6.85588082 7.86666604,6.62716388 8,6.45 L8.56,6 L7.85,5.9 C7.62011895,5.86465585 7.4221246,5.7189619 7.32,5.51 L7,4.82 L6.68,5.46 C6.5778754,5.6689619 6.37988105,5.81465585 6.15,5.85 L5.44,6 L5.96,6.5 C6.12169753,6.66296318 6.19598907,6.89326694 6.16,7.12 L6,7.78 L6.63,7.45 C6.74307932,7.38832172 6.87154079,7.36054627 7,7.37 Z" id="Combined-Shape"></path>
                </g>
            </g>
        </g>
    </g>
</svg>