<?xml version="1.0" encoding="UTF-8"?>
<svg width="6px" height="6px" viewBox="0 0 6 6" version="1.1" xmlns="http://www.w3.org/2000/svg" xmlns:xlink="http://www.w3.org/1999/xlink">
    <!-- Generator: Sketch 52.6 (67491) - http://www.bohemiancoding.com/sketch -->
    <title>icon/cross</title>
    <desc>Created with Sketch.</desc>
    <g id="Icons-✅" stroke="none" stroke-width="1" fill="none" fill-rule="evenodd">
        <g id="Icons" transform="translate(-495.000000, -2261.000000)" fill="currentColor">
            <g id="icon/cross" transform="translate(495.000000, 2261.000000)">
                <g id="cross" transform="translate(-1.000000, -1.000000)">
                    <path d="M3.00678571,3.985 L1.18,2.17 C0.903857625,1.89385763 0.903857625,1.44614237 1.18,1.17 C1.45614237,0.893857625 1.90385763,0.893857625 2.18,1.17 L4.00411003,2.99411003 L5.83,1.18 C6.10614237,0.903857625 6.55385763,0.903857625 6.83,1.18 C7.10614237,1.45614237 7.10614237,1.90385763 6.83,2.18 L5.00608602,3.99608602 L6.83,5.82 C7.02335713,6.02244677 7.0797026,6.31961464 6.97387278,6.57878972 C6.86804295,6.8379648 6.61979681,7.01075775 6.34,7.02 L6.33,7 C6.14188674,7.00002687 5.96167928,6.92433974 5.83,6.79 L4.01309415,4.98481612 L2.17,6.82 C2.03347281,6.94339035 1.85384766,7.0080554 1.67,7 C1.39020319,6.99075775 1.14195705,6.8179648 1.03612722,6.55878972 C0.930297399,6.29961464 0.986642873,6.00244677 1.18,5.8 L3.00678571,3.985 Z" id="Combined-Shape"></path>
                </g>
            </g>
        </g>
    </g>
</svg>