<?xml version="1.0" encoding="UTF-8"?>
<svg width="16px" height="12px" viewBox="0 0 16 12" version="1.1" xmlns="http://www.w3.org/2000/svg" xmlns:xlink="http://www.w3.org/1999/xlink">
    <!-- Generator: Sketch 52.6 (67491) - http://www.bohemiancoding.com/sketch -->
    <title>icon/embed</title>
    <desc>Created with Sketch.</desc>
    <g id="Icons-✅" stroke="none" stroke-width="1" fill="none" fill-rule="evenodd">
        <g id="Icons" transform="translate(-409.000000, -2126.000000)" fill="currentColor">
            <g id="icon/embed" transform="translate(409.000000, 2126.000000)">
                <g id="embed" transform="translate(-1.000000, 0.000000)">
                    <path d="M4.57,9.74 C4.3761778,9.74390326 4.19016619,9.66366296 4.06,9.52 L1.19,6.52 C1.05562276,6.38833773 0.979897949,6.20812813 0.979897949,6.02 C0.979897949,5.83187187 1.05562276,5.65166227 1.19,5.52 L4.05,2.4 C4.32320849,2.19704886 4.70279938,2.22001505 4.94954646,2.45442477 C5.19629355,2.6888345 5.23868296,3.06674961 5.05,3.35 L2.65,6 L5.07,8.57 C5.27051633,8.76867476 5.32979982,9.06944809 5.219671,9.32935212 C5.10954217,9.58925614 4.85221266,9.75587142 4.57,9.75 L4.57,9.74 Z M13.43,9.74 C13.1503292,9.74586446 12.8947912,9.58229503 12.7830142,9.32586559 C12.6712373,9.06943615 12.7253422,8.77089417 12.92,8.57 L15.34,5.92 L12.92,3.35 C12.7413672,3.17136721 12.6716032,2.91100423 12.7369873,2.6669873 C12.8023714,2.42297036 12.9929704,2.23237144 13.2369873,2.1669873 C13.4810042,2.10160316 13.7413672,2.17136721 13.92,2.35 L16.79,5.35 C17.0645556,5.62679776 17.0645556,6.07320224 16.79,6.35 L14,9.51 C13.8547514,9.6691981 13.6450592,9.75381072 13.43,9.74 Z M7.41,12 C7.34374528,12.010481 7.27625472,12.010481 7.21,12 C6.84026524,11.8891793 6.63000957,11.4999826 6.74,11.13 L9.92,0.5 C10.0437393,0.147375615 10.422647,-0.0458656674 10.7807381,0.06102722 C11.1388293,0.167920107 11.3498064,0.537246369 11.26,0.9 L8.08,11.5 C7.98886164,11.7944214 7.71818397,11.9964197 7.41,12 Z" id="Combined-Shape"></path>
                </g>
            </g>
        </g>
    </g>
</svg>