<?xml version="1.0" encoding="UTF-8"?>
<svg width="16px" height="16px" viewBox="0 0 16 16" version="1.1" xmlns="http://www.w3.org/2000/svg" xmlns:xlink="http://www.w3.org/1999/xlink">
    <!-- Generator: Sketch 52.6 (67491) - http://www.bohemiancoding.com/sketch -->
    <title>icon/facebook</title>
    <desc>Created with Sketch.</desc>
    <g id="Icons-✅" stroke="none" stroke-width="1" fill="none" fill-rule="evenodd">
        <g id="Icons" transform="translate(-80.000000, -2124.000000)" fill="currentColor">
            <g id="icon/facebook" transform="translate(80.000000, 2124.000000)">
                <g id="facebook">
                    <path d="M13.33,16 L9.2,16 C8.81340068,16 8.5,15.6865993 8.5,15.3 L8.5,11.07 C8.5,10.6834007 8.81340068,10.37 9.2,10.37 L10.55,10.37 L10.66,9.37 L9.2,9.37 C8.81340068,9.37 8.5,9.05659932 8.5,8.67 L8.5,6.9 C8.5,6.07157288 9.17157288,5.4 10,5.4 L10.75,5.4 L10.75,4.4 L10,4.4 C8.61928813,4.4 7.5,5.51928813 7.5,6.9 L7.5,8.67 C7.5,8.85565154 7.42625021,9.03369928 7.29497475,9.16497475 C7.16369928,9.29625021 6.98565154,9.37 6.8,9.37 L5.25,9.37 L5.25,10.37 L6.8,10.37 C6.98565154,10.37 7.16369928,10.4437498 7.29497475,10.5750253 C7.42625021,10.7063007 7.5,10.8843485 7.5,11.07 L7.5,15.3 C7.5,15.4856515 7.42625021,15.6636993 7.29497475,15.7949747 C7.16369928,15.9262502 6.98565154,16 6.8,16 L2.67,16 C1.19767707,15.9945164 0.00548356883,14.8023229 0,13.33 L0,2.67 C0.00548356883,1.19767707 1.19767707,0.00548356883 2.67,0 L13.33,0 C14.8023229,0.00548356883 15.9945164,1.19767707 16,2.67 L16,13.33 C15.9945164,14.8023229 14.8023229,15.9945164 13.33,16 Z M9.9,14.6 L13.33,14.6 C14.0314016,14.6 14.6,14.0314016 14.6,13.33 L14.6,2.67 C14.6,1.96859837 14.0314016,1.4 13.33,1.4 L2.67,1.4 C1.96859837,1.4 1.4,1.96859837 1.4,2.67 L1.4,13.33 C1.4,14.0314016 1.96859837,14.6 2.67,14.6 L6.1,14.6 L6.1,11.77 L4.55,11.77 C4.16340068,11.77 3.85,11.4565993 3.85,11.07 L3.85,8.67 C3.85,8.28340068 4.16340068,7.97 4.55,7.97 L6.1,7.97 L6.1,6.9 C6.10549589,4.74837006 7.84837006,3.00549589 10,3 L11.45,3 C11.8365993,3 12.15,3.31340068 12.15,3.7 L12.15,6.1 C12.15,6.48659932 11.8365993,6.8 11.45,6.8 L10,6.8 C9.97260851,6.79674197 9.94523567,6.80622519 9.92573043,6.82573043 C9.90622519,6.84523567 9.89674197,6.87260851 9.9,6.9 L9.9,8 L11.45,8 C11.6533809,7.98579032 11.8532515,8.05847054 12,8.2 C12.1340912,8.34980974 12.1961706,8.55065479 12.17,8.75 L11.89,11.15 C11.8496003,11.5012742 11.5535791,11.7672642 11.2,11.77 L9.9,11.77 L9.9,14.6 Z" id="Shape"></path>
                </g>
            </g>
        </g>
    </g>
</svg>