<?xml version="1.0" encoding="UTF-8"?>
<svg width="14px" height="14px" viewBox="0 0 14 14" version="1.1" xmlns="http://www.w3.org/2000/svg" xmlns:xlink="http://www.w3.org/1999/xlink">
    <!-- Generator: Sketch 52.6 (67491) - http://www.bohemiancoding.com/sketch -->
    <title>icon/grid</title>
    <desc>Created with Sketch.</desc>
    <g id="Icons-✅" stroke="none" stroke-width="1" fill="none" fill-rule="evenodd">
        <g id="Icons" transform="translate(-819.000000, -1861.000000)" fill="currentColor">
            <g id="icon/grid" transform="translate(819.000000, 1861.000000)">
                <g id="grid">
                    <path d="M11.3,0 L2.7,0 C1.20883118,2.22044605e-16 2.22044605e-16,1.20883118 0,2.7 L0,11.3 C-6.66133815e-16,12.0160845 0.284463469,12.7028401 0.790811691,13.2091883 C1.29715991,13.7155365 1.98391548,14 2.7,14 L11.3,14 C12.0160845,14 12.7028401,13.7155365 13.2091883,13.2091883 C13.7155365,12.7028401 14,12.0160845 14,11.3 L14,2.7 C14,1.20883118 12.7911688,4.4408921e-16 11.3,0 Z M5.6,8.4 L5.6,5.6 L8.4,5.6 L8.4,8.4 L5.6,8.4 Z M8.4,9.8 L8.4,12.6 L5.6,12.6 L5.6,9.8 L8.4,9.8 Z M1.4,5.6 L4.2,5.6 L4.2,8.4 L1.4,8.4 L1.4,5.6 Z M5.6,4.2 L5.6,1.4 L8.4,1.4 L8.4,4.2 L5.6,4.2 Z M9.8,5.6 L12.6,5.6 L12.6,8.4 L9.8,8.4 L9.8,5.6 Z M12.6,2.7 L12.6,4.2 L9.8,4.2 L9.8,1.4 L11.3,1.4 C12.0179702,1.4 12.6,1.98202983 12.6,2.7 Z M2.7,1.4 L4.2,1.4 L4.2,4.2 L1.4,4.2 L1.4,2.7 C1.4,2.35521856 1.53696389,2.02455848 1.78076118,1.78076118 C2.02455848,1.53696389 2.35521856,1.4 2.7,1.4 Z M1.4,11.3 L1.4,9.8 L4.2,9.8 L4.2,12.6 L2.7,12.6 C2.35521856,12.6 2.02455848,12.4630361 1.78076118,12.2192388 C1.53696389,11.9754415 1.4,11.6447814 1.4,11.3 Z M11.3,12.6 L9.8,12.6 L9.8,9.8 L12.6,9.8 L12.6,11.3 C12.6,12.0179702 12.0179702,12.6 11.3,12.6 Z" id="Shape"></path>
                </g>
            </g>
        </g>
    </g>
</svg>