<?xml version="1.0" encoding="UTF-8"?>
<svg width="16px" height="16px" viewBox="0 0 16 16" version="1.1" xmlns="http://www.w3.org/2000/svg" xmlns:xlink="http://www.w3.org/1999/xlink">
    <!-- Generator: Sketch 52.6 (67491) - http://www.bohemiancoding.com/sketch -->
    <title>icon/groups</title>
    <desc>Created with Sketch.</desc>
    <g id="Icons-✅" stroke="none" stroke-width="1" fill="none" fill-rule="evenodd">
        <g id="Icons" transform="translate(-737.000000, -1861.000000)" fill="currentColor">
            <g id="icon/groups" transform="translate(737.000000, 1861.000000)">
                <g id="groups" transform="translate(-1.000000, -1.000000)">
                    <path d="M7.09,7.25 C5.82312455,7.24999353 4.68118542,6.48630699 4.19731267,5.31547799 C3.71343992,4.14464898 3.98306739,2.79759919 4.88031577,1.90321742 C5.77756414,1.00883565 7.12546985,0.743520115 8.29474447,1.23113703 C9.46401909,1.71875395 10.2240475,2.86313102 10.22,4.13 C10.2144896,5.85474474 8.81475354,7.2500088 7.09,7.25 Z M7.09,2.4 C6.13454738,2.4 5.36,3.17454738 5.36,4.13 C5.36,5.08545262 6.13454738,5.86 7.09,5.86 C8.04545262,5.86 8.82,5.08545262 8.82,4.13 C8.82,3.67117547 8.63773267,3.2311432 8.31329473,2.90670527 C7.9888568,2.58226733 7.54882453,2.4 7.09,2.4 Z M7.24,17 L1.71,17 C1.50146899,17.0025539 1.30297063,16.9106565 1.17,16.75 C1.03383179,16.5933806 0.971868436,16.3856211 1,16.18 L1.88,11 C2.12547315,9.50788461 3.41783698,8.41467193 4.93,8.42 L9.25,8.42 C9.62150222,8.419393 9.92877177,8.70910429 9.95,9.08 C9.97336189,9.45049923 9.69939403,9.77307429 9.33,9.81 L4.93,9.81 C4.10342341,9.80835853 3.39694624,10.4048452 3.26,11.22 L2.53,15.6 L7.24,15.6 C7.62659932,15.6 7.94,15.9134007 7.94,16.3 C7.94,16.6865993 7.62659932,17 7.24,17 Z M13.12,10.69 C11.9436335,10.69 10.99,9.73636652 10.99,8.56 C10.99,7.38363348 11.9436335,6.43 13.12,6.43 C14.2963665,6.43 15.25,7.38363348 15.25,8.56 C15.2526749,9.1257269 15.0291239,9.66905628 14.6290901,10.0690901 C14.2290563,10.4691239 13.6857269,10.6926749 13.12,10.69 Z M13.12,7.83 C12.7168321,7.83 12.39,8.15683213 12.39,8.56 C12.39,8.96316787 12.7168321,9.29 13.12,9.29 C13.5231679,9.29 13.85,8.96316787 13.85,8.56 C13.85,8.15683213 13.5231679,7.83 13.12,7.83 Z M16.3,17 L10,17 C9.79496392,16.9995517 9.60074747,16.9079402 9.47,16.75 C9.33740521,16.5917302 9.27913776,16.3841525 9.31,16.18 L9.82,13.18 C9.98699641,12.1621167 10.8685157,11.4162158 11.9,11.42 L14.4,11.42 C15.4314843,11.4162158 16.3130036,12.1621167 16.48,13.18 L16.99,16.18 C17.0208622,16.3841525 16.9625948,16.5917302 16.83,16.75 C16.6992525,16.9079402 16.5050361,16.9995517 16.3,17 Z M10.78,15.6 L15.47,15.6 L15.1,13.36 C15.0415379,13.0190756 14.7459007,12.7698956 14.4,12.77 L11.85,12.77 C11.5040993,12.7698956 11.2084621,13.0190756 11.15,13.36 L10.78,15.6 Z" id="Combined-Shape"></path>
                </g>
            </g>
        </g>
    </g>
</svg>