<?xml version="1.0" encoding="UTF-8"?>
<svg width="16px" height="14px" viewBox="0 0 16 14" version="1.1" xmlns="http://www.w3.org/2000/svg" xmlns:xlink="http://www.w3.org/1999/xlink">
    <!-- Generator: Sketch 52.6 (67491) - http://www.bohemiancoding.com/sketch -->
    <title>icon/inbox</title>
    <desc>Created with Sketch.</desc>
    <g id="Icons-✅" stroke="none" stroke-width="1" fill="none" fill-rule="evenodd">
        <g id="Icons" transform="translate(-162.000000, -1861.000000)" fill="currentColor">
            <g id="icon/inbox" transform="translate(162.000000, 1861.000000)">
                <g id="inbox" transform="translate(-1.000000, 0.000000)">
                    <path d="M17,7.6 C17.0038002,7.63322502 17.0038002,7.66677498 17,7.7 L17,13.3 C17,13.6865993 16.6865993,14 16.3,14 L1.7,14 C1.31340068,14 1,13.6865993 1,13.3 L1,7.7 C0.996199813,7.66677498 0.996199813,7.63322502 1,7.6 C0.995147029,7.57019626 0.995147029,7.53980374 1,7.51 L3,0.51 C3.08753913,0.19873167 3.37688197,-0.0120752537 3.7,-6.66079605e-15 L14.3,-6.66079605e-15 C14.623118,-0.0120752537 14.9124609,0.19873167 15,0.51 L17,7.51 C17.004853,7.53980374 17.004853,7.57019626 17,7.6 Z M4.23,1.4 L2.63,7 L6.2,7 C6.58659932,7 6.9,7.31340068 6.9,7.7 C6.9,8.85979797 7.84020203,9.8 9,9.8 C10.159798,9.8 11.1,8.85979797 11.1,7.7 C11.1,7.31340068 11.4134007,7 11.8,7 L15.37,7 L13.77,1.4 L4.23,1.4 Z M15.6,12.6 L15.6,8.4 L12.43,8.4 C12.0987653,10.0312268 10.6645171,11.2035088 9,11.2035088 C7.33548287,11.2035088 5.90123473,10.0312268 5.57,8.4 L2.4,8.4 L2.4,12.6 L15.6,12.6 Z M6,3.81 C5.61340068,3.81 5.3,3.49659932 5.3,3.11 C5.3,2.72340068 5.61340068,2.41 6,2.41 L12,2.41 C12.3865993,2.41 12.7,2.72340068 12.7,3.11 C12.7,3.49659932 12.3865993,3.81 12,3.81 L6,3.81 Z M5,6.13 C4.61340068,6.13 4.3,5.81659932 4.3,5.43 C4.3,5.04340068 4.61340068,4.73 5,4.73 L13,4.73 C13.3865993,4.73000002 13.7,5.04340069 13.7,5.43 C13.7,5.81659931 13.3865993,6.12999998 13,6.13 L5,6.13 Z" id="Combined-Shape"></path>
                </g>
            </g>
        </g>
    </g>
</svg>