<?xml version="1.0" encoding="UTF-8"?>
<svg width="16px" height="12px" viewBox="0 0 16 12" version="1.1" xmlns="http://www.w3.org/2000/svg" xmlns:xlink="http://www.w3.org/1999/xlink">
    <!-- Generator: Sketch 52.6 (67491) - http://www.bohemiancoding.com/sketch -->
    <title>icon/list-bullets</title>
    <desc>Created with Sketch.</desc>
    <g id="Icons-✅" stroke="none" stroke-width="1" fill="none" fill-rule="evenodd">
        <g id="Icons" transform="translate(-408.000000, -1730.000000)" fill="currentColor">
            <g id="icon/list-bullets" transform="translate(408.000000, 1730.000000)">
                <g id="list-bullets">
                    <path d="M14.8,6.7 L4.47,6.7 C4.08340068,6.7 3.77,6.38659932 3.77,6 C3.77,5.61340068 4.08340068,5.3 4.47,5.3 L14.8,5.3 C15.1865993,5.3 15.5,5.61340068 15.5,6 C15.5,6.38659932 15.1865993,6.7 14.8,6.7 Z M1.55,2.45 C1.01174491,2.42234159 0.592240976,1.97309139 0.601464047,1.43420506 C0.610687119,0.895318739 1.04531874,0.460687119 1.58420506,0.451464047 C2.12309139,0.442240976 2.57234159,0.861744905 2.6,1.4 C2.61452563,1.68268055 2.50857345,1.95827534 2.3084244,2.1584244 C2.10827534,2.35857345 1.83268055,2.46452563 1.55,2.45 Z M14.8,2.1 L4.47,2.1 C4.08340068,2.1 3.77,1.78659932 3.77,1.4 C3.77,1.01340068 4.08340068,0.7 4.47,0.7 L14.8,0.7 C15.1865993,0.7 15.5,1.01340068 15.5,1.4 C15.5,1.78659932 15.1865993,2.1 14.8,2.1 Z M14.8,11.3 L4.47,11.3 C4.08340068,11.3 3.77,10.9865993 3.77,10.6 C3.77,10.2134007 4.08340068,9.9 4.47,9.9 L14.8,9.9 C15.1865993,9.9 15.5,10.2134007 15.5,10.6 C15.5,10.9865993 15.1865993,11.3 14.8,11.3 Z M1.55,11.65 C1.01174491,11.6223416 0.592240976,11.1730914 0.601464047,10.6342051 C0.610687119,10.0953187 1.04531874,9.66068712 1.58420506,9.65146405 C2.12309139,9.64224098 2.57234159,10.0617449 2.6,10.6 C2.61452563,10.8826806 2.50857345,11.1582753 2.3084244,11.3584244 C2.10827534,11.5585735 1.83268055,11.6645256 1.55,11.65 Z M1.55,7.05 C0.970101013,7.05 0.5,6.57989899 0.5,6 C0.5,5.42010101 0.970101013,4.95 1.55,4.95 C2.12989899,4.95 2.6,5.42010101 2.6,6 C2.61452563,6.28268055 2.50857345,6.55827534 2.3084244,6.7584244 C2.10827534,6.95857345 1.83268055,7.06452563 1.55,7.05 Z" id="Combined-Shape"></path>
                </g>
            </g>
        </g>
    </g>
</svg>