<?xml version="1.0" encoding="UTF-8"?>
<svg width="12px" height="16px" viewBox="0 0 12 16" version="1.1" xmlns="http://www.w3.org/2000/svg" xmlns:xlink="http://www.w3.org/1999/xlink">
    <!-- Generator: Sketch 52.6 (67491) - http://www.bohemiancoding.com/sketch -->
    <title>icon/merge</title>
    <desc>Created with Sketch.</desc>
    <g id="Icons-✅" stroke="none" stroke-width="1" fill="none" fill-rule="evenodd">
        <g id="Icons" transform="translate(-739.000000, -1597.000000)" fill="currentColor">
            <g id="icon/merge" transform="translate(739.000000, 1597.000000)">
                <g id="merge" transform="translate(-1.000000, -1.000000)">
                    <path d="M8.13,8.3 L5.77,8.3 C5.0023242,8.3 4.38,7.6776758 4.38,6.91 L4.38,3.4 L5.15,4.17 C5.28563326,4.29709666 5.46412994,4.36849533 5.65,4.37 C5.83321279,4.37002671 6.00913372,4.29822225 6.14,4.17 C6.27696438,4.03974694 6.35450026,3.85901085 6.35450026,3.67 C6.35450026,3.48098915 6.27696438,3.30025306 6.14,3.17 L4.14,1.17 C4.08138335,1.11790045 4.0135545,1.07720314 3.94,1.05 C3.77016192,0.98053394 3.57983808,0.98053394 3.41,1.05 C3.32229548,1.08539322 3.24368503,1.14007875 3.18,1.21 L1.18,3.21 C1.04303562,3.34025306 0.965499737,3.52098915 0.965499737,3.71 C0.965499737,3.89901085 1.04303562,4.07974694 1.18,4.21 C1.45679776,4.48455556 1.90320224,4.48455556 2.18,4.21 L3,3.39 L3,16.3 C3.04259995,16.6570549 3.34541281,16.925887 3.705,16.925887 C4.06458719,16.925887 4.36740005,16.6570549 4.41,16.3 L4.41,9.3 C4.83013889,9.5519199 5.31013397,9.68659478 5.8,9.69 L8.13,9.69 C10.0441484,9.69549257 11.5945074,11.2458516 11.6,13.16 L11.6,16.3 C11.6,16.6865993 11.9134007,17 12.3,17 C12.6865993,17 13,16.6865993 13,16.3 L13,13.17 C12.9944988,10.4826553 10.8173447,8.30550123 8.13,8.3 Z" id="Path"></path>
                </g>
            </g>
        </g>
    </g>
</svg>