<?xml version="1.0" encoding="UTF-8"?>
<svg width="16px" height="14px" viewBox="0 0 16 14" version="1.1" xmlns="http://www.w3.org/2000/svg" xmlns:xlink="http://www.w3.org/1999/xlink">
    <!-- Generator: Sketch 52.6 (67491) - http://www.bohemiancoding.com/sketch -->
    <title>icon/mute</title>
    <desc>Created with Sketch.</desc>
    <g id="Icons-✅" stroke="none" stroke-width="1" fill="none" fill-rule="evenodd">
        <g id="Icons" transform="translate(-244.000000, -1598.000000)" fill="currentColor">
            <g id="icon/mute" transform="translate(244.000000, 1598.000000)">
                <g id="mute" transform="translate(0.000000, -1.000000)">
                    <path d="M9.12,1.07 C9.35959586,1.18834256 9.5109099,1.43277293 9.51,1.7 L9.51,14.3 C9.5109099,14.5672271 9.35959586,14.8116574 9.12,14.93 C9.02377612,14.9778577 8.91745189,15.0018664 8.81,15 C8.653954,14.9993265 8.50260726,14.9465312 8.38,14.85 L3.92,11.35 L1.82,11.35 C0.817114338,11.3445346 0.00546543848,10.5328857 2.66453526e-15,9.53 L2.66453526e-15,6.47 C0.00546543848,5.46711434 0.817114338,4.65546544 1.82,4.65 L3.92,4.65 L8.38,1.15 C8.58990391,0.981172548 8.87886432,0.949933584 9.12,1.07 Z M8.12,12.86 L8.11,3.14 L4.59,5.9 C4.46816793,5.9979373 4.3163136,6.05090974 4.16,6.05 L1.82,6.05 C1.58804041,6.05 1.4,6.23804041 1.4,6.47 L1.4,9.58 C1.4,9.81195959 1.58804041,10 1.82,10 L4.16,10 C4.31046593,9.98458279 4.46177726,10.0197715 4.59,10.1 L8.12,12.86 Z M12.18,1.18 C14.5522221,2.63457487 15.9981822,5.21733477 15.9981822,8 C15.9981822,10.7826652 14.5522221,13.3654251 12.18,14.82 C12.0681659,14.8866217 11.9401685,14.9212156 11.81,14.92 C11.4955543,14.9197508 11.2198627,14.7098564 11.1359437,14.4068156 C11.0520248,14.1037748 11.180475,13.7819642 11.45,13.62 C13.4059991,12.4222228 14.5985323,10.2936004 14.5985323,8 C14.5985323,5.70639961 13.4059991,3.57777719 11.45,2.38 C11.2356406,2.24959806 11.107133,2.01474234 11.1128848,1.76390073 C11.1186365,1.51305911 11.2577737,1.2843404 11.4778848,1.16390073 C11.6979958,1.04346105 11.9656406,1.04959806 12.18,1.18 Z M13,8 C12.9963843,9.44787542 12.3653172,10.823091 11.27,11.77 C11.1417251,11.8795037 10.9786578,11.9397677 10.81,11.94 C10.6094855,11.9418457 10.4186854,11.8537841 10.29,11.7 C10.1631935,11.5604279 10.0980632,11.3755972 10.1093573,11.1873614 C10.1206515,10.9991257 10.2074147,10.8234086 10.35,10.7 C11.1432217,10.0273908 11.6005459,9.04000184 11.6005459,8 C11.6005459,6.95999816 11.1432217,5.97260917 10.35,5.3 C10.0572891,5.04594901 10.025949,4.60271093 10.28,4.31000002 C10.534051,4.0172891 10.9772891,3.98594903 11.27,4.24 C12.3626899,5.1846199 12.9934954,6.55561931 13,8 Z" id="Combined-Shape"></path>
                </g>
            </g>
        </g>
    </g>
</svg>