<?xml version="1.0" encoding="UTF-8"?>
<svg width="16px" height="16px" viewBox="0 0 16 16" version="1.1" xmlns="http://www.w3.org/2000/svg" xmlns:xlink="http://www.w3.org/1999/xlink">
    <!-- Generator: Sketch 52.6 (67491) - http://www.bohemiancoding.com/sketch -->
    <title>icon/non-deletable</title>
    <desc>Created with Sketch.</desc>
    <g id="Icons-✅" stroke="none" stroke-width="1" fill="none" fill-rule="evenodd">
        <g id="Icons" transform="translate(-736.000000, -1464.000000)" fill="currentColor">
            <g id="icon/non-deletable" transform="translate(736.000000, 1464.000000)">
                <g id="non-deletable" transform="translate(-1.000000, -1.000000)">
                    <path d="M10.1337454,8.86712279 L7.88,11.1177808 L7.88,13.3 C7.88001912,13.4873972 7.8048982,13.6669774 7.67145193,13.7985441 C7.53800566,13.9301108 7.35737809,14.0026771 7.17,14 C6.78340068,14 6.47,13.6865993 6.47,13.3 L6.47,12.5258493 L4.42270759,14.5703372 C4.53436758,15.1532932 5.04466219,15.5951547 5.66,15.6 L12.34,15.6 C13.0374933,15.5945078 13.6000216,15.0275149 13.6,14.33 L13.6,5.40561644 L11.53,7.47278082 L11.53,13.3 C11.4874001,13.6570549 11.1845872,13.925887 10.825,13.925887 C10.4654128,13.925887 10.1625999,13.6570549 10.12,13.3 L10.1337454,8.86712279 Z M10.1399499,6.86617074 L10.14,6.85 L11,6 C11.0018055,6.00042871 11.0036079,6.00086427 11.0054071,6.00130665 L12.6078121,4.4 L12.6,4.4 L14,3 L14.0087723,3 L15.8,1.21 C15.9302531,1.07303562 16.1109892,0.995499737 16.3,0.995499737 C16.4890108,0.995499737 16.6697469,1.07303562 16.8,1.21 C16.9369644,1.34025306 17.0145003,1.52098915 17.0145003,1.71 C17.0145003,1.89901085 16.9369644,2.07974694 16.8,2.21 L15.7992706,3.20935852 C15.9234188,3.33567642 16,3.50889497 16,3.7 C16,4.08659932 15.6865993,4.39999999 15.3,4.4 L15,4.4 L15,14.33 C15.0000103,15.8007039 13.8106935,16.9944917 12.34,17 L5.66,17 C4.95187043,16.9973528 4.27379616,16.7135081 3.77494832,16.2109095 C3.60606857,16.04076 3.46241315,15.8502579 3.34636145,15.6452089 L2.2,16.79 C2.06832072,16.9243397 1.88811326,17.0000269 1.7,17 C1.51465043,17.0007911 1.3372544,16.9247643 1.21,16.79 C1.07303562,16.6597469 0.995499737,16.4790108 0.995499737,16.29 C0.995499737,16.1009892 1.07303562,15.9202531 1.21,15.79 L3,14.0012269 L3,14 L3.18999242,13.8113647 L6.47,10.5336052 L6.47,10.53 L7.03271601,9.97127488 L10.1399499,6.86617074 Z M2.7,4.4 C2.31340068,4.39999999 2.00000001,4.08659932 2.00000001,3.7 C2.00000001,3.31340068 2.31340068,3.00000001 2.7,3 L6.3,3 L6.3,2.7 C6.3,1.76111593 7.06111593,1 8,1 L10,1 C10.9153727,1.03232723 11.6405707,1.78405687 11.64,2.7 L11.64,3 L12,3 L10.63,4.4 L4.4,4.4 L4.4,10.6 L3,12 L3,4.4 L2.7,4.4 Z M7.7,2.7 L7.73,3 L10.3,3 L10.3,2.7 C10.3028236,2.61960266 10.2721242,2.5416449 10.2152397,2.48476035 C10.1583551,2.4278758 10.0803973,2.3971764 10,2.4 L8,2.4 C7.91960266,2.3971764 7.8416449,2.4278758 7.78476035,2.48476035 C7.7278758,2.5416449 7.6971764,2.61960266 7.7,2.7 Z M7.17,6 C7.35737809,5.9973229 7.53800566,6.06988915 7.67145193,6.2014559 C7.8048982,6.33302264 7.88001912,6.51260279 7.88,6.7 L7.88,7.15 L6.47,8.55 L6.47,6.7 C6.47,6.31340068 6.78340068,6 7.17,6 Z" id="Combined-Shape"></path>
                </g>
            </g>
        </g>
    </g>
</svg>