<?xml version="1.0" encoding="UTF-8"?>
<svg width="14px" height="14px" viewBox="0 0 14 14" version="1.1" xmlns="http://www.w3.org/2000/svg" xmlns:xlink="http://www.w3.org/1999/xlink">
    <!-- Generator: Sketch 52.6 (67491) - http://www.bohemiancoding.com/sketch -->
    <title>icon/number-field</title>
    <desc>Created with Sketch.</desc>
    <g id="Icons-✅" stroke="none" stroke-width="1" fill="none" fill-rule="evenodd">
        <g id="Icons" transform="translate(-491.000000, -1465.000000)" fill="currentColor">
            <g id="icon/number-field" transform="translate(491.000000, 1465.000000)">
                <g id="number-field" transform="translate(-1.000000, -1.000000)">
                    <path d="M3.85,1.05 C4.113986,1.15852914 4.28731818,1.41458804 4.29,1.7 L4.29,7.4 C4.29,7.78659932 3.97659932,8.1 3.59,8.1 C3.20340068,8.1 2.89,7.78659932 2.89,7.4 L2.89,3.4 L2.2,4.09 C2.02136721,4.26863279 1.76100423,4.33839684 1.5169873,4.2730127 C1.27297036,4.20762856 1.08237144,4.01702964 1.0169873,3.7730127 C0.951603157,3.52899577 1.02136721,3.26863279 1.2,3.09 L3.09,1.21 C3.28496289,1.00301088 3.58813118,0.939185976 3.85,1.05 Z M10,13.6 C10.3865993,13.6 10.7,13.9134007 10.7,14.3 C10.7,14.6865993 10.3865993,15 10,15 L6,15 C5.72745648,14.9997493 5.4805973,14.8390949 5.37,14.59 C5.25004509,14.3459007 5.289558,14.0535051 5.47,13.85 L8.08,10.78 C8.3175655,10.5215983 8.36941135,10.1427248 8.21,9.83 C8.07228068,9.5055712 7.75242994,9.29628615 7.4,9.3 C7.01564964,9.30537631 6.70537631,9.61564964 6.7,10 C6.7,10.3865993 6.38659932,10.7 6,10.7 C5.61340068,10.7 5.3,10.3865993 5.3,10 C5.30547302,8.8424766 6.2424766,7.90547302 7.4,7.9 C8.29621332,7.90082303 9.1103313,8.42215306 9.48603311,9.23581585 C9.86173493,10.0494786 9.73059099,11.0072752 9.15,11.69 L7.52,13.6 L10,13.6 Z M13.69,3.46 L13.71,3.46 C14.5583002,3.91556733 15.062822,4.82417815 15.0010424,5.78508296 C14.9392628,6.74598777 14.3225408,7.58251029 13.4228863,7.92569608 C12.5232317,8.26888188 11.5060592,8.05563126 10.82,7.38 C10.5438576,7.10385762 10.5438577,6.65614239 10.82,6.38000002 C11.0961424,6.10385765 11.5438576,6.10385764 11.82,6.38 C12.0166824,6.58334802 12.2870994,6.69872591 12.57,6.7 C13.1183514,6.64680225 13.5366801,6.18592577 13.5366801,5.635 C13.5366801,5.08407423 13.1183514,4.62319775 12.57,4.57 C12.3071874,4.57473378 12.0638748,4.43183589 11.94,4.2 C11.8185358,3.96525852 11.8418372,3.68175844 12,3.47 L12.73,2.4 L10.92,2.4 C10.6699141,2.40000001 10.4388252,2.26658076 10.3137822,2.05 C10.1887392,1.83341925 10.1887392,1.56658075 10.3137822,1.35 C10.4388252,1.13341924 10.6699141,0.999999995 10.92,1 L14.08,1 C14.3505518,0.983106603 14.6065354,1.12393976 14.7370912,1.36150845 C14.867647,1.59907713 14.8493016,1.89066763 14.69,2.11 L13.69,3.46 Z" id="Combined-Shape"></path>
                </g>
            </g>
        </g>
    </g>
</svg>