<?xml version="1.0" encoding="UTF-8"?>
<svg width="15px" height="14px" viewBox="0 0 15 14" version="1.1" xmlns="http://www.w3.org/2000/svg" xmlns:xlink="http://www.w3.org/1999/xlink">
    <!-- Generator: Sketch 52.6 (67491) - http://www.bohemiancoding.com/sketch -->
    <title>icon/open-new-tab</title>
    <desc>Created with Sketch.</desc>
    <g id="Icons-✅" stroke="none" stroke-width="1" fill="none" fill-rule="evenodd">
        <g id="Icons" transform="translate(-409.000000, -1465.000000)" fill="currentColor">
            <g id="icon/open-new-tab" transform="translate(409.000000, 1465.000000)">
                <g id="open-new-tab" transform="translate(0.000000, -1.000000)">
                    <path d="M13.3,7.81 C13.6865993,7.81 14,8.12340068 14,8.51 L14,12.6 C13.9945208,13.9232072 12.9232072,14.9945208 11.6,15 L2.4,15 C1.0767928,14.9945208 0.0054791892,13.9232072 0,12.6 L0,3.4 C0.0054791892,2.0767928 1.0767928,1.00547919 2.4,1 L6.49,1 C6.74008592,0.999999996 6.97117483,1.13341924 7.09621779,1.35 C7.22126075,1.56658075 7.22126075,1.83341925 7.09621779,2.05 C6.97117483,2.26658076 6.74008592,2.4 6.49,2.4 L2.4,2.4 C1.84771525,2.4 1.4,2.84771525 1.4,3.4 L1.4,12.6 C1.4,13.1522847 1.84771525,13.6 2.4,13.6 L11.6,13.6 C12.1522847,13.6 12.6,13.1522847 12.6,12.6 L12.6,8.51 C12.6,8.12340068 12.9134007,7.81 13.3,7.81 Z M14,1.43 C14.0175384,1.51891096 14.0209134,1.61003527 14.01,1.7 L14.01,5.11 C14.01,5.49659932 13.6965993,5.81 13.31,5.81 C12.9234007,5.81 12.61,5.49659932 12.61,5.11 L12.61,3.4 L4.61,11.4 C4.33320224,11.6745556 3.88679776,11.6745556 3.61,11.4 C3.33544444,11.1232022 3.33544444,10.6767978 3.61,10.4 L11.61,2.4 L9.89,2.4 C9.50340068,2.4 9.19,2.08659932 9.19,1.7 C9.19,1.31340068 9.50340068,1 9.89,1 L13.3,1 C13.4088707,0.996249216 13.5174628,1.01321673 13.62,1.05 C13.7915629,1.12198524 13.9280148,1.25843714 14,1.43 Z" id="Combined-Shape"></path>
                </g>
            </g>
        </g>
    </g>
</svg>