<?xml version="1.0" encoding="UTF-8"?>
<svg width="16px" height="16px" viewBox="0 0 16 16" version="1.1" xmlns="http://www.w3.org/2000/svg" xmlns:xlink="http://www.w3.org/1999/xlink">
    <!-- Generator: Sketch 52.6 (67491) - http://www.bohemiancoding.com/sketch -->
    <title>icon/products</title>
    <desc>Created with Sketch.</desc>
    <g id="Icons-✅" stroke="none" stroke-width="1" fill="none" fill-rule="evenodd">
        <g id="Icons" transform="translate(-326.000000, -1332.000000)" fill="currentColor">
            <g id="icon/products" transform="translate(327.000000, 1332.000000)">
                <g id="products" transform="translate(-1.000000, -1.000000)">
                    <path d="M15.18,4.77 L15.18,4.7 C15.1262027,4.62436788 15.0582898,4.55985057 14.98,4.51 C14.98,4.51 14.98,4.51 14.98,4.51 L8.32,1.08 C8.12093767,0.969646383 7.87906233,0.969646383 7.68,1.08 L1.11,4.48 C1.11,4.48 1.11,4.48 1.11,4.48 C1.03171024,4.52985057 0.963797281,4.59436788 0.91,4.67 L0.86,4.74 C0.804639981,4.84146185 0.773816617,4.95448086 0.77,5.07 L0.77,12.87 C0.773187227,13.1307717 0.919079667,13.3688067 1.15,13.49 L7.72,16.89 C7.90918746,16.9830055 8.13081254,16.9830055 8.32,16.89 L14.89,13.49 C15.1209203,13.3688067 15.2668128,13.1307717 15.27,12.87 L15.27,5.1 C15.2661834,4.98448086 15.23536,4.87146185 15.18,4.77 Z M8,2.49 L13.05,5.1 L8,7.71 L3,5.1 L8,2.49 Z M2.13,6.25 L7.3,8.92 L7.3,15.15 L2.13,12.48 L2.13,6.25 Z M8.7,15.15 L8.7,8.92 L13.87,6.25 L13.87,12.48 L8.7,15.15 Z" id="Shape"></path>
                </g>
            </g>
        </g>
    </g>
</svg>