<?xml version="1.0" encoding="UTF-8"?>
<svg width="16px" height="16px" viewBox="0 0 16 16" version="1.1" xmlns="http://www.w3.org/2000/svg" xmlns:xlink="http://www.w3.org/1999/xlink">
    <!-- Generator: Sketch 52.6 (67491) - http://www.bohemiancoding.com/sketch -->
    <title>icon/split</title>
    <desc>Created with Sketch.</desc>
    <g id="Icons-✅" stroke="none" stroke-width="1" fill="none" fill-rule="evenodd">
        <g id="Icons" transform="translate(-163.000000, -1200.000000)" fill="currentColor">
            <g id="icon/split" transform="translate(163.000000, 1200.000000)">
                <g id="split" transform="translate(-1.000000, -1.000000)">
                    <path d="M16.79,3.18 L14.79,1.18 C14.7243833,1.11231637 14.6462784,1.05798248 14.56,1.02 C14.3868165,0.949943818 14.1931835,0.949943818 14.02,1.02 C13.9367759,1.05820602 13.8619894,1.11259619 13.8,1.18 L11.8,3.18 C11.5238576,3.45614237 11.5238576,3.90385763 11.8,4.18 C12.0761424,4.45614237 12.5238576,4.45614237 12.8,4.18 L13.58,3.4 L13.58,7.3 C13.58,8.4045695 12.6845695,9.3 11.58,9.3 C10.5724589,9.31249105 9.62440469,9.77916892 9,10.57 C8.37263856,9.73739302 7.3924907,9.24546975 6.35,9.24 C5.28414122,9.21367055 4.42632945,8.35585878 4.4,7.29 L4.4,3.39 L5.18,4.17 C5.31086628,4.29822225 5.48678721,4.37002671 5.67,4.37 C5.85587006,4.36849533 6.03436674,4.29709666 6.17,4.17 C6.44455556,3.89320224 6.44455556,3.44679776 6.17,3.17 L4.17,1.17 C4.11972533,1.12163625 4.06240702,1.08117626 4,1.05 C3.82681648,0.979943818 3.63318352,0.979943818 3.46,1.05 C3.36458018,1.08759173 3.27655863,1.14175884 3.2,1.21 L1.2,3.21 C0.925444435,3.48679776 0.925444435,3.93320224 1.2,4.21 C1.47679776,4.48455556 1.92320224,4.48455556 2.2,4.21 L3,3.39 L3,7.29 C3,9.14015391 4.49984609,10.64 6.35,10.64 C7.43533429,10.6396608 8.32286669,11.5050049 8.35,12.59 L8.35,16.3 C8.35,16.6865993 8.66340068,17 9.05,17 C9.43659932,17 9.75,16.6865993 9.75,16.3 L9.75,12.59 C9.77713331,11.5050049 10.6646657,10.6396608 11.75,10.64 C13.5609875,10.5859167 15.0008074,9.10179476 15,7.29 L15,3.39 L15.78,4.17 C16.0567978,4.44455556 16.5032022,4.44455556 16.78,4.17 C17.0508105,3.8971304 17.0552433,3.45828429 16.79,3.18 Z" id="Path"></path>
                </g>
            </g>
        </g>
    </g>
</svg>