<?xml version="1.0" encoding="UTF-8"?>
<svg width="16px" height="16px" viewBox="0 0 16 16" version="1.1" xmlns="http://www.w3.org/2000/svg" xmlns:xlink="http://www.w3.org/1999/xlink">
    <!-- Generator: Sketch 52.6 (67491) - http://www.bohemiancoding.com/sketch -->
    <title>icon/sync-blocked</title>
    <desc>Created with Sketch.</desc>
    <g id="Icons-✅" stroke="none" stroke-width="1" fill="none" fill-rule="evenodd">
        <g id="Icons" transform="translate(-572.000000, -1068.000000)" fill="currentColor">
            <g id="icon/sync-blocked" transform="translate(572.000000, 1068.000000)">
                <g id="sync-blocked" transform="translate(-1.000000, -1.000000)">
                    <path d="M3.1,11.92 L2.07,13 C1.08875014,11.2975509 0.768388423,9.29351042 1.17,7.37 C1.20926317,7.11473033 1.38589787,6.90181998 1.62952851,6.81609766 C1.87315915,6.73037534 2.14419798,6.78577014 2.3346565,6.96021141 C2.52511501,7.13465268 2.60404546,7.39979532 2.54,7.65 C2.24320102,9.09588272 2.4404028,10.5995463 3.1,11.92 Z M2.55,4.74 C2.51639707,4.69921612 2.49246535,4.65135267 2.48,4.6 L2.48,2 C2.47999999,1.74991408 2.61341924,1.51882516 2.83,1.39378221 C3.04658075,1.26873925 3.31341925,1.26873925 3.53,1.39378221 C3.74658076,1.51882516 3.88000001,1.74991408 3.88,2 L3.88,2.82 C6.44426384,0.702009756 10.051465,0.391456013 12.94,2.04 L11.94,3.04 C9.63474347,1.89643628 6.87503655,2.19699842 4.87,3.81 L5.82,3.81 C6.20659932,3.81 6.52,4.12340068 6.52,4.51 C6.52,4.89659932 6.20659932,5.21 5.82,5.21 L3.22,5.21 L3.13,5.21 C3.08679038,5.21463067 3.04320962,5.21463067 3,5.21 C2.93612602,5.18417466 2.87567192,5.15058905 2.82,5.11 L2.75,5.11 L2.66,5 L2.55,4.86 C2.54570192,4.82011546 2.54570192,4.77988454 2.55,4.74 Z M16.79,2.2 L15.14,3.96 C16.7142058,5.82919566 17.3477259,8.31539358 16.86,10.71 C16.793923,11.0337692 16.5104315,11.2672327 16.18,11.27 L16.03,11.27 C15.6549406,11.1852079 15.4155446,10.8172475 15.49,10.44 C15.8844077,8.50487536 15.3928843,6.49476491 14.15,4.96 L4.89,14.22 L5.01,14.33 C7.42640745,16.1748564 10.7895858,16.1335904 13.16,14.23 L12.22,14.23 C11.8334007,14.23 11.52,13.9165993 11.52,13.53 C11.52,13.1434007 11.8334007,12.83 12.22,12.83 L14.82,12.83 L14.91,12.83 C14.9532096,12.8253693 14.9967904,12.8253693 15.04,12.83 C15.0883874,12.845719 15.1352466,12.8658016 15.18,12.89 L15.25,12.89 L15.34,13 L15.45,13.14 C15.4542981,13.1798845 15.4542981,13.2201155 15.45,13.26 C15.4594286,13.3061904 15.4594286,13.3538096 15.45,13.4 L15.45,16 C15.45,16.3865993 15.1365993,16.7 14.75,16.7 C14.3634007,16.7 14.05,16.3865993 14.05,16 L14.05,15.16 C12.8930041,16.1186208 11.4894304,16.7320345 10,16.93 C9.66861633,16.9757584 9.33452689,16.9991447 9,17 C7.23858558,17.0054099 5.52537569,16.4249589 4.13,15.35 L3.87,15.12 L2.2,16.79 C2.06832072,16.9243397 1.88811326,17.0000269 1.7,17 C1.51614131,17.0034016 1.33896611,16.9310852 1.21,16.8 C1.07303562,16.6697469 0.995499737,16.4890108 0.995499737,16.3 C0.995499737,16.1109892 1.07303562,15.9302531 1.21,15.8 L2.88,14.13 L3.88,13.13 L13.13,3.88 L14.13,2.88 L15.79,1.2 C15.9202531,1.06303562 16.1009892,0.985499737 16.29,0.985499737 C16.4790108,0.985499737 16.6597469,1.06303562 16.79,1.2 C16.9269644,1.33025306 17.0045003,1.51098915 17.0045003,1.7 C17.0045003,1.88901085 16.9269644,2.06974694 16.79,2.2 Z" id="Combined-Shape"></path>
                </g>
            </g>
        </g>
    </g>
</svg>