<?xml version="1.0" encoding="UTF-8"?>
<svg width="14px" height="14px" viewBox="0 0 14 14" version="1.1" xmlns="http://www.w3.org/2000/svg" xmlns:xlink="http://www.w3.org/1999/xlink">
    <!-- Generator: Sketch 52.6 (67491) - http://www.bohemiancoding.com/sketch -->
    <title>icon/upload</title>
    <desc>Created with Sketch.</desc>
    <g id="Icons-✅" stroke="none" stroke-width="1" fill="none" fill-rule="evenodd">
        <g id="Icons" transform="translate(-81.000000, -937.000000)" fill="currentColor">
            <g id="icon/upload" transform="translate(81.000000, 937.000000)">
                <g id="upload" transform="translate(0.000000, -1.000000)">
                    <path d="M13.3,9.54 C13.6865993,9.54 14,9.85340068 14,10.24 L14,12.6 C13.9945208,13.9232072 12.9232072,14.9945208 11.6,15 L2.4,15 C1.0767928,14.9945208 0.0054791892,13.9232072 8.8817842e-16,12.6 L8.8817842e-16,10.24 C-3.72656961e-09,9.98991408 0.133419242,9.75882517 0.349999997,9.63378221 C0.566580752,9.50873925 0.833419248,9.50873925 1.05,9.63378221 C1.26658076,9.75882517 1.4,9.98991408 1.4,10.24 L1.4,12.6 C1.4,13.1522847 1.84771525,13.6 2.4,13.6 L11.6,13.6 C12.1522847,13.6 12.6,13.1522847 12.6,12.6 L12.6,10.24 C12.6,9.85340068 12.9134007,9.54 13.3,9.54 Z M3.53,6.17 L3.46,6.17 C3.18385762,6.44614237 2.73614238,6.44614236 2.46000001,6.16999999 C2.18385764,5.89385762 2.18385763,5.44614238 2.46,5.17 L6.46,1.17 C6.52751891,1.10459083 6.60519259,1.05055696 6.69,1.01 C6.86318352,0.939943818 7.05681648,0.939943818 7.23,1.01 C7.31480741,1.05055696 7.39248109,1.10459083 7.46,1.17 L11.46,5.17 C11.6631734,5.36906847 11.7256853,5.67128737 11.6181568,5.93462238 C11.5106284,6.19795738 11.2544428,6.37004147 10.97,6.37 C10.7841299,6.36849533 10.6056333,6.29709666 10.47,6.17 L7.7,3.39 L7.7,10.85 C7.69999998,11.2365993 7.38659931,11.55 7,11.55 C6.61340069,11.55 6.30000002,11.2365993 6.3,10.85 L6.3,3.39 L3.53,6.17 Z" id="Combined-Shape"></path>
                </g>
            </g>
        </g>
    </g>
</svg>