<?xml version="1.0" encoding="UTF-8"?>
<svg width="17px" height="17px" viewBox="0 0 17 17" version="1.1" xmlns="http://www.w3.org/2000/svg" xmlns:xlink="http://www.w3.org/1999/xlink">
    <!-- Generator: Sketch 52.6 (67491) - http://www.bohemiancoding.com/sketch -->
    <title>icon/verified</title>
    <desc>Created with Sketch.</desc>
    <g id="Icons-✅" stroke="none" stroke-width="1" fill="none" fill-rule="evenodd">
        <g id="Icons" transform="translate(-819.000000, -804.000000)" fill="currentColor">
            <g id="icon/verified" transform="translate(819.000000, 804.000000)">
                <g id="verified" transform="translate(0.049033, 0.015223)">
                    <path d="M13.1951524,13.037181 L2.82768344,13.037181 C2.45386426,13.035179 2.13136497,12.7738419 2.05126506,12.408011 L0.0188757703,3.039097 C-0.0517248368,2.71907672 0.0794491326,2.38825731 0.349995374,2.20401676 C0.622907522,2.02095316 0.979098696,2.02095316 1.25201084,2.20401676 L4.47186354,4.42327111 L7.36059663,0.327946068 C7.51353383,0.121627911 7.75490899,-1.19904087e-13 8.01141792,-1.19904087e-13 C8.26792685,-1.19904087e-13 8.509302,0.121627911 8.66223921,0.327946068 L11.5509723,4.42327111 L14.7479892,2.20401676 C15.0209013,2.02095316 15.3770925,2.02095316 15.6500046,2.20401676 C15.9205509,2.38825731 16.0517248,2.71907672 15.9811242,3.039097 L13.9715708,12.408011 C13.8914709,12.7738419 13.5689716,13.035179 13.1951524,13.037181 Z M3.44425098,11.4242178 L12.5785849,11.4242178 L13.9944066,4.67493913 L11.8021665,6.1963867 C11.6265731,6.3299778 11.4031398,6.38373671 11.1861447,6.34460392 C10.9691496,6.30547112 10.778451,6.17702785 10.6603747,5.9904765 L8.01141792,2.18113785 L5.32820734,5.9904765 C5.21013109,6.17702785 5.01943246,6.30547112 4.80243737,6.34460392 C4.58544228,6.38373671 4.362009,6.3299778 4.1864156,6.1963867 L2.02842922,4.67493913 L3.44425098,11.4242178 Z M13.2294061,16 L2.79342969,16 C2.35201377,16 1.99417547,15.6414867 1.99417547,15.1992381 C1.99417547,14.7569895 2.35201377,14.3984762 2.79342969,14.3984762 L13.2294061,14.3984762 C13.6708221,14.3984762 14.0286604,14.7569895 14.0286604,15.1992381 C14.0286604,15.6414867 13.6708221,16 13.2294061,16 Z" id="Combined-Shape"></path>
                </g>
            </g>
        </g>
    </g>
</svg>